/* XPM */
static char *_14ab29cd73b470c970dcd8f182160f8zlfUHpsaOAxAc2IC[] = {
/* columns rows colors chars-per-pixel */
"128 128 9 1 ",
"  c None",
". c #211924",
"X c #251D2A",
"o c #2F2535",
"O c #372B3E",
"+ c #3F3249",
"@ c #4C4452",
"# c #AC98B6",
"$ c #E7E0E9",
/* pixels */
"                                                                                                                                ",
"                                                                                                                                ",
"                                                                                                                                ",
"                                                                                                                                ",
"                                                                                                                                ",
"                                                                                                                                ",
"                                                                                                                                ",
"                                                                                                                                ",
"                                                                                                                                ",
"                                                                                                                                ",
"                                                                                                                                ",
"                                                                                                                                ",
"                                                                                                                                ",
"                                                                                                                                ",
"                                                                                                                                ",
"                                                                                                                                ",
"                                                                                                                                ",
"                                                                                                                                ",
"                                                                                                                                ",
"                                                                                                                                ",
"                                                                                                                                ",
"                                                                                                                                ",
"                                                                                                                                ",
"                                                                                                                                ",
"                                                                                                                                ",
"                                                                                                                                ",
"                                                                                                                                ",
"                                                                                                                                ",
"                                                                                                                                ",
"                                                                                                                                ",
"                                                                                                                                ",
"                                                                                                                                ",
"                                                                                                                                ",
"                                                                                                                                ",
"                                                                                                                                ",
"                                                        OOOOOOOOOOOOOOOOOOO                                                     ",
"                                                        OOOOOOOOOOOOOOOOOOO                                                     ",
"                                                        OOOOOOOOOOOOOOOOOOO                                                     ",
"                                                        OOOOOOOOOOOOOOOOOOO                                                     ",
"                                                    OOOOOOOOOOOOOOOOOOOOOOOOOOO                                                 ",
"                                                    OOOOOOOOOOOOOOOOOOOOOOOOOOO                                                 ",
"                                                    OOOOOOOOOOOOOOOOOOOOOOOOOOO                                                 ",
"                                                    OOOOOOOOOOOOOOOOOOOOOOOOOOO                                                 ",
"                                                    OOOOOOOOOOOOOOOOOOOOOOOOOOO                                                 ",
"                                                    OOOOOOOOOOOOOOOOOOOOOOOOOOO                                                 ",
"                                                    OOOOOOOOOOOOOOOOOOOOOOOOOOO                                                 ",
"                                             #######OOOOOOOOOOOO$$$$$$$OOOO$$$$                                                 ",
"                                             #######OOOOOOOOOOOO$$$$$$$OOOO$$$$                                                 ",
"                                             #######OOOOOOOOOOOO$$$$$$$OOOO$$$$                                                 ",
"                                             #######OOOOOOOOOOOO$$$$$$$OOOO$$$$                                                 ",
"                                         ####       OOOOOOOOOOOO$$$$$$$OOOO$$$$                                                 ",
"                                         ####       OOOOOOOOOOOO$$$$$$$OOOO$$$$                                                 ",
"                                         ####       OOOOOOOOOOOO$$$$$$$OOOO$$$$                                                 ",
"                                         ####       OOOOOOOOOOOO$$$$$$$OOOO$$$$                                                 ",
"                                     ####           ...........................                                                 ",
"                                     ####           ...........................                                                 ",
"                                     ####           ...........................                                                 ",
"                                     ####           ...........................                                                 ",
"                                     ####           ...........................                                                 ",
"                                     ####           ...........................                                                 ",
"                                     ####           ...........................                                                 ",
"                                     ####       OOOOOOOOOOOOOOOOOOOOOOOOOOOOOOOOOOO                                             ",
"                                     ####       OOOOOOOOOOOOOOOOOOOOOOOOOOOOOOOOOOO                                             ",
"                                     ####       OOOOOOOOOOOOOOOOOOOOOOOOOOOOOOOOOOO                                             ",
"                                     ####       OOOOOOOOOOOOOOOOOOOOOOOOOOOOOOOOOOO                                             ",
"                                     ####    ++++++++++++++++++++++++++++++++++++++++++                                         ",
"                                     ####    ++++++++++++++++++++++++++++++++++++++++++                                         ",
"                                     ####    ++++++++++++++++++++++++++++++++++++++++++                                         ",
"                                     ####    ++++++++++++++++++++++++++++++++++++++++++                                         ",
"                                     ####    OOOOOOOOOOOOOOOOOOOOOOOOOOOOOOOOOOOOOOOOOO                                         ",
"                                     ####    OOOOOOOOOOOOOOOOOOOOOOOOOOOOOOOOOOOOOOOOOO                                         ",
"                                     ####    OOOOOOOOOOOOOOOOOOOOOOOOOOOOOOOOOOOOOOOOOO                                         ",
"                                     ####    OOOOOOOOOOOOOOOOOOOOOOOOOOOOOOOOOOOOOOOOOO                                         ",
"                                     ####    OOOOOOOOOOOOOOOOOOO##############################################                  ",
"                                     ####    OOOOOOOOOOOOOOOOOOO##############################################                  ",
"                                     ####    OOOOOOOOOOOOOOOOOOO##############################################                  ",
"                                     ####    OOOOOOOOOOOOOOOOOOO##############################################                  ",
"                                         ####OOOOOOOOOOOOOOO###############........###########################                  ",
"                                         ####OOOOOOOOOOOOOOO###############........###########################                  ",
"                                         ####OOOOOOOOOOOOOOO###############........###########################                  ",
"                                             OOOOOOOOOOO........#######................###############                          ",
"                                             OOOOOOOOOOO........#######................###############                          ",
"                                             OOOOOOOOOOO........#######................###############                          ",
"                                             OOOOOOOOOOO........#######................###############                          ",
"                                             OOOOOOO................OOO................                                         ",
"                                             OOOOOOO................OOO................                                         ",
"                                             OOOOOOO................OOO................                                         ",
"                                             OOOOOOO................OOO................                                         ",
"                                             OOOOOOO................OOOOOOO........OOOO                                         ",
"                                             OOOOOOO................OOOOOOO........OOOO                                         ",
"                                             OOOOOOO................OOOOOOO........OOOO                                         ",
"                                             OOOOOOO................OOOOOOO........OOOO                                         ",
"                                             OOOOOOOOOOO........OOOOOOOOOOOOOOOOOOOOOOO                                         ",
"                                             OOOOOOOOOOO........OOOOOOOOOOOOOOOOOOOOOOO                                         ",
"                                             OOOOOOOOOOO........OOOOOOOOOOOOOOOOOOOOOOO                                         ",
"                                             OOOOOOOOOOO........OOOOOOOOOOOOOOOOOOOOOOO                                         ",
"                                             OOOOOOOOOOOOOOOOOOOOOOOOOOOOOOOOOOOOOOOOOO                                         ",
"                                             OOOOOOOOOOOOOOOOOOOOOOOOOOOOOOOOOOOOOOOOOO                                         ",
"                                             OOOOOOOOOOOOOOOOOOOOOOOOOOOOOOOOOOOOOOOOOO                                         ",
"                                             OOOOOOOOOOOOOOOOOOOOOOOOOOOOOOOOOOOOOOOOOO                                         ",
"                                             OOOOOOOOOOOOOOOOOOOOOOOOOOOOOOOOOOOOOOOOOO                                         ",
"                                             OOOOOOOOOOOOOOOOOOOOOOOOOOOOOOOOOOOOOOOOOO                                         ",
"                                             OOOOOOOOOOOOOOOOOOOOOOOOOOOOOOOOOOOOOOOOOO                                         ",
"                                                ooooooooooooooooooooooooooooooooooo                                             ",
"                                                ooooooooooooooooooooooooooooooooooo                                             ",
"                                                ooooooooooooooooooooooooooooooooooo                                             ",
"                                                ooooooooooooooooooooooooooooooooooo                                             ",
"                                                    XXXXXXXXXXXXXXXXXXX                                                         ",
"                                                    XXXXXXXXXXXXXXXXXXX                                                         ",
"                                                    XXXXXXXXXXXXXXXXXXX                                                         ",
"                                                    XXXXXXXXXXXXXXXXXXX                                                         ",
"  @@@@@@@@@@@@@@@@@@@@@@@@@@@@@@@@@@@$$$$$$$$@@@@@@@@@@@XXXXXXXXXXXX                                                            ",
"  @@@@@@@@@@@@@@@@@@@@@@@@@@@@@@@@@@@$$$$$$$$@@@@@@@@@@@XXXXXXXXXXXX                                                            ",
"  @@@@@@@@@@@@@@@@@@@@@@@@@@@@@@@@@@@$$$$$$$$@@@@@@@@@@@XXXXXXXXXXXX                                                            ",
"  @@@@@@@@@@@@@@@@@@@@@@@@@@@@@@@@@@@$$$$$$$$@@@@@@@@@@@XXXXXXXXXXXX                                                            ",
"                                                                                                                                ",
"                                                                                                                                ",
"                                                                                                                                ",
"                                                                                                                                ",
"                                                                                                                                ",
"                                                                                                                                ",
"                                                                                                                                ",
"                                                                                                                                ",
"                                                                                                                                ",
"                                                                                                                                ",
"                                                                                                                                ",
"                                                                                                                                ",
"                                                                                                                                "
};
