/* XPM */
static char *f1d32d5fcfb643faf226498c353fa91009a3sIBO3ICSRwCm[] = {
/* columns rows colors chars-per-pixel */
"128 128 9 1 ",
"  c None",
". c #211924",
"X c #251D2A",
"o c #2F2535",
"O c #372B3E",
"+ c #3F3249",
"@ c #4C4452",
"# c #AC98B6",
"$ c #E7E0E9",
/* pixels */
"                                                                                                                                ",
"                                                                                                                                ",
"                                                                                                                                ",
"                                                                                                                                ",
"                                                                                                                                ",
"                                                                                                                                ",
"                                                                                                                                ",
"                                                                                                                                ",
"                                                                                                                                ",
"                                                                                                                                ",
"                                                                                                                                ",
"                                                                                                                                ",
"                                                                                                                                ",
"                                                                                                                                ",
"                                                                                                                                ",
"                                                                                                                                ",
"                                                                                                                                ",
"                                                                                                                                ",
"                                                                                                                                ",
"                                                                                                                                ",
"                                                                                                                                ",
"                                                                                                                                ",
"                                                                                                                                ",
"                                                                                                                                ",
"                                                                                                                                ",
"                                                                                                                                ",
"                                                                                                                                ",
"                                                                                                                                ",
"                                                                                                                                ",
"                                                                                                                                ",
"                                                                                                                                ",
"                                                                                                                                ",
"                                                                                                                                ",
"                                                                                                                                ",
"                                                                                                                                ",
"                                                                                                                                ",
"                                                                                                                                ",
"                                                                                                                                ",
"                                                                                                                                ",
"                                                            OOOOOOOOOOO                                                         ",
"                                                            OOOOOOOOOOO                                                         ",
"                                                            OOOOOOOOOOO                                                         ",
"                                                    OOOOOOOOOOOOOOOOOOOOOOO                                                     ",
"                                                    OOOOOOOOOOOOOOOOOOOOOOO                                                     ",
"                                                    OOOOOOOOOOOOOOOOOOOOOOO                                                     ",
"                                                    OOOOOOOOOOOOOOOOOOOOOOO                                                     ",
"                                                OOOOOOOOOOOOOOOOOOOOOOOOOOO                                                     ",
"                                                OOOOOOOOOOOOOOOOOOOOOOOOOOO                                                     ",
"                                                OOOOOOOOOOOOOOOOOOOOOOOOOOO                                                     ",
"                                                OOOOOOOOOOOOOOOOOOOOOOOOOOO                                                     ",
"                                                OOOOOOOOOOOO$$$$$$$$OOO$$$$                                                     ",
"                                                OOOOOOOOOOOO$$$$$$$$OOO$$$$                                                     ",
"                                                OOOOOOOOOOOO$$$$$$$$OOO$$$$                                                     ",
"                                                OOOOOOOOOOOO$$$$$$$$OOO$$$$                                                     ",
"                                             ###OOOOOOOOOOOO$$$$$$$$OOO$$$$                                                     ",
"                                             ###OOOOOOOOOOOO$$$$$$$$OOO$$$$                                                     ",
"                                             ###OOOOOOOOOOOO$$$$$$$$OOO$$$$                                                     ",
"                                             ###OOOOOOOOOOOO$$$$$$$$OOO$$$$                                                     ",
"                                         ####   OOOOOOOOOOOO...............                                                     ",
"                                         ####   OOOOOOOOOOOO...............                                                     ",
"                                         ####   OOOOOOOOOOOO...............                                                     ",
"                                     ####       ...........................                                                     ",
"                                     ####       ...........................                                                     ",
"                                     ####       ...........................                                                     ",
"                                     ####       ...........................                                                     ",
"                                 ####           ............OOOOOOOOOOOOOOOOOOO                                                 ",
"                                 ####           ............OOOOOOOOOOOOOOOOOOO                                                 ",
"                                 ####           ............OOOOOOOOOOOOOOOOOOO                                                 ",
"                                 ####           ............OOOOOOOOOOOOOOOOOOO                                                 ",
"                                 ####        OOOOOOOOOOOOOOO+++++++++++++++++++++++++++                                         ",
"                                 ####        OOOOOOOOOOOOOOO+++++++++++++++++++++++++++                                         ",
"                                 ####        OOOOOOOOOOOOOOO+++++++++++++++++++++++++++                                         ",
"                                 ####        OOOOOOOOOOOOOOO+++++++++++++++++++++++++++                                         ",
"                                 ####        +++++++++++++++##############################################                      ",
"                                 ####        +++++++++++++++##############################################                      ",
"                                 ####        +++++++++++++++##############################################                      ",
"                                 ####        +++++++++++++++##############################################                      ",
"                                     ####    OOOOOOOOOOO###############........###########################                      ",
"                                     ####    OOOOOOOOOOO###############........###########################                      ",
"                                     ####    OOOOOOOOOOO###############........###########################                      ",
"                                     ####    OOOOOOO........########...............###############                              ",
"                                     ####    OOOOOOO........########...............###############                              ",
"                                     ####    OOOOOOO........########...............###############                              ",
"                                     ####    OOOOOOO........########...............###############                              ",
"                                         ####OOO................OOOO...............OOOO                                         ",
"                                         ####OOO................OOOO...............OOOO                                         ",
"                                         ####OOO................OOOO...............OOOO                                         ",
"                                         ####OOO................OOOO...............OOOO                                         ",
"                                             OOO................OOOOOOO........OOOOOOOO                                         ",
"                                             OOO................OOOOOOO........OOOOOOOO                                         ",
"                                             OOO................OOOOOOO........OOOOOOOO                                         ",
"                                             OOO................OOOOOOO........OOOOOOOO                                         ",
"                                             OOOOOOO........OOOOOOOOOOOOOOOOOOOOOOOOOOO                                         ",
"                                             OOOOOOO........OOOOOOOOOOOOOOOOOOOOOOOOOOO                                         ",
"                                             OOOOOOO........OOOOOOOOOOOOOOOOOOOOOOOOOOO                                         ",
"                                             OOOOOOO........OOOOOOOOOOOOOOOOOOOOOOOOOOO                                         ",
"                                             OOOOOOOOOOOOOOOOOOOOOOOOOOOOOOOOOOOOOOOOOO                                         ",
"                                             OOOOOOOOOOOOOOOOOOOOOOOOOOOOOOOOOOOOOOOOOO                                         ",
"                                             OOOOOOOOOOOOOOOOOOOOOOOOOOOOOOOOOOOOOOOOOO                                         ",
"                                             OOOOOOOOOOOOOOOOOOOOOOOOOOOOOOOOOOOOOOOOOO                                         ",
"                                             OOOOOOOOOOOOOOOOOOOOOOOOOOOOOOOOOOOOOOOOOO                                         ",
"                                             OOOOOOOOOOOOOOOOOOOOOOOOOOOOOOOOOOOOOOOOOO                                         ",
"                                             OOOOOOOOOOOOOOOOOOOOOOOOOOOOOOOOOOOOOOOOOO                                         ",
"                                             OOOOOOOOOOOOOOOOOOOOOOOOOOOOOOOOOOOOOOOOOO                                         ",
"                                             OOOOOOOOOOOOOOOOOOOOOOOOOOOOOOOOOOOOOOOOOO                                         ",
"                                             OOOOOOOOOOOOOOOOOOOOOOOOOOOOOOOOOOOOOOOOOO                                         ",
"                                             OOOOOOOOOOOOOOOOOOOOOOOOOOOOOOOOOOOOOOOOOO                                         ",
"                                             OOOOOOOOOOOOOOOooooooooooooooooooooooo                                             ",
"                                             OOOOOOOOOOOOOOOooooooooooooooooooooooo                                             ",
"                                             OOOOOOOOOOOOOOOooooooooooooooooooooooo                                             ",
"                                             OOOOOOOOOOOOOOOooooooooooooooooooooooo                                             ",
"  @@@@@@@@$$$$@@@@@@@@@@@@@@@@@@@@@@@@@@@@@@@@@@ooooooooooooXXXXXXXXXXX                                                         ",
"  @@@@@@@@$$$$@@@@@@@@@@@@@@@@@@@@@@@@@@@@@@@@@@ooooooooooooXXXXXXXXXXX                                                         ",
"  @@@@@@@@$$$$@@@@@@@@@@@@@@@@@@@@@@@@@@@@@@@@@@ooooooooooooXXXXXXXXXXX                                                         ",
"  @@@@@@@@$$$$@@@@@@@@@@@@@@@@@@@@@@@@@@@@@@@@@@ooooooooooooXXXXXXXXXXX                                                         ",
"                                                                                                                                ",
"                                                                                                                                ",
"                                                                                                                                ",
"                                                                                                                                ",
"                                                                                                                                ",
"                                                                                                                                ",
"                                                                                                                                ",
"                                                                                                                                ",
"                                                                                                                                ",
"                                                                                                                                ",
"                                                                                                                                ",
"                                                                                                                                ",
"                                                                                                                                "
};
