/* XPM */
static char *cf5e499880d44ca0f5fc2b19945b99bdJHOw1vkZ98rzDYr2[] = {
/* columns rows colors chars-per-pixel */
"128 128 9 1 ",
"  c None",
". c #211924",
"X c #251D2A",
"o c #2F2535",
"O c #372B3E",
"+ c #3F3249",
"@ c #4C4452",
"# c #AC98B6",
"$ c #E7E0E9",
/* pixels */
"                                                                                                                                ",
"                                                                                                                                ",
"                                                                                                                                ",
"                                                                                                                                ",
"                                                                                                                                ",
"                                                                                                                                ",
"                                                                                                                                ",
"                                                                                                                                ",
"                                                                                                                                ",
"                                                                                                                                ",
"                                                                                                                                ",
"                                                                                                                                ",
"                                                                                                                                ",
"                                                                                                                                ",
"                                                                                                                                ",
"                                                                                                                                ",
"                                                                                                                                ",
"                                                                                                                                ",
"                                                                                                                                ",
"                                                                                                                                ",
"                                                                                                                                ",
"                                                                                                                                ",
"                                                                                                                                ",
"                                                                                                                                ",
"                                                                                                                                ",
"                                                                                                                                ",
"                                                                                                                                ",
"                                                                                                                                ",
"                                                                                                                                ",
"                                                                                                                                ",
"                                                                                                                                ",
"                                                                                                                                ",
"                                                                                                                                ",
"                                                                                                                                ",
"                                                                                                                                ",
"                                                        OOOOOOOOOOOOOOOOOOO                                                     ",
"                                                        OOOOOOOOOOOOOOOOOOO                                                     ",
"                                                        OOOOOOOOOOOOOOOOOOO                                                     ",
"                                                        OOOOOOOOOOOOOOOOOOO                                                     ",
"                                                    OOOOOOOOOOOOOOOOOOOOOOOOOOO                                                 ",
"                                                    OOOOOOOOOOOOOOOOOOOOOOOOOOO                                                 ",
"                                                    OOOOOOOOOOOOOOOOOOOOOOOOOOO                                                 ",
"                                             ###    OOOOOOOOOOOOOOOOOOOOOOOOOOO                                                 ",
"                                             ###    OOOOOOOOOOOOOOOOOOOOOOOOOOO                                                 ",
"                                             ###    OOOOOOOOOOOOOOOOOOOOOOOOOOO                                                 ",
"                                             ###    OOOOOOOOOOOOOOOOOOOOOOOOOOO                                                 ",
"                                         ####   ####OOOOOOOOOOOO$$$$$$$OOOO$$$$                                                 ",
"                                         ####   ####OOOOOOOOOOOO$$$$$$$OOOO$$$$                                                 ",
"                                         ####   ####OOOOOOOOOOOO$$$$$$$OOOO$$$$                                                 ",
"                                         ####   ####OOOOOOOOOOOO$$$$$$$OOOO$$$$                                                 ",
"                                     ####           OOOOOOOOOOOO$$$$$$$OOOO$$$$                                                 ",
"                                     ####           OOOOOOOOOOOO$$$$$$$OOOO$$$$                                                 ",
"                                     ####           OOOOOOOOOOOO$$$$$$$OOOO$$$$                                                 ",
"                                     ####           OOOOOOOOOOOO$$$$$$$OOOO$$$$                                                 ",
"                                     ####           ...........................                                                 ",
"                                     ####           ...........................                                                 ",
"                                     ####           ...........................                                                 ",
"                                     ####           ...........................                                                 ",
"                                     ####           ...........................                                                 ",
"                                     ####           ...........................                                                 ",
"                                     ####           ...........................                                                 ",
"                                     ####       OOOOOOOOOOOOOOOOOOOOOOOOOOOOOOOOOOO                                             ",
"                                     ####       OOOOOOOOOOOOOOOOOOOOOOOOOOOOOOOOOOO                                             ",
"                                     ####       OOOOOOOOOOOOOOOOOOOOOOOOOOOOOOOOOOO                                             ",
"                                     ####       OOOOOOOOOOOOOOOOOOOOOOOOOOOOOOOOOOO                                             ",
"                                     ####    ++++++++++++++++++++++++++++++++++++++++++                                         ",
"                                     ####    ++++++++++++++++++++++++++++++++++++++++++                                         ",
"                                     ####    ++++++++++++++++++++++++++++++++++++++++++                                         ",
"                                     ####    ++++++++++++++++++++++++++++++++++++++++++                                         ",
"                                     ####    OOOOOOOOOOOOOOOOOOOOOOOOOOOOOOOOOOOOOOOOOO                                         ",
"                                     ####    OOOOOOOOOOOOOOOOOOOOOOOOOOOOOOOOOOOOOOOOOO                                         ",
"                                     ####    OOOOOOOOOOOOOOOOOOOOOOOOOOOOOOOOOOOOOOOOOO                                         ",
"                                     ####    OOOOOOOOOOOOOOOOOOOOOOOOOOOOOOOOOOOOOOOOOO                                         ",
"                                     ####    OOOOOOOOOOO##############################################                          ",
"                                     ####    OOOOOOOOOOO##############################################                          ",
"                                     ####    OOOOOOOOOOO##############################################                          ",
"                                     ####    OOOOOOOOOOO##############################################                          ",
"                                         ####OOOOOOO################.......###########################                          ",
"                                         ####OOOOOOO################.......###########################                          ",
"                                         ####OOOOOOO################.......###########################                          ",
"                                             OOO........########...............###############                                  ",
"                                             OOO........########...............###############                                  ",
"                                             OOO........########...............###############                                  ",
"                                             OOO........########...............###############                                  ",
"                                             ...............OOOO...............OOOOOOOO                                         ",
"                                             ...............OOOO...............OOOOOOOO                                         ",
"                                             ...............OOOO...............OOOOOOOO                                         ",
"                                             ...............OOOO...............OOOOOOOO                                         ",
"                                             ...............OOOOOOOO.......OOOOOOOOOOOO                                         ",
"                                             ...............OOOOOOOO.......OOOOOOOOOOOO                                         ",
"                                             ...............OOOOOOOO.......OOOOOOOOOOOO                                         ",
"                                             ...............OOOOOOOO.......OOOOOOOOOOOO                                         ",
"                                             OOO........OOOOOOOOOOOOOOOOOOOOOOOOOOOOOOO                                         ",
"                                             OOO........OOOOOOOOOOOOOOOOOOOOOOOOOOOOOOO                                         ",
"                                             OOO........OOOOOOOOOOOOOOOOOOOOOOOOOOOOOOO                                         ",
"                                             OOO........OOOOOOOOOOOOOOOOOOOOOOOOOOOOOOO                                         ",
"                                             OOOOOOOOOOOOOOOOOOOOOOOOOOOOOOOOOOOOOOOOOO                                         ",
"                                             OOOOOOOOOOOOOOOOOOOOOOOOOOOOOOOOOOOOOOOOOO                                         ",
"                                             OOOOOOOOOOOOOOOOOOOOOOOOOOOOOOOOOOOOOOOOOO                                         ",
"                                             OOOOOOOOOOOOOOOOOOOOOOOOOOOOOOOOOOOOOOOOOO                                         ",
"                                             OOOOOOOOOOOOOOOOOOOOOOOOOOOOOOOOOOOOOOOOOO                                         ",
"                                             OOOOOOOOOOOOOOOOOOOOOOOOOOOOOOOOOOOOOOOOOO                                         ",
"                                             OOOOOOOOOOOOOOOOOOOOOOOOOOOOOOOOOOOOOOOOOO                                         ",
"                                                ooooooooooooooooooooooooooooooooooo                                             ",
"                                                ooooooooooooooooooooooooooooooooooo                                             ",
"                                                ooooooooooooooooooooooooooooooooooo                                             ",
"                                                ooooooooooooooooooooooooooooooooooo                                             ",
"                  $$$$                              XXXXXXXXXXXXXXXXXXX                                                         ",
"                  $$$$                              XXXXXXXXXXXXXXXXXXX                                                         ",
"                  $$$$                              XXXXXXXXXXXXXXXXXXX                                                         ",
"                  $$$$                              XXXXXXXXXXXXXXXXXXX                                                         ",
"  @@@@@@@@@@@@$$$$$$$$$$$@@@@@@@@@@@@@@@@@@@@@@@@@@@@@@@XXXXXXXXXXXX                                                            ",
"  @@@@@@@@@@@@$$$$$$$$$$$@@@@@@@@@@@@@@@@@@@@@@@@@@@@@@@XXXXXXXXXXXX                                                            ",
"  @@@@@@@@@@@@$$$$$$$$$$$@@@@@@@@@@@@@@@@@@@@@@@@@@@@@@@XXXXXXXXXXXX                                                            ",
"  @@@@@@@@@@@@$$$$$$$$$$$@@@@@@@@@@@@@@@@@@@@@@@@@@@@@@@XXXXXXXXXXXX                                                            ",
"                                                                                                                                ",
"                                                                                                                                ",
"                                                                                                                                ",
"                                                                                                                                ",
"                                                                                                                                ",
"                                                                                                                                ",
"                                                                                                                                ",
"                                                                                                                                ",
"                                                                                                                                ",
"                                                                                                                                ",
"                                                                                                                                ",
"                                                                                                                                ",
"                                                                                                                                "
};
