/* XPM */
static char *_3050a7596f14d99f9fc8e25365e2ee8PcQXWCo9zm4BChei[] = {
/* columns rows colors chars-per-pixel */
"128 128 9 1 ",
"  c None",
". c #211924",
"X c #251D2A",
"o c #2F2535",
"O c #372B3E",
"+ c #3F3249",
"@ c #4C4452",
"# c #AC98B6",
"$ c #E7E0E9",
/* pixels */
"                                                                                                                                ",
"                                                                                                                                ",
"                                                                                                                                ",
"                                                                                                                                ",
"                                                                                                                                ",
"                                                                                                                                ",
"                                                                                                                                ",
"                                                                                                                                ",
"                                                                                                                                ",
"                                                                                                                                ",
"                                                                                                                                ",
"                                                                                                                                ",
"                                                                                                                                ",
"                                                                                                                                ",
"                                                                                                                                ",
"                                                                                                                                ",
"                                                                                                                                ",
"                                                                                                                                ",
"                                                                                                                                ",
"                                                                                                                                ",
"                                                                                                                                ",
"                                                                                                                                ",
"                                                                                                                                ",
"                                                                                                                                ",
"                                                                                                                                ",
"                                                                                                                                ",
"                                                                                                                                ",
"                                                        OOOOOOOOOOOOOOOOOOO                                                     ",
"                                                        OOOOOOOOOOOOOOOOOOO                                                     ",
"                                                        OOOOOOOOOOOOOOOOOOO                                                     ",
"                                                        OOOOOOOOOOOOOOOOOOO                                                     ",
"                                                    OOOOOOOOOOOOOOOOOOOOOOO                                                     ",
"                                                    OOOOOOOOOOOOOOOOOOOOOOO                                                     ",
"                                                    OOOOOOOOOOOOOOOOOOOOOOO                                                     ",
"                                                    OOOOOOOOOOOOOOOOOOOOOOO                                                     ",
"                                                    OOOOOOOOOOOOOOOOOOOOOOOOOOO                                                 ",
"                                                    OOOOOOOOOOOOOOOOOOOOOOOOOOO                                                 ",
"                                                    OOOOOOOOOOOOOOOOOOOOOOOOOOO                                                 ",
"                                                    OOOOOOOOOOOOOOOOOOOOOOOOOOO                                                 ",
"                                             #######OOOOOOOOOOOO$$$$$$$OOOOOOOO                                                 ",
"                                             #######OOOOOOOOOOOO$$$$$$$OOOOOOOO                                                 ",
"                                             #######OOOOOOOOOOOO$$$$$$$OOOOOOOO                                                 ",
"                                         ####       OOOOOOOOOOOO$$$$$$$OOOO$$$$                                                 ",
"                                         ####       OOOOOOOOOOOO$$$$$$$OOOO$$$$                                                 ",
"                                         ####       OOOOOOOOOOOO$$$$$$$OOOO$$$$                                                 ",
"                                         ####       OOOOOOOOOOOO$$$$$$$OOOO$$$$                                                 ",
"                                     ####           .......................$$$$                                                 ",
"                                     ####           .......................$$$$                                                 ",
"                                     ####           .......................$$$$                                                 ",
"                                     ####           .......................$$$$                                                 ",
"                                     ####           ...........................                                                 ",
"                                     ####           ...........................                                                 ",
"                                     ####           ...........................                                                 ",
"                                     ####           ...........................                                                 ",
"                                 ####        OOOOOOOOOOOOOOOOOOOOOOOOOOOOOO....                                                 ",
"                                 ####        OOOOOOOOOOOOOOOOOOOOOOOOOOOOOO....                                                 ",
"                                 ####        OOOOOOOOOOOOOOOOOOOOOOOOOOOOOO....                                                 ",
"                                 ####        OOOOOOOOOOOOOOOOOOOOOOOOOOOOOO....                                                 ",
"                                 ####    ++++++++++++++++++++++++++++++OOOOOOOO                                                 ",
"                                 ####    ++++++++++++++++++++++++++++++OOOOOOOO                                                 ",
"                                 ####    ++++++++++++++++++++++++++++++OOOOOOOO                                                 ",
"                                 ####    OOOOOOOOOOOOOOOOOOOOOOOOOOOOOO++++++++++++                                             ",
"                                 ####    OOOOOOOOOOOOOOOOOOOOOOOOOOOOOO++++++++++++                                             ",
"                                 ####    OOOOOOOOOOOOOOOOOOOOOOOOOOOOOO++++++++++++                                             ",
"                                 ####    OOOOOOOOOOOOOOOOOOOOOOOOOOOOOO++++++++++++                                             ",
"                                 ####    OOOOOOOOOOOOOOOOOOOOOOO##############################################                  ",
"                                 ####    OOOOOOOOOOOOOOOOOOOOOOO##############################################                  ",
"                                 ####    OOOOOOOOOOOOOOOOOOOOOOO##############################################                  ",
"                                 ####    OOOOOOOOOOOOOOOOOOOOOOO##############################################                  ",
"                                     ####OOOOOOOOOOOOOOOOOOO###############........###########################                  ",
"                                     ####OOOOOOOOOOOOOOOOOOO###############........###########################                  ",
"                                     ####OOOOOOOOOOOOOOOOOOO###############........###########################                  ",
"                                     ####OOOOOOOOOOOOOOOOOOO###############........###########################                  ",
"                                         OOOOOOOOOOOOOOO........#######................###############                          ",
"                                         OOOOOOOOOOOOOOO........#######................###############                          ",
"                                         OOOOOOOOOOOOOOO........#######................###############                          ",
"                                         OOOOOOOOOOOOOOO........#######................###############                          ",
"                                         OOOOOOOOOOO................OOO................                                         ",
"                                         OOOOOOOOOOO................OOO................                                         ",
"                                         OOOOOOOOOOO................OOO................                                         ",
"                                         OOOOOOOOOOO................OOOOOOO........                                             ",
"                                         OOOOOOOOOOO................OOOOOOO........                                             ",
"                                         OOOOOOOOOOO................OOOOOOO........                                             ",
"                                         OOOOOOOOOOO................OOOOOOO........                                             ",
"                                         OOOOOOOOOOOOOOO........OOOOOOOOOOOOOOOOOOO                                             ",
"                                         OOOOOOOOOOOOOOO........OOOOOOOOOOOOOOOOOOO                                             ",
"                                         OOOOOOOOOOOOOOO........OOOOOOOOOOOOOOOOOOO                                             ",
"                                         OOOOOOOOOOOOOOO........OOOOOOOOOOOOOOOOOOO                                             ",
"                                         OOOOOOOOOOOOOOOOOOOOOOOOOOOOOOOOOOOOOOOOOO                                             ",
"                                         OOOOOOOOOOOOOOOOOOOOOOOOOOOOOOOOOOOOOOOOOO                                             ",
"                                         OOOOOOOOOOOOOOOOOOOOOOOOOOOOOOOOOOOOOOOOOO                                             ",
"                                         OOOOOOOOOOOOOOOOOOOOOOOOOOOOOOOOOOOOOOOOOO                                             ",
"                                         OOOOOOOOOOOOOOOOOOOOOOOOOOOOOOOOOOOOOOOOOO                                             ",
"                                         OOOOOOOOOOOOOOOOOOOOOOOOOOOOOOOOOOOOOOOOOO                                             ",
"                                         OOOOOOOOOOOOOOOOOOOOOOOOOOOOOOOOOOOOOOOOOO                                             ",
"                                         OOOOOOOOOOOOOOOOOOOOOOOOOOOOOOOOOOOOOOOOOO                                             ",
"                                             ooooooooooooooooooooooooooOOOOOOOOOOOO                                             ",
"                                             ooooooooooooooooooooooooooOOOOOOOOOOOO                                             ",
"                                             ooooooooooooooooooooooooooOOOOOOOOOOOO                                             ",
"                                                    ...................oooooooo                                                 ",
"                                                    ...................oooooooo                                                 ",
"                                                    ...................oooooooo                                                 ",
"                                                    ...................oooooooo                                                 ",
"                         $$$$                       XXXXXXXXXXXXXXXXXXX                                                         ",
"                         $$$$                       XXXXXXXXXXXXXXXXXXX                                                         ",
"                         $$$$                       XXXXXXXXXXXXXXXXXXX                                                         ",
"                         $$$$                       XXXXXXXXXXXXXXXXXXX                                                         ",
"                      $$$$$$$$$$$                       XXXXXXXXXXXX                                                            ",
"                      $$$$$$$$$$$                       XXXXXXXXXXXX                                                            ",
"                      $$$$$$$$$$$                       XXXXXXXXXXXX                                                            ",
"                      $$$$$$$$$$$                       XXXXXXXXXXXX                                                            ",
"  @@@@@@@@@@@@@@@@$$$$$$$$$$$$$$$$$$$$$$$$$$$@@@@@@@@@@@@@@@@@@@@@@@                                                            ",
"  @@@@@@@@@@@@@@@@$$$$$$$$$$$$$$$$$$$$$$$$$$$@@@@@@@@@@@@@@@@@@@@@@@                                                            ",
"  @@@@@@@@@@@@@@@@$$$$$$$$$$$$$$$$$$$$$$$$$$$@@@@@@@@@@@@@@@@@@@@@@@                                                            ",
"  @@@@@@@@@@@@@@@@$$$$$$$$$$$$$$$$$$$$$$$$$$$@@@@@@@@@@@@@@@@@@@@@@@                                                            ",
"                                                                                                                                ",
"                                                                                                                                ",
"                                                                                                                                ",
"                                                                                                                                ",
"                                                                                                                                ",
"                                                                                                                                ",
"                                                                                                                                ",
"                                                                                                                                ",
"                                                                                                                                ",
"                                                                                                                                ",
"                                                                                                                                ",
"                                                                                                                                ",
"                                                                                                                                "
};
