/* XPM */
static char *cba065e1750b4f86a39f6d51f3921edbJBFyGwxQuczzGbWa[] = {
/* columns rows colors chars-per-pixel */
"128 128 9 1 ",
"  c None",
". c #211924",
"X c #251D2A",
"o c #2F2535",
"O c #372B3E",
"+ c #3F3249",
"@ c #4C4452",
"# c #AC98B6",
"$ c #E7E0E9",
/* pixels */
"                                                                                                                                ",
"                                                                                                                                ",
"                                                                                                                                ",
"                                                                                                                                ",
"                                                                                                                                ",
"                                                                                                                                ",
"                                                                                                                                ",
"                                                                                                                                ",
"                                                                                                                                ",
"                                                                                                                                ",
"                                                                                                                                ",
"                                                                                                                                ",
"                                                                                                                                ",
"                                                                                                                                ",
"                                                                                                                                ",
"                                                                                                                                ",
"                                                                                                                                ",
"                                                                                                                                ",
"                                                                                                                                ",
"                                                                                                                                ",
"                                                                                                                                ",
"                                                                                                                                ",
"                                                                                                                                ",
"                                                                                                                                ",
"                                                                                                                                ",
"                                                                                                                                ",
"                                                                                                                                ",
"                                                        OOOOOOOOOOOOOOOOOOO                                                     ",
"                                                        OOOOOOOOOOOOOOOOOOO                                                     ",
"                                                        OOOOOOOOOOOOOOOOOOO                                                     ",
"                                                        OOOOOOOOOOOOOOOOOOO                                                     ",
"                                                    OOOOOOOOOOOOOOOOOOOOOOO                                                     ",
"                                                    OOOOOOOOOOOOOOOOOOOOOOO                                                     ",
"                                                    OOOOOOOOOOOOOOOOOOOOOOO                                                     ",
"                                                    OOOOOOOOOOOOOOOOOOOOOOO                                                     ",
"                                                    OOOOOOOOOOOOOOOOOOOOOOOOOOO                                                 ",
"                                                    OOOOOOOOOOOOOOOOOOOOOOOOOOO                                                 ",
"                                                    OOOOOOOOOOOOOOOOOOOOOOOOOOO                                                 ",
"                                                    OOOOOOOOOOOOOOOOOOOOOOOOOOO                                                 ",
"                                             #######OOOOOOOOOOOO$$$$$$$OOOOOOOO                                                 ",
"                                             #######OOOOOOOOOOOO$$$$$$$OOOOOOOO                                                 ",
"                                             #######OOOOOOOOOOOO$$$$$$$OOOOOOOO                                                 ",
"                                         ####       OOOOOOOOOOOO$$$$$$$OOOO$$$$                                                 ",
"                                         ####       OOOOOOOOOOOO$$$$$$$OOOO$$$$                                                 ",
"                                         ####       OOOOOOOOOOOO$$$$$$$OOOO$$$$                                                 ",
"                                         ####       OOOOOOOOOOOO$$$$$$$OOOO$$$$                                                 ",
"                                     ####           .......................$$$$                                                 ",
"                                     ####           .......................$$$$                                                 ",
"                                     ####           .......................$$$$                                                 ",
"                                     ####           .......................$$$$                                                 ",
"                                     ####           ...........................                                                 ",
"                                     ####           ...........................                                                 ",
"                                     ####           ...........................                                                 ",
"                                     ####           ...........................                                                 ",
"                                 ####        OOOOOOOOOOOOOOOOOOOOOOOOOOOOOO....                                                 ",
"                                 ####        OOOOOOOOOOOOOOOOOOOOOOOOOOOOOO....                                                 ",
"                                 ####        OOOOOOOOOOOOOOOOOOOOOOOOOOOOOO....                                                 ",
"                                 ####        OOOOOOOOOOOOOOOOOOOOOOOOOOOOOO....                                                 ",
"                                 ####    ++++++++++++++++++++++++++++++OOOOOOOO                                                 ",
"                                 ####    ++++++++++++++++++++++++++++++OOOOOOOO                                                 ",
"                                 ####    ++++++++++++++++++++++++++++++OOOOOOOO                                                 ",
"                                 ####    OOOOOOOOOOOOOOOOOOOOOOOOOOOOOO++++++++++++                                             ",
"                                 ####    OOOOOOOOOOOOOOOOOOOOOOOOOOOOOO++++++++++++                                             ",
"                                 ####    OOOOOOOOOOOOOOOOOOOOOOOOOOOOOO++++++++++++                                             ",
"                                 ####    OOOOOOOOOOOOOOOOOOOOOOOOOOOOOO++++++++++++                                             ",
"                                 ####    OOOOOOOOOOOOOOO##############################################                          ",
"                                 ####    OOOOOOOOOOOOOOO##############################################                          ",
"                                 ####    OOOOOOOOOOOOOOO##############################################                          ",
"                                 ####    OOOOOOOOOOOOOOO##############################################                          ",
"                                     ####OOOOOOOOOOO################.......###########################                          ",
"                                     ####OOOOOOOOOOO################.......###########################                          ",
"                                     ####OOOOOOOOOOO################.......###########################                          ",
"                                     ####OOOOOOOOOOO################.......###########################                          ",
"                                         OOOOOOO........########...............###############                                  ",
"                                         OOOOOOO........########...............###############                                  ",
"                                         OOOOOOO........########...............###############                                  ",
"                                         OOOOOOO........########...............###############                                  ",
"                                         OOOO...............OOOO...............OOOO                                             ",
"                                         OOOO...............OOOO...............OOOO                                             ",
"                                         OOOO...............OOOO...............OOOO                                             ",
"                                         OOOO...............OOOOOOOO.......OOOOOOOO                                             ",
"                                         OOOO...............OOOOOOOO.......OOOOOOOO                                             ",
"                                         OOOO...............OOOOOOOO.......OOOOOOOO                                             ",
"                                         OOOO...............OOOOOOOO.......OOOOOOOO                                             ",
"                                         OOOOOOO........OOOOOOOOOOOOOOOOOOOOOOOOOOO                                             ",
"                                         OOOOOOO........OOOOOOOOOOOOOOOOOOOOOOOOOOO                                             ",
"                                         OOOOOOO........OOOOOOOOOOOOOOOOOOOOOOOOOOO                                             ",
"                                         OOOOOOO........OOOOOOOOOOOOOOOOOOOOOOOOOOO                                             ",
"                                         OOOOOOOOOOOOOOOOOOOOOOOOOOOOOOOOOOOOOOOOOO                                             ",
"                                         OOOOOOOOOOOOOOOOOOOOOOOOOOOOOOOOOOOOOOOOOO                                             ",
"                                         OOOOOOOOOOOOOOOOOOOOOOOOOOOOOOOOOOOOOOOOOO                                             ",
"                                         OOOOOOOOOOOOOOOOOOOOOOOOOOOOOOOOOOOOOOOOOO                                             ",
"                                         OOOOOOOOOOOOOOOOOOOOOOOOOOOOOOOOOOOOOOOOOO                                             ",
"                                         OOOOOOOOOOOOOOOOOOOOOOOOOOOOOOOOOOOOOOOOOO                                             ",
"                                         OOOOOOOOOOOOOOOOOOOOOOOOOOOOOOOOOOOOOOOOOO                                             ",
"                                         OOOOOOOOOOOOOOOOOOOOOOOOOOOOOOOOOOOOOOOOOO                                             ",
"                                             ooooooooooooooooooooooooooOOOOOOOOOOOO                                             ",
"                                             ooooooooooooooooooooooooooOOOOOOOOOOOO                                             ",
"                                             ooooooooooooooooooooooooooOOOOOOOOOOOO                                             ",
"                                                    ...................oooooooo                                                 ",
"                                                    ...................oooooooo                                                 ",
"                                                    ...................oooooooo                                                 ",
"                                                    ...................oooooooo                                                 ",
"                         $$$$                       XXXXXXXXXXXXXXXXXXX                                                         ",
"                         $$$$                       XXXXXXXXXXXXXXXXXXX                                                         ",
"                         $$$$                       XXXXXXXXXXXXXXXXXXX                                                         ",
"                         $$$$                       XXXXXXXXXXXXXXXXXXX                                                         ",
"                      $$$$$$$$$$$                       XXXXXXXXXXXX                                                            ",
"                      $$$$$$$$$$$                       XXXXXXXXXXXX                                                            ",
"                      $$$$$$$$$$$                       XXXXXXXXXXXX                                                            ",
"                      $$$$$$$$$$$                       XXXXXXXXXXXX                                                            ",
"  @@@@@@@@@@@@@@@@$$$$$$$$$$$$$$$$$$$$$$$$$$$@@@@@@@@@@@@@@@@@@@@@@@                                                            ",
"  @@@@@@@@@@@@@@@@$$$$$$$$$$$$$$$$$$$$$$$$$$$@@@@@@@@@@@@@@@@@@@@@@@                                                            ",
"  @@@@@@@@@@@@@@@@$$$$$$$$$$$$$$$$$$$$$$$$$$$@@@@@@@@@@@@@@@@@@@@@@@                                                            ",
"  @@@@@@@@@@@@@@@@$$$$$$$$$$$$$$$$$$$$$$$$$$$@@@@@@@@@@@@@@@@@@@@@@@                                                            ",
"                                                                                                                                ",
"                                                                                                                                ",
"                                                                                                                                ",
"                                                                                                                                ",
"                                                                                                                                ",
"                                                                                                                                ",
"                                                                                                                                ",
"                                                                                                                                ",
"                                                                                                                                ",
"                                                                                                                                ",
"                                                                                                                                ",
"                                                                                                                                ",
"                                                                                                                                "
};
