/* XPM */
static char *_e81161d611342ffeb3b3fa15c3246badXkPL7g94j4flTrR[] = {
/* columns rows colors chars-per-pixel */
"128 128 4 1 ",
"  c black",
". c #7E501E",
"X c #E90A0A",
"o c #CA7F42",
/* pixels */
"oooooooooooooooooooooooooooooooooooooooooooooooooooooooooooooooooooooooooooooooooooooooooooooooooooooooooooooooooooooooooooooooo",
"oooooooooooooooooooooooooooooooooooooooooooooooooooooooooooooooooooooooooooooooooooooooooooooooooooooooooooooooooooooooooooooooo",
"oooooooooooooooooooooooooooooooooooooooooooooooooooooooooooooooooooooooooooooooooooooooooooooooooooooooooooooooooooooooooooooooo",
"oooooooooooooooooooooooooooooooooooooooooooooooooooooooooooooooooooooooooooooooooooooooooooooooooooooooooooooooooooooooooooooooo",
"oooooooooooooooooooooooooooooooooooooooooooooooooooooooooooooooooooooooooooooooooooooooooooooooooooooooooooooooooooooooooooooooo",
"oooooooooooooooooooooooooooooooooooooooooooooooooooooooooooooooooooooooooooooooooooooooooooooooooooooooooooooooooooooooooooooooo",
"oooooooooooooooooooooooooooooooooooooooooooooooooooooooooooooooooooooooooooooooooooooooooooooooooooooooooooooooooooooooooooooooo",
"oooooooooooooooooooooooooooooooooooooooooooooooooooooooooooooooooooooooooooooooooooooooooooooooooooooooooooooooooooooooooooooooo",
"oooooooooooooooooooooooooooooooooooooooooooooooooooooooooooooooooooooooooooooooooooooooooooooooooooooooooooooooooooooooooooooooo",
"oooooooooooooooooooooooooooooooooooooooooooooooooooooooooooooooooooooooooooooooooooooooooooooooooooooooooooooooooooooooooooooooo",
"oooooooooooooooooooooooooooooooooooooooooooooooooooooooooooooooooooooooooooooooooooooooooooooooooooooooooooooooooooooooooooooooo",
"oooooooooooooooooooooooooooooooooooooooooooooooooooooooooooooooooooooooooooooooooooooooooooooooooooooooooooooooooooooooooooooooo",
"oooooooooooooooo....oooooooooooooooooooooooo....oooooooooooooooooooooooooooooooooooooooooooooooooooooooooooooooooooooooooooooooo",
"oooooooooooooooo....oooooooooooooooooooooooo....oooooooooooooooooooooooooooooooooooooooooooooooooooooooooooooooooooooooooooooooo",
"oooooooooooooooo....oooooooooooooooooooooooo....oooooooooooooooooooooooooooooooooooooooooooooooooooooooooooooooooooooooooooooooo",
"oooooooooooooooo....oooooooooooooooooooooooo....oooooooooooooooooooooooooooooooooooooooooooooooooooooooooooooooooooooooooooooooo",
"oooooooooooo....oooooooooooooooooooooooooooooooo....oooooooooooooooooooo....oooooooooooooooooooooooooooooooooooooooooooooooooooo",
"oooooooooooo....oooooooooooooooooooooooooooooooo....oooooooooooooooooooo....oooooooooooooooooooooooooooooooooooooooooooooooooooo",
"oooooooooooo....oooooooooooooooooooooooooooooooo....oooooooooooooooooooo....oooooooooooooooooooooooooooooooooooooooooooooooooooo",
"oooooooooooo....oooooooooooooooooooooooooooooooo....oooooooooooooooooooo....oooooooooooooooooooooooooooooooooooooooooooooooooooo",
"oooooooooooo....oooooooooooooooooooooooooooooooo....oooooooooooooooooooooooo....oooooooooooooooooooooooo....oooooooooooooooooooo",
"oooooooooooo....oooooooooooooooooooooooooooooooo....oooooooooooooooooooooooo....oooooooooooooooooooooooo....oooooooooooooooooooo",
"oooooooooooo....oooooooooooooooooooooooooooooooo....ooooooo             oooo....oooooooooooooooooooooooo....oooooooooooooooooooo",
"oooooooooooo....oooooooooooooooooooooooooooooooo....oo                       ...oooooooooooooooooooooooo....oooooooooooooooooooo",
"ooooooooooooooooooooooooooooooooooooooooooooooooooo                             oooooooooooooooooooo....oooooooooooooooooooooooo",
"ooooooooooooooooooooooooooooooooooooooooooooooooo                                 oooooooooooooooooo....oooooooooooooooooooooooo",
"ooooooooooooooooooooooooooooooooooooooooooooooo            XXXXXXXXXXXXX            oooooooooooooooo....oooooooooooooooooooooooo",
"ooooooooooooooooooooooooooooooooooooooooooooo          XXXXXXXXXXXXXXXXXXXXX          oooooooooooooo....oooooooooooooooooooooooo",
"ooooooooooooooooooooooooooooooooooooooooooo         XXXXXXXXXXXXXXXXXXXXXXXXXXX         oooooooooooo....oooooooooooooooooooooooo",
"ooooooooooooooooooooooooooooooooooooooooo        XXXXXXXXXXXXXXXXXXXXXXXXXXXXXXXXX        oooooooooo....oooooooooooooooooooooooo",
"oooooooooooooooooooooooooooooooooooooooo       XXXXXXXXXXXXXXXXXXXXXXXXXXXXXXXXXXXXX       ooooooooo....oooooooooooooooooooooooo",
"ooooooooooooooooooooooooooooooooooooooo       XXXXXXXXXXXXXXXXXXXXXXXXXXXXXXXXXXXXXXX       oooooooo....oooooooooooooooooooooooo",
"oooooooooooooooooooooooooooooooooooooo      XXXXXXXXXXXXXXXXXXXXXXXXXXXXXXXXXXXXXXXXXXX      ooooooooooooooooooooooooooooooooooo",
"ooooooooooooooooooooooooooooooooooooo      XXXXXXXXXXXXXXXXXXXXXXXXXXXXXXXXXXXXXXXXXXXXX      oooooooooooooooooooooooooooooooooo",
"oooooooooooooooooooooooooooooooooooo      XXXXXXXXXXXXXXXXXXXXXXXXXXXXXXXXXXXXXXXXXXXXXXX      ooooooooooooooooooooooooooooooooo",
"ooooooooooooooooooooooooooooooooooo     XXXXXXXXXXXXXXXXXXXXXXXXXXXXXXXXXXXXXXXXXXXXXXXXXXX     oooooooooooooooooooooooooooooooo",
"oooooooooooooooooooo....oooooooooo     XXXXXXXXXXXXXXXXXXXXXXXXXXXXXXXXXXXXXXXXXXXXXXXXXXXXX     ooooooooooooooooooooooooooooooo",
"oooooooooooooooooooo....ooooooooo     XXXXXXXXXXXXXXXXXXXXXXXXXXX      XXXXXXXXXXXXXXXXXXXXXX     oooooooooooooooooooooooooooooo",
"oooooooooooooooooooo....oooooooo     XXXXXXXXXXXXXXXXXXXXXXXXXXXX       XXXXXXXXXXXXXXXXXXXXXX     ooooooooooooooooooooooooooooo",
"oooooooooooooooooooo....oooooooo     XXXXXXXXXXXXXXXXXXXXXXXXXXX        XXXXXXXXXXXXXXXXXXXXXX     ooooooooooooooooooooooooooooo",
"oooooooooooooooooooo....ooooooo     XXXXXXXXXXXXXXXXXXXXXXXXXXXX        XXXXXXXXXXXXXXXXXXXXXXX     oooooooooooooooooooooooooooo",
"oooooooooooooooooooo....oooooo     XXXXXXXXXXXXXXXXXXXXXXXXXXXX          XXXXXXXXXXXXXXXXXXXXXXX     ooooooooooooooooooooooooooo",
"oooooooooooooooooooo....oooooo    XXXXXXXXXXXXXXXXXXXXXXXXXXXX           XXXXXXXXXXXXXXXXXXXXXXXX    ooooooooooooooooooooooooooo",
"oooooooooooooooooooo....ooooo     XXXXXXXXXXXXXXXXXXXXXXXXXXXX            XXXXXXXXXXXXXXXXXXXXXXX     oooooooooooooooooooooooooo",
"oooooooooooooooooooo....ooooo    XXXXXXXXXXXXXXXXXXXXXXXXXXXX      XX     XXXXXXXXXXXXXXXXXXXXXXXX    oooooooooooooooooooooooooo",
"oooooooooooooooooooo....oooo     XXXXXXXXXXXXXXXXXXXXXXXXXXX      XXX      XXXXXXXXXXXXXXXXXXXXXXX     ooooooooooooooooooooooooo",
"oooooooooooooooooooo....oooo    XXXXXXXXXXXXXXXXXXXXXXXXXXX       XXXX     XXXXXXXXXXXXXXXXXXXXXXXX    ooooooooooooooooooooooooo",
"oooooooooooooooooooo....ooo     XXXXXXXXXXXXXXXXXXXXXXXXXXX      XXXXX     XXXXXXXXXXXXXXXXXXXXXXXX     oooooooooooooooooooooooo",
"ooooooooooooooooooooooooooo    XXXXXXXXXXXXXXXXXXXXXXXXXXX      XXXXXXX    XXXXXXXXXXXXXXXXXXXXXXXXX    oooooooooooooooooooooooo",
"ooooooooooooooooooooooooooo    XXXXXXXXXXXXXXXXXXXXXXXXXX      XXXXXXXX    XXXXXXXXXXXXXXXXXXXXXXXXX    oooooooooooooooooooooooo",
"oooooooooooooooooooooooooo     XXXXXXXXXXXXXXXXXXXXXXXXX       XXXXXXXX     XXXXXXXXXXXXXXXXXXXXXXXX     ooooooooooooooooooooooo",
"oooooooooooooooooooooooooo    XXXXXXXXXXXXXXXXXXXXXXXXXX      XXXXXXXXX     XXXXXXXXXXXXXXXXXXXXXXXXX    ooooooooooooooooooooooo",
"oooooooooooooooooooooooooo    XXXXXXXXXXXXXXXXXXXXXXXXX      XXXXXXXXXX     XXXXXXXXXXXXXXXXXXXXXXXXX    ooo....oooooooooooooooo",
"oooooooooooooooooooooooooo    XXXXXXXXXXXXXXXXXXXXXXXX      XXXXXXXXXXXX    XXXXXXXXXXXXXXXXXXXXXXXXX    ooo....oooooooooooooooo",
"ooooooooooooooooooooooooo     XXXXXXXXXXXXXXXXXXXXXXXX          XXXXXXXX    XXXXXXXXXXXXXXXXXXXXXXXXX     oo....oooooooooooooooo",
"ooooooooooooooooooooooooo    XXXXXXXXXXXXXXXXXXXXXXXX                XXX     XXXXXXXXXXXXXXXXXXXXXXXXX    oo....oooooooooooooooo",
"ooooooooooooooooooooooooo    XXXXXXXXXXXXXXXXXXXXXXXX                        XXXXXXXXXXXXXXXXXXXXXXXXX    oooooo....oooooooooooo",
"ooooooooooooooooooooooooo    XXXXXXXXXXXXXXXXXXXXXXX                         XXXXXXXXXXXXXXXXXXXXXXXXX    oooooo....oooooooooooo",
"ooooooooooooooooooooooooo    XXXXXXXXXXXXXXXXXXXXXXX     XXXX                 XXXXXXXXXXXXXXXXXXXXXXXX    oooooo....oooooooooooo",
"ooooooooooooooooooooooooo    XXXXXXXXXXXXXXXXXXXXXXX     XXXXXXXXX            XXXXXXXXXXXXXXXXXXXXXXXX    oooooo....oooooooooooo",
"oooooooooooo....ooooooooo    XXXXXXXXXXXXXXXXXXXXXX     XXXXXXXXXXXXXXXXX     XXXXXXXXXXXXXXXXXXXXXXXX    oooooo....oooooooooooo",
"oooooooooooo....ooooooooo    XXXXXXXXXXXXXXXXXXXXXX     XXXXXXXXXXXXXXXXXX    XXXXXXXXXXXXXXXXXXXXXXXX    oooooo....oooooooooooo",
"oooooooooooo....ooooooooo    XXXXXXXXXXXXXXXXXXXXXX     XXXXXXXXXXXXXXXXXX     XXXXXXXXXXXXXXXXXXXXXXX    oooooo....oooooooooooo",
"oooooooooooo....ooooooooo    XXXXXXXXXXXXXXXXXXXXX     XXXXXXXXXXXXXXXXXXX     XXXXXXXXXXXXXXXXXXXXXXX    oooooo....oooooooooooo",
"oooooooo....ooooooooooooo    XXXXXXXXXXXXXXXXXXXXX     XXXXXXXXXXXXXXXXXXX     XXXXXXXXXXXXXXXXXXXXXXX    oooooooooooooooooooooo",
"oooooooo....ooooooooooooo    XXXXXXXXXXXXXXXXXXXX      XXXXXXXXXXXXXXXXXXXX    XXXXXXXXXXXXXXXXXXXXXXX    oooooooooooooooooooooo",
"oooooooo....ooooooooooooo     XXXXXXXXXXXXXXXXXXX     XXXXXXXXXXXXXXXXXXXXX    XXXXXXXXXXXXXXXXXXXXXX     oooooooooooooooooooooo",
"oooooooo....oooooooooooooo    XXXXXXXXXXXXXXXXXXX     XXXXXXXXXXXXXXXXXXXXX    XXXXXXXXXXXXXXXXXXXXXX    ooooooooooooooooooooooo",
"oooooooo....oooooooooooooo    XXXXXXXXXXXXXXXXXXX    XXXXXXXXXXXXXXXXXXXXXX     XXXXXXXXXXXXXXXXXXXXX    ooooooooooooooooooooooo",
"oooooooo....oooooooooooooo    XXXXXXXXXXXXXXXXXXX    XXXXXXXXXXXXXXXXXXXXXX     XXXXXXXXXXXXXXXXXXXXX    ooooooooooooooooooooooo",
"oooooooo....oooooooooooooo     XXXXXXXXXXXXXXXXXX    XXXXXXXXXXXXXXXXXXXXXX     XXXXXXXXXXXXXXXXXXXX     ooooooooooooooooooooooo",
"oooooooo....ooooooooooooooo    XXXXXXXXXXXXXXXXXX    XXXXXXXXXXXXXXXXXXXXXXX    XXXXXXXXXXXXXXXXXXXX    oooooooooooooooooooooooo",
"ooooooooooooooooooooooooooo    XXXXXXXXXXXXXXXXXXXXXXXXXXXXXXXXXXXXXXXXXXXXX    XXXXXXXXXXXXXXXXXXXX    oooooooooooooooooooooooo",
"ooooooooooooooooooooooooooo     XXXXXXXXXXXXXXXXXXXXXXXXXXXXXXXXXXXXXXXXXXXX    XXXXXXXXXXXXXXXXXXX     oooooooooooooooooooooooo",
"oooooooooooooooooooooooooooo    XXXXXXXXXXXXXXXXXXXXXXXXXXXXXXXXXXXXXXXXXXXX    XXXXXXXXXXXXXXXXXXX    ooooooooooooooooooooooooo",
"oooooooooooooooooooooooooooo     XXXXXXXXXXXXXXXXXXXXXXXXXXXXXXXXXXXXXXXXXXXXXXXXXXXXXXXXXXXXXXXXX     ooooooooooooooooooooooooo",
"ooooooooooooooooooooooooooooo    XXXXXXXXXXXXXXXXXXXXXXXXXXXXXXXXXXXXXXXXXXXXXXXXXXXXXXXXXXXXXXXXX    oooooooooooooooooooooooooo",
"ooooooooooooooooooooooooooooo     XXXXXXXXXXXXXXXXXXXXXXXXXXXXXXXXXXXXXXXXXXXXXXXXXXXXXXXXXXXXXXX     oooooooooooooooooooooooooo",
"oooooooooooooooooooooooooooooo    XXXXXXXXXXXXXXXXXXXXXXXXXXXXXXXXXXXXXXXXXXXXXXXXXXXXXXXXXXXXXXX    ooooooooooooooooooooooooooo",
"oooooooooooooooooooooooooooooo     XXXXXXXXXXXXXXXXXXXXXXXXXXXXXXXXXXXXXXXXXXXXXXXXXXXXXXXXXXXXX     ooooooooooooooooooooooooooo",
"ooooooooooooooooooooooooooooooo     XXXXXXXXXXXXXXXXXXXXXXXXXXXXXXXXXXXXXXXXXXXXXXXXXXXXXXXXXXX     oooooooooooooooooooooooooooo",
"oooooooooooooooooooooooooooooooo     XXXXXXXXXXXXXXXXXXXXXXXXXXXXXXXXXXXXXXXXXXXXXXXXXXXXXXXXX     ooooooooooooooooooooooooooooo",
"oooooooooooooooooooooooooooooooo     XXXXXXXXXXXXXXXXXXXXXXXXXXXXXXXXXXXXXXXXXXXXXXXXXXXXXXXXX     ooooooooooooooooooooooooooooo",
"ooooooooooooooooooooooooooooooooo     XXXXXXXXXXXXXXXXXXXXXXXXXXXXXXXXXXXXXXXXXXXXXXXXXXXXXXX     oooooooooooooooooooooooooooooo",
"oooooooooooooooooooooooooooooooooo     XXXXXXXXXXXXXXXXXXXXXXXXXXXXXXXXXXXXXXXXXXXXXXXXXXXXX     ooooooooooooooooooooooooooooooo",
"ooooooooooooooooooooooooooooooooooo     XXXXXXXXXXXXXXXXXXXXXXXXXXXXXXXXXXXXXXXXXXXXXXXXXXX     oooooooooooooooooooooooooooooooo",
"oooooooooooooooooooooooooooooooooooo      XXXXXXXXXXXXXXXXXXXXXXXXXXXXXXXXXXXXXXXXXXXXXXX      ooooooooooooooooooooooooooooooooo",
"ooooooooooooooooooooooooooooooooooooo      XXXXXXXXXXXXXXXXXXXXXXXXXXXXXXXXXXXXXXXXXXXXX      oooooooooooooooooooooooooooooooooo",
"oooooooooooooooooooooooooooooooooooooo      XXXXXXXXXXXXXXXXXXXXXXXXXXXXXXXXXXXXXXXXXXX      ooooooooooooooooooooooooooooooooooo",
"ooooooooooooooooooooooooooooooooooooooo       XXXXXXXXXXXXXXXXXXXXXXXXXXXXXXXXXXXXXXX       oooooooooooooooooooooooooooooooooooo",
"oooooooooooooooooooooooooooooooooooooooo       XXXXXXXXXXXXXXXXXXXXXXXXXXXXXXXXXXXXX       .oooooooooooooooooooooooooooooooooooo",
"oooooooooooooooooooooooooooooooooooooooo.        XXXXXXXXXXXXXXXXXXXXXXXXXXXXXXXXX        ..oooooooooooooooooooooooooooooooooooo",
"oooooooooooooooo....ooooooooooooooooooooooo         XXXXXXXXXXXXXXXXXXXXXXXXXXX         oooooooooooooooooooooooooooooooooooooooo",
"oooooooooooooooo....ooooooooooooooooooooooooo          XXXXXXXXXXXXXXXXXXXXX          oooooooooooooooooooooooooooooooooooooooooo",
"oooooooooooooooo....ooooooooooooooooooooooooooo            XXXXXXXXXXXXX            oooooooooooooooooooooooooooooooooooooooooooo",
"oooooooooooooooo....ooooooooooooooooooooooooooooo                                 oooooooooooooooooooooooooooooooooooooooooooooo",
"oooooooooooooooooooo....ooooooooooooooooooooooooooo                             oooooooooooooooooooooooooooooooooooooooooooooooo",
"oooooooooooooooooooo....oooooooooooooooooooooooooooooo                       ooooooooooooooooooooooooooooooooooooooooooooooooooo",
"oooooooooooooooooooo....ooooooooooooooooooooooooooooooooooo             oooooooooooooooooooooooooooooooooooooooooooooooooooooooo",
"oooooooooooooooooooo....oooooooooooooooooooooooooooooooooooooooooooooooooooooooooooooooooooooooooooooooooooooooooooooooooooooooo",
"oooooooooooooooooooo....oooooooooooooooooooooooooooooooooooooooooooooooooooooooooooooooooooooooooooooooooooooooooooooooooooooooo",
"oooooooooooooooooooo....oooooooooooooooooooooooooooooooooooooooooooooooooooooooooooooooooooooooooooooooooooooooooooooooooooooooo",
"oooooooooooooooooooo....oooooooooooooooooooooooooooooooooooooooooooooooooooooooooooooooooooooooooooooooooooooooooooooooooooooooo",
"oooooooooooooooooooo....oooooooooooooooooooooooooooooooooooooooooooooooooooooooooooooooooooooooooooooooooooooooooooooooooooooooo",
"oooooooooooooooooooooooooooooooooooooooooooooooooooooooo....oooooooooooooooooooooooooooo....oooooooooooooooooooo....oooooooooooo",
"oooooooooooooooooooooooooooooooooooooooooooooooooooooooo....oooooooooooooooooooooooooooo....oooooooooooooooooooo....oooooooooooo",
"oooooooooooooooooooooooooooooooooooooooooooooooooooooooo....oooooooooooooooooooooooooooo....oooooooooooooooooooo....oooooooooooo",
"oooooooooooooooooooooooooooooooooooooooooooooooooooooooo....oooooooooooooooooooooooooooo....oooooooooooooooooooo....oooooooooooo",
"oooooooooooooooooooooooooooooooo....oooooooooooooooooooooooo....oooooooooooooooooooooooo....oooooooooooooooooooooooo....oooooooo",
"oooooooooooooooooooooooooooooooo....oooooooooooooooooooooooo....oooooooooooooooooooooooo....oooooooooooooooooooooooo....oooooooo",
"oooooooooooooooooooooooooooooooo....oooooooooooooooooooooooo....oooooooooooooooooooooooo....oooooooooooooooooooooooo....oooooooo",
"oooooooooooooooooooooooooooooooo....oooooooooooooooooooooooo....oooooooooooooooooooooooo....oooooooooooooooooooooooo....oooooooo",
"oooooooooooooooooooooooooooo....oooooooooooooooooooooooooooo....oooooooooooooooooooooooo....oooooooooooooooooooooooo....oooooooo",
"oooooooooooooooooooooooooooo....oooooooooooooooooooooooooooo....oooooooooooooooooooooooo....oooooooooooooooooooooooo....oooooooo",
"oooooooooooooooooooooooooooo....oooooooooooooooooooooooooooo....oooooooooooooooooooooooo....oooooooooooooooooooooooo....oooooooo",
"oooooooooooooooooooooooooooo....oooooooooooooooooooooooooooo....oooooooooooooooooooooooo....oooooooooooooooooooooooo....oooooooo",
"oooooooooooooooooooooooooooo....oooooooooooooooooooooooooooooooooooooooooooooooooooooooooooooooooooooooooooooooooooooooooooooooo",
"oooooooooooooooooooooooooooo....oooooooooooooooooooooooooooooooooooooooooooooooooooooooooooooooooooooooooooooooooooooooooooooooo",
"oooooooooooooooooooooooooooo....oooooooooooooooooooooooooooooooooooooooooooooooooooooooooooooooooooooooooooooooooooooooooooooooo",
"oooooooooooooooooooooooooooo....oooooooooooooooooooooooooooooooooooooooooooooooooooooooooooooooooooooooooooooooooooooooooooooooo",
"oooooooooooooooooooooooooooooooooooooooooooooooooooooooooooooooooooooooooooooooooooooooooooooooooooooooooooooooooooooooooooooooo",
"oooooooooooooooooooooooooooooooooooooooooooooooooooooooooooooooooooooooooooooooooooooooooooooooooooooooooooooooooooooooooooooooo",
"oooooooooooooooooooooooooooooooooooooooooooooooooooooooooooooooooooooooooooooooooooooooooooooooooooooooooooooooooooooooooooooooo",
"oooooooooooooooooooooooooooooooooooooooooooooooooooooooooooooooooooooooooooooooooooooooooooooooooooooooooooooooooooooooooooooooo",
"oooooooooooooooooooooooooooooooooooooooooooooooooooooooooooooooooooooooooooooooooooooooooooooooooooooooooooooooooooooooooooooooo",
"oooooooooooooooooooooooooooooooooooooooooooooooooooooooooooooooooooooooooooooooooooooooooooooooooooooooooooooooooooooooooooooooo",
"oooooooooooooooooooooooooooooooooooooooooooooooooooooooooooooooooooooooooooooooooooooooooooooooooooooooooooooooooooooooooooooooo",
"oooooooooooooooooooooooooooooooooooooooooooooooooooooooooooooooooooooooooooooooooooooooooooooooooooooooooooooooooooooooooooooooo"
};
