/* XPM */
static char *_897f419388847a1b720c764665072d50Px1oAtnSUnBb8VH[] = {
/* columns rows colors chars-per-pixel */
"128 128 7 1 ",
"  c black",
". c #1B4100",
"X c #874D00",
"o c #D87B31",
"O c #83A84E",
"+ c #8EB949",
"@ c #A3CC4C",
/* pixels */
"oooooooooooooooooooooooooooooooooooooooooooooooooooooooooooooooooooooooooooooooooooooooooooooooooooooooooooooooooooooooooooooooo",
"oooooooooooooooooooooooooooooooooooooooooooooooooooooooooooooooooooooooooooooooooooooooooooooooooooooooooooooooooooooooooooooooo",
"oooooooooooooooooooooooooooooooooooooooooooooooooooooooooooooooooooooooooooooooooooooooooooooooooooooooooooooooooooooooooooooooo",
"oooooooooooooooooooooooooooooooooooooooooooooooooooooooooooooooooooooooooooooooooooooooooooooooooooooooooooooooooooooooooooooooo",
"oooooooooooooooooooooooooooooooooooooooooooooooooooooooooooooooooooooooooooooooooooooooooooooooooooooooooooooooooooooooooooooooo",
"oooooooooooooooooooooooooooooooooooooooooooooooooooooooooooooooooooooooooooooooooooooooooooooooooooooooooooooooooooooooooooooooo",
"oooooooooooooooooooooooooooooooooooooooooooooooooooooooooooooooooooooooooooooooooooooooooooooooooooooooooooooooooooooooooooooooo",
"oooooooooooooooooooooooooooooooooooooooooooooooooooooooooooooooooooooooooooooooooooooooooooooooooooooooooooooooooooooooooooooooo",
"oooooooooooooooooooooooooooooooooooooooooooooooooooooooooooooooooooooooooooooooooooooooooooooooooooooooooooooooooooooooooooooooo",
"oooooooooooooooooooooooooooooooooooooooooooooooooooooooooooooooooooooooooooooooooooooooooooooooooooooooooooooooooooooooooooooooo",
"oooooooooooooooooooooooooooooooooooooooooooooooooooooooooooooooooooooooooooooooooooooooooooooooooooooooooooooooooooooooooooooooo",
"oooooooooooooooooooooooooooooooooooooooooooooooooooooooooooooooooooooooooooooooooooooooooooooooooooooooooooooooooooooooooooooooo",
"ooooooooooooooooXXXXoooooooooooooooooooooooo                                    oooooooooooooooooooooooooooooooooooooooooooooooo",
"ooooooooooooooooXXXXoooooooooooooooooooooooo                                    oooooooooooooooooooooooooooooooooooooooooooooooo",
"ooooooooooooooooXXXXoooooooooooooooooooooooo                                    oooooooooooooooooooooooooooooooooooooooooooooooo",
"ooooooooooooooooXXXXoooooooooooooooooooooooo                                    oooooooooooooooooooooooooooooooooooooooooooooooo",
"ooooooooooooXXXXoooooooooooooooooooo        ++++++++++++++++    ................            oooooooooooooooooooooooooooooooooooo",
"ooooooooooooXXXXoooooooooooooooooooo        ++++++++++++++++    ................            oooooooooooooooooooooooooooooooooooo",
"ooooooooooooXXXXoooooooooooooooooooo        ++++++++++++++++    ................            oooooooooooooooooooooooooooooooooooo",
"ooooooooooooXXXXoooooooooooooooooooo        ++++++++++++++++    ................            oooooooooooooooooooooooooooooooooooo",
"ooooooooooooXXXXoooo        oooo    ++++++++++++OOOO++++++++                ................    ooooooooXXXXoooooooooooooooooooo",
"ooooooooooooXXXXoooo        oooo    ++++++++++++OOOO++++++++                ................    ooooooooXXXXoooooooooooooooooooo",
"ooooooooooooXXXXoooo        oooo    ++++++++++++OOOO++++++++                ................    ooooooooXXXXoooooooooooooooooooo",
"ooooooooooooXXXXoooo        oooo    ++++++++++++OOOO++++++++                ................    ooooooooXXXXoooooooooooooooooooo",
"oooooooooooooooo    ........    ++++++++@@@@OOOO++++@@@@    ++++++++++++++++        ............    XXXXoooooooooooooooooooooooo",
"oooooooooooooooo    ........    ++++++++@@@@OOOO++++@@@@    ++++++++++++++++        ............    XXXXoooooooooooooooooooooooo",
"oooooooooooooooo    ........    ++++++++@@@@OOOO++++@@@@    ++++++++++++++++        ............    XXXXoooooooooooooooooooooooo",
"oooooooooooooooo    ........    ++++++++@@@@OOOO++++@@@@    ++++++++++++++++        ............    XXXXoooooooooooooooooooooooo",
"oooooooooooo    ............    ++++++++OOOOOOOO@@@@++++    ++++OOOOOOOO++++++++++++    ........    XXXXoooooooooooooooooooooooo",
"oooooooooooo    ............    ++++++++OOOOOOOO@@@@++++    ++++OOOOOOOO++++++++++++    ........    XXXXoooooooooooooooooooooooo",
"oooooooooooo    ............    ++++++++OOOOOOOO@@@@++++    ++++OOOOOOOO++++++++++++    ........    XXXXoooooooooooooooooooooooo",
"oooooooooooo    ............    ++++++++OOOOOOOO@@@@++++    ++++OOOOOOOO++++++++++++    ........    XXXXoooooooooooooooooooooooo",
"oooooooooooo    ........    ++++OOOO@@@@OOOO@@@@@@@@++++    @@@@@@@@OOOOOOOO@@@@@@@@++++    ........            oooooooooooooooo",
"oooooooooooo    ........    ++++OOOO@@@@OOOO@@@@@@@@++++    @@@@@@@@OOOOOOOO@@@@@@@@++++    ........            oooooooooooooooo",
"oooooooooooo    ........    ++++OOOO@@@@OOOO@@@@@@@@++++    @@@@@@@@OOOOOOOO@@@@@@@@++++    ........            oooooooooooooooo",
"oooooooooooo    ........    ++++OOOO@@@@OOOO@@@@@@@@++++    @@@@@@@@OOOOOOOO@@@@@@@@++++    ........            oooooooooooooooo",
"oooooooo    ............    ++++OOOO++++OOOO@@@@++++    ++++++++@@@@@@@@OOOO++++@@@@++++    ....................    oooooooooooo",
"oooooooo    ............    ++++OOOO++++OOOO@@@@++++    ++++++++@@@@@@@@OOOO++++@@@@++++    ....................    oooooooooooo",
"oooooooo    ............    ++++OOOO++++OOOO@@@@++++    ++++++++@@@@@@@@OOOO++++@@@@++++    ....................    oooooooooooo",
"oooooooo    ............    ++++OOOO++++OOOO@@@@++++    ++++++++@@@@@@@@OOOO++++@@@@++++    ....................    oooooooooooo",
"oooooooo    ........    ++++@@@@++++++++++++++++++++    ++++++++++++@@@@++++OOOOOOOO++++++++    ....    ............    oooooooo",
"oooooooo    ........    ++++@@@@++++++++++++++++++++    ++++++++++++@@@@++++OOOOOOOO++++++++    ....    ............    oooooooo",
"oooooooo    ........    ++++@@@@++++++++++++++++++++    ++++++++++++@@@@++++OOOOOOOO++++++++    ....    ............    oooooooo",
"oooooooo    ........    ++++@@@@++++++++++++++++++++    ++++++++++++@@@@++++OOOOOOOO++++++++    ....    ............    oooooooo",
"oooooooo    ........    ++++@@@@@@@@OOOO@@@@++++++++    ++++OOOO++++++++++++++++OOOO++++++++        ................    oooooooo",
"oooooooo    ........    ++++@@@@@@@@OOOO@@@@++++++++    ++++OOOO++++++++++++++++OOOO++++++++        ................    oooooooo",
"oooooooo    ........    ++++@@@@@@@@OOOO@@@@++++++++    ++++OOOO++++++++++++++++OOOO++++++++        ................    oooooooo",
"oooooooo    ........    ++++@@@@@@@@OOOO@@@@++++++++    ++++OOOO++++++++++++++++OOOO++++++++        ................    oooooooo",
"oooo    ............    ++++++++@@@@++++@@@@@@@@++++    ++++++++OOOO++++@@@@@@@@++++@@@@++++    ....................    oooooooo",
"oooo    ............    ++++++++@@@@++++@@@@@@@@++++    ++++++++OOOO++++@@@@@@@@++++@@@@++++    ....................    oooooooo",
"oooo    ............    ++++++++@@@@++++@@@@@@@@++++    ++++++++OOOO++++@@@@@@@@++++@@@@++++    ....................    oooooooo",
"oooo    ............    ++++++++@@@@++++@@@@@@@@++++    ++++++++OOOO++++@@@@@@@@++++@@@@++++    ....................    oooooooo",
"oooo    ............    ++++++++@@@@@@@@OOOO++++++++++++    ++++OOOO++++++++@@@@++++@@@@++++++++    ............    oooooooooooo",
"oooo    ............    ++++++++@@@@@@@@OOOO++++++++++++    ++++OOOO++++++++@@@@++++@@@@++++++++    ............    oooooooooooo",
"oooo    ............    ++++++++@@@@@@@@OOOO++++++++++++    ++++OOOO++++++++@@@@++++@@@@++++++++    ............    oooooooooooo",
"oooo    ............    ++++++++@@@@@@@@OOOO++++++++++++    ++++OOOO++++++++@@@@++++@@@@++++++++    ............    oooooooooooo",
"oooo    ............                ++++++++OOOO@@@@++++    ++++++++++++++++@@@@++++@@@@++++++++++++            XXXXoooooooooooo",
"oooo    ............                ++++++++OOOO@@@@++++    ++++++++++++++++@@@@++++@@@@++++++++++++            XXXXoooooooooooo",
"oooo    ............                ++++++++OOOO@@@@++++    ++++++++++++++++@@@@++++@@@@++++++++++++            XXXXoooooooooooo",
"oooo    ............                ++++++++OOOO@@@@++++    ++++++++++++++++@@@@++++@@@@++++++++++++            XXXXoooooooooooo",
"oooooooo        ....    ............    ++++OOOO@@@@@@@@++++    ++++++++++++++++@@@@++++                ooooooooXXXXoooooooooooo",
"oooooooo        ....    ............    ++++OOOO@@@@@@@@++++    ++++++++++++++++@@@@++++                ooooooooXXXXoooooooooooo",
"oooooooo        ....    ............    ++++OOOO@@@@@@@@++++    ++++++++++++++++@@@@++++                ooooooooXXXXoooooooooooo",
"oooooooo        ....    ............    ++++OOOO@@@@@@@@++++    ++++++++++++++++@@@@++++                ooooooooXXXXoooooooooooo",
"ooooooooXXXXoooo    ....................    OOOOOOOO@@@@++++    ++++++++++++++++@@@@    ............    oooooooooooooooooooooooo",
"ooooooooXXXXoooo    ....................    OOOOOOOO@@@@++++    ++++++++++++++++@@@@    ............    oooooooooooooooooooooooo",
"ooooooooXXXXoooo    ....................    OOOOOOOO@@@@++++    ++++++++++++++++@@@@    ............    oooooooooooooooooooooooo",
"ooooooooXXXXoooo    ....................    OOOOOOOO@@@@++++    ++++++++++++++++@@@@    ............    oooooooooooooooooooooooo",
"ooooooooXXXXoooo    ........................    OOOO++++    ++++@@@@@@@@OOOO++++++++....................    oooooooooooooooooooo",
"ooooooooXXXXoooo    ........................    OOOO++++    ++++@@@@@@@@OOOO++++++++....................    oooooooooooooooooooo",
"ooooooooXXXXoooo    ........................    OOOO++++    ++++@@@@@@@@OOOO++++++++....................    oooooooooooooooooooo",
"ooooooooXXXXoooo    ........................    OOOO++++    ++++@@@@@@@@OOOO++++++++....................    oooooooooooooooooooo",
"oooooooooooo    ........        ................    ++++    ++++@@@@OOOOOOOO++++    ........    ............    oooooooooooooooo",
"oooooooooooo    ........        ................    ++++    ++++@@@@OOOOOOOO++++    ........    ............    oooooooooooooooo",
"oooooooooooo    ........        ................    ++++    ++++@@@@OOOOOOOO++++    ........    ............    oooooooooooooooo",
"oooooooooooo    ........        ................    ++++    ++++@@@@OOOOOOOO++++    ........    ............    oooooooooooooooo",
"oooooooooooo    ................        ............    ++++@@@@@@@@++++++++    ........    ................    oooooooooooooooo",
"oooooooooooo    ................        ............    ++++@@@@@@@@++++++++    ........    ................    oooooooooooooooo",
"oooooooooooo    ................        ............    ++++@@@@@@@@++++++++    ........    ................    oooooooooooooooo",
"oooooooooooo    ................        ............    ++++@@@@@@@@++++++++    ........    ................    oooooooooooooooo",
"oooooooooooo    ....................................    ++++++++++++++++    ........    ................    oooooooooooooooooooo",
"oooooooooooo    ....................................    ++++++++++++++++    ........    ................    oooooooooooooooooooo",
"oooooooooooo    ....................................    ++++++++++++++++    ........    ................    oooooooooooooooooooo",
"oooooooooooo    ....................................    ++++++++++++++++    ........    ................    oooooooooooooooooooo",
"oooooooooooooooo    ....................    ............    @@@@++++    ............................    oooooooooooooooooooooooo",
"oooooooooooooooo    ....................    ............    @@@@++++    ............................    oooooooooooooooooooooooo",
"oooooooooooooooo    ....................    ............    @@@@++++    ............................    oooooooooooooooooooooooo",
"oooooooooooooooo    ....................    ............    @@@@++++    ............................    oooooooooooooooooooooooo",
"oooooooooooooooo    ....................    ............    @@@@    ............    ................    oooooooooooooooooooooooo",
"oooooooooooooooo    ....................    ............    @@@@    ............    ................    oooooooooooooooooooooooo",
"oooooooooooooooo    ....................    ............    @@@@    ............    ................    oooooooooooooooooooooooo",
"oooooooooooooooo    ....................    ............    @@@@    ............    ................    oooooooooooooooooooooooo",
"ooooooooooooooooXXXX    ................    ............    ++++    ........    ................    oooooooooooooooooooooooooooo",
"ooooooooooooooooXXXX    ................    ............    ++++    ........    ................    oooooooooooooooooooooooooooo",
"ooooooooooooooooXXXX    ................    ............    ++++    ........    ................    oooooooooooooooooooooooooooo",
"ooooooooooooooooXXXX    ................    ............    ++++    ........    ................    oooooooooooooooooooooooooooo",
"ooooooooooooooooooooXXXX    ................    ............    ............    ............    oooooooooooooooooooooooooooooooo",
"ooooooooooooooooooooXXXX    ................    ............    ............    ............    oooooooooooooooooooooooooooooooo",
"ooooooooooooooooooooXXXX    ................    ............    ............    ............    oooooooooooooooooooooooooooooooo",
"ooooooooooooooooooooXXXX    ................    ............    ............    ............    oooooooooooooooooooooooooooooooo",
"ooooooooooooooooooooXXXXoooo        ........................    ....................        oooooooooooooooooooooooooooooooooooo",
"ooooooooooooooooooooXXXXoooo        ........................    ....................        oooooooooooooooooooooooooooooooooooo",
"ooooooooooooooooooooXXXXoooo        ........................    ....................        oooooooooooooooooooooooooooooooooooo",
"ooooooooooooooooooooXXXXoooo        ........................    ....................        oooooooooooooooooooooooooooooooooooo",
"oooooooooooooooooooooooooooooooooooo    ....................    ................    ooooXXXXooooooooooooooooooooXXXXoooooooooooo",
"oooooooooooooooooooooooooooooooooooo    ....................    ................    ooooXXXXooooooooooooooooooooXXXXoooooooooooo",
"oooooooooooooooooooooooooooooooooooo    ....................    ................    ooooXXXXooooooooooooooooooooXXXXoooooooooooo",
"oooooooooooooooooooooooooooooooooooo    ....................    ................    ooooXXXXooooooooooooooooooooXXXXoooooooooooo",
"ooooooooooooooooooooooooooooooooXXXXoooo                    XXXX                ooooooooXXXXooooooooooooooooooooooooXXXXoooooooo",
"ooooooooooooooooooooooooooooooooXXXXoooo                    XXXX                ooooooooXXXXooooooooooooooooooooooooXXXXoooooooo",
"ooooooooooooooooooooooooooooooooXXXXoooo                    XXXX                ooooooooXXXXooooooooooooooooooooooooXXXXoooooooo",
"ooooooooooooooooooooooooooooooooXXXXoooo                    XXXX                ooooooooXXXXooooooooooooooooooooooooXXXXoooooooo",
"ooooooooooooooooooooooooooooXXXXooooooooooooooooooooooooooooXXXXooooooooooooooooooooooooXXXXooooooooooooooooooooooooXXXXoooooooo",
"ooooooooooooooooooooooooooooXXXXooooooooooooooooooooooooooooXXXXooooooooooooooooooooooooXXXXooooooooooooooooooooooooXXXXoooooooo",
"ooooooooooooooooooooooooooooXXXXooooooooooooooooooooooooooooXXXXooooooooooooooooooooooooXXXXooooooooooooooooooooooooXXXXoooooooo",
"ooooooooooooooooooooooooooooXXXXooooooooooooooooooooooooooooXXXXooooooooooooooooooooooooXXXXooooooooooooooooooooooooXXXXoooooooo",
"ooooooooooooooooooooooooooooXXXXoooooooooooooooooooooooooooooooooooooooooooooooooooooooooooooooooooooooooooooooooooooooooooooooo",
"ooooooooooooooooooooooooooooXXXXoooooooooooooooooooooooooooooooooooooooooooooooooooooooooooooooooooooooooooooooooooooooooooooooo",
"ooooooooooooooooooooooooooooXXXXoooooooooooooooooooooooooooooooooooooooooooooooooooooooooooooooooooooooooooooooooooooooooooooooo",
"ooooooooooooooooooooooooooooXXXXoooooooooooooooooooooooooooooooooooooooooooooooooooooooooooooooooooooooooooooooooooooooooooooooo",
"oooooooooooooooooooooooooooooooooooooooooooooooooooooooooooooooooooooooooooooooooooooooooooooooooooooooooooooooooooooooooooooooo",
"oooooooooooooooooooooooooooooooooooooooooooooooooooooooooooooooooooooooooooooooooooooooooooooooooooooooooooooooooooooooooooooooo",
"oooooooooooooooooooooooooooooooooooooooooooooooooooooooooooooooooooooooooooooooooooooooooooooooooooooooooooooooooooooooooooooooo",
"oooooooooooooooooooooooooooooooooooooooooooooooooooooooooooooooooooooooooooooooooooooooooooooooooooooooooooooooooooooooooooooooo",
"oooooooooooooooooooooooooooooooooooooooooooooooooooooooooooooooooooooooooooooooooooooooooooooooooooooooooooooooooooooooooooooooo",
"oooooooooooooooooooooooooooooooooooooooooooooooooooooooooooooooooooooooooooooooooooooooooooooooooooooooooooooooooooooooooooooooo",
"oooooooooooooooooooooooooooooooooooooooooooooooooooooooooooooooooooooooooooooooooooooooooooooooooooooooooooooooooooooooooooooooo",
"oooooooooooooooooooooooooooooooooooooooooooooooooooooooooooooooooooooooooooooooooooooooooooooooooooooooooooooooooooooooooooooooo"
};
