/* XPM */
static char *result[] = {
/* columns rows colors chars-per-pixel */
"128 128 4 1 ",
"  c black",
". c #884C00",
"X c #D97C2D",
"o c #25718D",
/* pixels */
"XXXXXXXXXXXXXXXXXXXXXXXXXXXXXXXXXXXXXXXXXXXXXXXXXXXXXXXXXXXXXXXXXXXXXXXXXXXXXXXXXXXXXXXXXXXXXXXXXXXXXXXXXXXXXXXXXXXXXXXXXXXXXXXX",
"XXXXXXXXXXXXXXXXXXXXXXXXXXXXXXXXXXXXXXXXXXXXXXXXXXXXXXXXXXXXXXXXXXXXXXXXXXXXXXXXXXXXXXXXXXXXXXXXXXXXXXXXXXXXXXXXXXXXXXXXXXXXXXXX",
"XXXXXXXXXXXXXXXXXXXXXXXXXXXXXXXXXXXXXXXXXXXXXXXXXXXXXXXXXXXXXXXXXXXXXXXXXXXXXXXXXXXXXXXXXXXXXXXXXXXXXXXXXXXXXXXXXXXXXXXXXXXXXXXX",
"XXXXXXXXXXXXXXXXXXXXXXXXXXXXXXXXXXXXXXXXXXXXXXXXXXXXXXXXXXXXXXXXXXXXXXXXXXXXXXXXXXXXXXXXXXXXXXXXXXXXXXXXXXXXXXXXXXXXXXXXXXXXXXXX",
"XXXXXXXXXXXXXXXXXXXXXXXXXXXXXXXXXXXXXXXXXXXXXXXXXXXXXXXXXXXXXXXXXXXXXXXXXXXXXXXXXXXXXXXXXXXXXXXXXXXXXXXXXXXXXXXXXXXXXXXXXXXXXXXX",
"XXXXXXXXXXXXXXXXXXXXXXXXXXXXXXXXXXXXXXXXXXXXXXXXXXXXXXXXXXXXXXXXXXXXXXXXXXXXXXXXXXXXXXXXXXXXXXXXXXXXXXXXXXXXXXXXXXXXXXXXXXXXXXXX",
"XXXXXXXXXXXXXXXXXXXXXXXXXXXXXXXXXXXXXXXXXXXXXXXXXXXXXXXXXXXXXXXXXXXXXXXXXXXXXXXXXXXXXXXXXXXXXXXXXXXXXXXXXXXXXXXXXXXXXXXXXXXXXXXX",
"XXXXXXXXXXXXXXXXXXXXXXXXXXXXXXXXXXXXXXXXXXXXXXXXXXXXXXXXXXXXXXXXXXXXXXXXXXXXXXXXXXXXXXXXXXXXXXXXXXXXXXXXXXXXXXXXXXXXXXXXXXXXXXXX",
"XXXXXXXXXXXXXXXXXXXXXXXXXXXXXXXXXXXXXXXXXXXXXXXXXXXXXXXXXXXXXXXXXXXXXXXXXXXXXXXXXXXXXXXXXXXXXXXXXXXXXXXXXXXXXXXXXXXXXXXXXXXXXXXX",
"XXXXXXXXXXXXXXXXXXXXXXXXXXXXXXXXXXXXXXXXXXXXXXXXXXXXXXXXXXXXXXXXXXXXXXXXXXXXXXXXXXXXXXXXXXXXXXXXXXXXXXXXXXXXXXXXXXXXXXXXXXXXXXXX",
"XXXXXXXXXXXXXXXXXXXXXXXXXXXXXXXXXXXXXXXXXXXXXXXXXXXXXXXXXXXXXXXXXXXXXXXXXXXXXXXXXXXXXXXXXXXXXXXXXXXXXXXXXXXXXXXXXXXXXXXXXXXXXXXX",
"XXXXXXXXXXXXXXXXXXXXXXXXXXXXXXXXXXXXXXXXXXXXXXXXXXXXXXXXXXXXXXXXXXXXXXXXXXXXXXXXXXXXXXXXXXXXXXXXXXXXXXXXXXXXXXXXXXXXXXXXXXXXXXXX",
"XXXXXXXXXXXXXXXX....XXXXXXXXXXXXXXXXXXXXXXXX....XXXXXXXXXXXXXXXXXXXXXXXXXXXXXXXXXXXXXXXXXXXXXXXXXXXXXXXXXXXXXXXXXXXXXXXXXXXXXXXX",
"XXXXXXXXXXXXXXXX....XXXXXXXXXXXXXXXXXXXXXXXX....XXXXXXXXXXXXXXXXXXXXXXXXXXXXXXXXXXXXXXXXXXXXXXXXXXXXXXXXXXXXXXXXXXXXXXXXXXXXXXXX",
"XXXXXXXXXXXXXXXX....XXXXXXXXXXXXXXXXXXXXXXXX....XXXXXXXXXXXXXXXXXXXXXXXXXXXXXXXXXXXXXXXXXXXXXXXXXXXXXXXXXXXXXXXXXXXXXXXXXXXXXXXX",
"XXXXXXXXXXXXXXXX....XXXXXXXXXXXXXXXXXXXXXXXX....XXXXXXXXXXXXXXXXXXXXXXXXXXXXXXXXXXXXXXXXXXXXXXXXXXXXXXXXXXXXXXXXXXXXXXXXXXXXXXXX",
"XXXXXXXXXXXX....XXXXXXXXXXXXXXXXXXXXXXXXXXXXXXXX....XXXXXXXXXXXXXXXXXXXX....XXXXXXXXXXXXXXXXXXXXXXXXXXXXXXXXXXXXXXXXXXXXXXXXXXXX",
"XXXXXXXXXXXX....XXXXXXXXXXXXXXXXXXXXXXXXXXXXXXXX.                                XXXXXXXXXXXXXXXXXXXXXXXXXXXXXXXXXXXXXXXXXXXXXXX",
"XXXXXXXXXXXX....XXXXXXXXXXXXXXXXXXXXXXXXXXXXXXXX.                                XXXXXXXXXXXXXXXXXXXXXXXXXXXXXXXXXXXXXXXXXXXXXXX",
"XXXXXXXXXXXX....XXXXXXXXXXXXXXXXXXXXXXXXXXXXXXXX.                                XXXXXXXXXXXXXXXXXXXXXXXXXXXXXXXXXXXXXXXXXXXXXXX",
"XXXXXXXXXXXX....XXXXXXXXXXXXXXXXXXXXXXXXXXXXXXXX.                                XXXXXXXXXXXXXXXXXXXXXXX....XXXXXXXXXXXXXXXXXXXX",
"XXXXXXXXXXXX....XXXXXXXXXXXXXXXXXXXXXXXXX        oooooooooooooooooooooooooooooooo        XXXXXXXXXXXXXXX....XXXXXXXXXXXXXXXXXXXX",
"XXXXXXXXXXXX....XXXXXXXXXXXXXXXXXXXXXXXXX        oooooooooooooooooooooooooooooooo        XXXXXXXXXXXXXXX....XXXXXXXXXXXXXXXXXXXX",
"XXXXXXXXXXXX....XXXXXXXXXXXXXXXXXXXXXXXXX        oooooooooooooooooooooooooooooooo        XXXXXXXXXXXXXXX....XXXXXXXXXXXXXXXXXXXX",
"XXXXXXXXXXXXXXXXXXXXXXXXXXXXXXXXXXXXXXXXX        oooooooooooooooooooooooooooooooo        XXXXXXXXXXX....XXXXXXXXXXXXXXXXXXXXXXXX",
"XXXXXXXXXXXXXXXXXXXXXXXXXXXXXXXXXXXXX    oooooooo                        oooooooooooooooo    XXXXXXX....XXXXXXXXXXXXXXXXXXXXXXXX",
"XXXXXXXXXXXXXXXXXXXXXXXXXXXXXXXXXXXXX    oooooooo                        oooooooooooooooo    XXXXXXX....XXXXXXXXXXXXXXXXXXXXXXXX",
"XXXXXXXXXXXXXXXXXXXXXXXXXXXXXXXXXXXXX    oooooooo                        oooooooooooooooo    XXXXXXX....XXXXXXXXXXXXXXXXXXXXXXXX",
"XXXXXXXXXXXXXXXXXXXXXXXXXXXXXXXXXXXXX    oooooooo                        oooooooooooooooo    XXXXXXX....XXXXXXXXXXXXXXXXXXXXXXXX",
"XXXXXXXXXXXXXXXXXXXXXXXXXXXXXXXXX    oooooooooooooooooooooooooooooooooooo    oooooooooooooooo    XXX....XXXXXXXXXXXXXXXXXXXXXXXX",
"XXXXXXXXXXXXXXXXXXXXXXXXXXXXXXXXX    oooooooooooooooooooooooooooooooooooo    oooooooooooooooo    XXX....XXXXXXXXXXXXXXXXXXXXXXXX",
"XXXXXXXXXXXXXXXXXXXXXXXXXXXXXXXXX    oooooooooooooooooooooooooooooooooooo    oooooooooooooooo    XXX....XXXXXXXXXXXXXXXXXXXXXXXX",
"XXXXXXXXXXXXXXXXXXXXXXXXXXXXXXXXX    oooooooooooooooooooooooooooooooooooo    oooooooooooooooo    XXXXXXXXXXXXXXXXXXXXXXXXXXXXXXX",
"XXXXXXXXXXXXXXXXXXXXXXXXXXXXX    oooooooooooooooooooooooooooooooooooooooooooo    oooooooooooooooo    XXXXXXXXXXXXXXXXXXXXXXXXXXX",
"XXXXXXXXXXXXXXXXXXXXXXXXXXXXX    oooooooooooooooooooooooooooooooooooooooooooo    oooooooooooooooo    XXXXXXXXXXXXXXXXXXXXXXXXXXX",
"XXXXXXXXXXXXXXXXXXXXXXXXXXXXX    oooooooooooooooooooooooooooooooooooooooooooo    oooooooooooooooo    XXXXXXXXXXXXXXXXXXXXXXXXXXX",
"XXXXXXXXXXXXXXXXXXXX....XXXXX    oooooooooooooooooooooooooooooooooooooooooooo    oooooooooooooooo    XXXXXXXXXXXXXXXXXXXXXXXXXXX",
"XXXXXXXXXXXXXXXXXXXX....X    oooooooooooooooooooooooooooooooooooooooooooooooooooo    oooooooooooooooo    XXXXXXXXXXXXXXXXXXXXXXX",
"XXXXXXXXXXXXXXXXXXXX....X    oooooooooooooooooooooooooooooooooooooooooooooooooooo    oooooooooooooooo    XXXXXXXXXXXXXXXXXXXXXXX",
"XXXXXXXXXXXXXXXXXXXX....X    oooooooooooooooooooooooooooooooooooooooooooooooooooo    oooooooooooooooo    XXXXXXXXXXXXXXXXXXXXXXX",
"XXXXXXXXXXXXXXXXXXXX....X    oooooooooooooooooooooooooooooooooooooooooooooooooooo    oooooooooooooooo    XXXXXXXXXXXXXXXXXXXXXXX",
"XXXXXXXXXXXXXXXXXXXX.    oooooooooooooooooooo                        oooooooooooooooo    oooooooooooooooo    XXXXXXXXXXXXXXXXXXX",
"XXXXXXXXXXXXXXXXXXXX.    oooooooooooooooooooo                        oooooooooooooooo    oooooooooooooooo    XXXXXXXXXXXXXXXXXXX",
"XXXXXXXXXXXXXXXXXXXX.    oooooooooooooooooooo                        oooooooooooooooo    oooooooooooooooo    XXXXXXXXXXXXXXXXXXX",
"XXXXXXXXXXXXXXXXXXXX.    oooooooooooooooooooo                        oooooooooooooooo    oooooooooooooooo    XXXXXXXXXXXXXXXXXXX",
"XXXXXXXXXXXXXXXXXXXX.    oooooooooooooooo    oooooooooooooooooooooooo    oooooooooooooooo    oooooooooooo    XXXXXXXXXXXXXXXXXXX",
"XXXXXXXXXXXXXXXXXXXX.    oooooooooooooooo    oooooooooooooooooooooooo    oooooooooooooooo    oooooooooooo    XXXXXXXXXXXXXXXXXXX",
"XXXXXXXXXXXXXXXXXXXX.    oooooooooooooooo    oooooooooooooooooooooooo    oooooooooooooooo    oooooooooooo    XXXXXXXXXXXXXXXXXXX",
"XXXXXXXXXXXXXXXXXXXXX    oooooooooooooooo    oooooooooooooooooooooooo    oooooooooooooooo    oooooooooooo    XXXXXXXXXXXXXXXXXXX",
"XXXXXXXXXXXXXXXXX    oooooooooooooooo    oooooooooooooooooooooooooooooooo    oooooooooooooooo    oooooooooooo    XXXXXXXXXXXXXXX",
"XXXXXXXXXXXXXXXXX    oooooooooooooooo    oooooooooooooooooooooooooooooooo    oooooooooooooooo    oooooooooooo    XXXXXXXXXXXXXXX",
"XXXXXXXXXXXXXXXXX    oooooooooooooooo    oooooooooooooooooooooooooooooooo    oooooooooooooooo    oooooooooooo    XXXXXXXXXXXXXXX",
"XXXXXXXXXXXXXXXXX    oooooooooooooooo    oooooooooooooooooooooooooooooooo    oooooooooooooooo    oooooooooooo    XXXXXXXXXXXXXXX",
"XXXXXXXXXXXXXXXXX    oooooooooooo    oooooooooooooooooooooooooooooooooooooooo    oooooooooooooooo    oooooooo    XXXXXXXXXXXXXXX",
"XXXXXXXXXXXXXXXXX    oooooooooooo    oooooooooooooooooooooooooooooooooooooooo    oooooooooooooooo    oooooooo    XXXXXXXXXXXXXXX",
"XXXXXXXXXXXXXXXXX    oooooooooooo    oooooooooooooooooooooooooooooooooooooooo    oooooooooooooooo    oooooooo    XXXXXXXXXXXXXXX",
"XXXXXXXXXXXXXXXXX    oooooooooooo    oooooooooooooooooooooooooooooooooooooooo    oooooooooooooooo    oooooooo    ...XXXXXXXXXXXX",
"XXXXXXXXXXXXXXXXX    oooooooo    oooooooooooooooooooo                oooooooooooo    oooooooooooo    oooooooo    ...XXXXXXXXXXXX",
"XXXXXXXXXXXXXXXXX    oooooooo    oooooooooooooooooooo                oooooooooooo    oooooooooooo    oooooooo    ...XXXXXXXXXXXX",
"XXXXXXXXXXXXXXXXX    oooooooo    oooooooooooooooooooo                oooooooooooo    oooooooooooo    oooooooo    ...XXXXXXXXXXXX",
"XXXXXXXXXXXX....X    oooooooo    oooooooooooooooooooo                oooooooooooo    oooooooooooo    oooooooo    ...XXXXXXXXXXXX",
"XXXXXXXXXXXX....X    oooooooo    oooooooooooooooo    oooooooooooooooo    oooooooo    oooooooooooo    oooooooo    ...XXXXXXXXXXXX",
"XXXXXXXXXXXX....X    oooooooo    oooooooooooooooo    oooooooooooooooo    oooooooo    oooooooooooo    oooooooo    ...XXXXXXXXXXXX",
"XXXXXXXXXXXX....X    oooooooo    oooooooooooooooo    oooooooooooooooo    oooooooo    oooooooooooo    oooooooo    ...XXXXXXXXXXXX",
"XXXXXXXX....XXXXX    oooooooo    oooooooooooooooo    oooooooooooooooo    oooooooo    oooooooooooo    oooooooo    XXXXXXXXXXXXXXX",
"XXXXXXXX....XXXXX    oooooooo    oooooooooooooooo    oooooooo    oooo    oooooooo    oooooooooooo    oooooooo    XXXXXXXXXXXXXXX",
"XXXXXXXX....XXXXX    oooooooo    oooooooooooooooo    oooooooo    oooo    oooooooo    oooooooooooo    oooooooo    XXXXXXXXXXXXXXX",
"XXXXXXXX....XXXXX    oooooooo    oooooooooooooooo    oooooooo    oooo    oooooooo    oooooooooooo    oooooooo    XXXXXXXXXXXXXXX",
"XXXXXXXX....XXXXX    oooooooo    oooooooooooooooo    oooooooo    oooo    oooooooo    oooooooooooo    oooooooo    XXXXXXXXXXXXXXX",
"XXXXXXXX....XXXXX    oooooooo    oooooooooooooooo    oooooooooooo    oooooooooooo    oooooooooooo    oooooooo    XXXXXXXXXXXXXXX",
"XXXXXXXX....XXXXX    oooooooo    oooooooooooooooo    oooooooooooo    oooooooooooo    oooooooooooo    oooooooo    XXXXXXXXXXXXXXX",
"XXXXXXXX....XXXXX    oooooooo    oooooooooooooooo    oooooooooooo    oooooooooooo    oooooooooooo    oooooooo    XXXXXXXXXXXXXXX",
"XXXXXXXXXXXXXXXXX    oooooooo    oooooooooooooooo    oooooooooooo    oooooooooooo    oooooooooooo    oooooooo    XXXXXXXXXXXXXXX",
"XXXXXXXXXXXXXXXXX    oooooooooooo    oooooooooooo    oooooooooooooooooooooooo    oooooooooooooooo    oooooooo    XXXXXXXXXXXXXXX",
"XXXXXXXXXXXXXXXXX    oooooooooooo    oooooooooooo    oooooooooooooooooooooooo    oooooooooooooooo    oooooooo    XXXXXXXXXXXXXXX",
"XXXXXXXXXXXXXXXXX    oooooooooooo    oooooooooooo    oooooooooooooooooooooooo    oooooooooooooooo    oooooooo    XXXXXXXXXXXXXXX",
"XXXXXXXXXXXXXXXXX    oooooooooooo    oooooooooooo    oooooooooooooooooooooooo    oooooooooooooooo    oooooooo    XXXXXXXXXXXXXXX",
"XXXXXXXXXXXXXXXXX    oooooooooooooooo    oooooooooooo    oooooooooooooooo    oooooooooooooooooooo    oooooooo    XXXXXXXXXXXXXXX",
"XXXXXXXXXXXXXXXXX    oooooooooooooooo    oooooooooooo    oooooooooooooooo    oooooooooooooooooooo    oooooooo    XXXXXXXXXXXXXXX",
"XXXXXXXXXXXXXXXXX    oooooooooooooooo    oooooooooooo    oooooooooooooooo    oooooooooooooooooooo    oooooooo    XXXXXXXXXXXXXXX",
"XXXXXXXXXXXXXXXXX    oooooooooooooooo    oooooooooooo    oooooooooooooooo    oooooooooooooooooooo    oooooooo    XXXXXXXXXXXXXXX",
"XXXXXXXXXXXXXXXXXXXXX    oooooooooooo    oooooooooooooooo                oooooooooooooooooooo    oooooooo    XXXXXXXXXXXXXXXXXXX",
"XXXXXXXXXXXXXXXXXXXXX    oooooooooooo    oooooooooooooooo                oooooooooooooooooooo    oooooooo    XXXXXXXXXXXXXXXXXXX",
"XXXXXXXXXXXXXXXXXXXXX    oooooooooooo    oooooooooooooooo                oooooooooooooooooooo    oooooooo    XXXXXXXXXXXXXXXXXXX",
"XXXXXXXXXXXXXXXXXXXXX    oooooooooooo    oooooooooooooooo                oooooooooooooooooooo    oooooooo    XXXXXXXXXXXXXXXXXXX",
"XXXXXXXXXXXXXXXXXXXXX    oooooooooooooooo    oooooooooooooooooooooooooooooooooooooooooooo    oooooooooooo    XXXXXXXXXXXXXXXXXXX",
"XXXXXXXXXXXXXXXXXXXXX    oooooooooooooooo    oooooooooooooooooooooooooooooooooooooooooooo    oooooooooooo    XXXXXXXXXXXXXXXXXXX",
"XXXXXXXXXXXXXXXXXXXXX    oooooooooooooooo    oooooooooooooooooooooooooooooooooooooooooooo    oooooooooooo    XXXXXXXXXXXXXXXXXXX",
"XXXXXXXXXXXXXXXXXXXXX    oooooooooooooooo    oooooooooooooooooooooooooooooooooooooooooooo    oooooooooooo    XXXXXXXXXXXXXXXXXXX",
"XXXXXXXXXXXXXXXXXXXXXXXXX    oooooooooooooooo    oooooooooooooooooooooooooooooooooooo    oooooooooooo    XXXXXXXXXXXXXXXXXXXXXXX",
"XXXXXXXXXXXXXXXXXXXXXXXXX    oooooooooooooooo    oooooooooooooooooooooooooooooooooooo    oooooooooooo    XXXXXXXXXXXXXXXXXXXXXXX",
"XXXXXXXXXXXXXXXXXXXXXXXXX    oooooooooooooooo    oooooooooooooooooooooooooooooooooooo    oooooooooooo    XXXXXXXXXXXXXXXXXXXXXXX",
"XXXXXXXXXXXXXXXX....XXXXX    oooooooooooooooo    oooooooooooooooooooooooooooooooooooo    oooooooooooo    XXXXXXXXXXXXXXXXXXXXXXX",
"XXXXXXXXXXXXXXXX....XXXXXXXXX    oooooooooooooooo        oooooooooooooooooooooooo    oooooooooooo    XXXXXXXXXXXXXXXXXXXXXXXXXXX",
"XXXXXXXXXXXXXXXX....XXXXXXXXX    oooooooooooooooo        oooooooooooooooooooooooo    oooooooooooo    XXXXXXXXXXXXXXXXXXXXXXXXXXX",
"XXXXXXXXXXXXXXXX....XXXXXXXXX    oooooooooooooooo        oooooooooooooooooooooooo    oooooooooooo    XXXXXXXXXXXXXXXXXXXXXXXXXXX",
"XXXXXXXXXXXXXXXXXXXX....XXXXX    oooooooooooooooo        oooooooooooooooooooooooo    oooooooooooo    XXXXXXXXXXXXXXXXXXXXXXXXXXX",
"XXXXXXXXXXXXXXXXXXXX....XXXXXXXXX    oooooooooooooooooooo                        oooooooooooo    XXXXXXXXXXXXXXXXXXXXXXXXXXXXXXX",
"XXXXXXXXXXXXXXXXXXXX....XXXXXXXXX    oooooooooooooooooooo                        oooooooooooo    XXXXXXXXXXXXXXXXXXXXXXXXXXXXXXX",
"XXXXXXXXXXXXXXXXXXXX....XXXXXXXXX    oooooooooooooooooooo                        oooooooooooo    XXXXXXXXXXXXXXXXXXXXXXXXXXXXXXX",
"XXXXXXXXXXXXXXXXXXXX....XXXXXXXXX    oooooooooooooooooooo                        oooooooooooo    XXXXXXXXXXXXXXXXXXXXXXXXXXXXXXX",
"XXXXXXXXXXXXXXXXXXXX....XXXXXXXXXXXXX    oooooooooooooooooooooooooooooooooooooooooooooooo    XXXXXXXXXXXXXXXXXXXXXXXXXXXXXXXXXXX",
"XXXXXXXXXXXXXXXXXXXX....XXXXXXXXXXXXX    oooooooooooooooooooooooooooooooooooooooooooooooo    XXXXXXXXXXXXXXXXXXXXXXXXXXXXXXXXXXX",
"XXXXXXXXXXXXXXXXXXXX....XXXXXXXXXXXXX    oooooooooooooooooooooooooooooooooooooooooooooooo    XXXXXXXXXXXXXXXXXXXXXXXXXXXXXXXXXXX",
"XXXXXXXXXXXXXXXXXXXXXXXXXXXXXXXXXXXXX    oooooooooooooooooooooooooooooooooooooooooooooooo    XXXXXXXXXXXXXXXXXXX....XXXXXXXXXXXX",
"XXXXXXXXXXXXXXXXXXXXXXXXXXXXXXXXXXXXXXXXX        oooooooooooooooooooooooooooooooo        ...XXXXXXXXXXXXXXXXXXXX....XXXXXXXXXXXX",
"XXXXXXXXXXXXXXXXXXXXXXXXXXXXXXXXXXXXXXXXX        oooooooooooooooooooooooooooooooo        ...XXXXXXXXXXXXXXXXXXXX....XXXXXXXXXXXX",
"XXXXXXXXXXXXXXXXXXXXXXXXXXXXXXXXXXXXXXXXX        oooooooooooooooooooooooooooooooo        ...XXXXXXXXXXXXXXXXXXXX....XXXXXXXXXXXX",
"XXXXXXXXXXXXXXXXXXXXXXXXXXXXXXXX....XXXXX        oooooooooooooooooooooooooooooooo        ...XXXXXXXXXXXXXXXXXXXXXXXX....XXXXXXXX",
"XXXXXXXXXXXXXXXXXXXXXXXXXXXXXXXX....XXXXXXXXXXXXX                                XXXXXXX....XXXXXXXXXXXXXXXXXXXXXXXX....XXXXXXXX",
"XXXXXXXXXXXXXXXXXXXXXXXXXXXXXXXX....XXXXXXXXXXXXX                                XXXXXXX....XXXXXXXXXXXXXXXXXXXXXXXX....XXXXXXXX",
"XXXXXXXXXXXXXXXXXXXXXXXXXXXXXXXX....XXXXXXXXXXXXX                                XXXXXXX....XXXXXXXXXXXXXXXXXXXXXXXX....XXXXXXXX",
"XXXXXXXXXXXXXXXXXXXXXXXXXXXX....XXXXXXXXXXXXXXXXX                                XXXXXXX....XXXXXXXXXXXXXXXXXXXXXXXX....XXXXXXXX",
"XXXXXXXXXXXXXXXXXXXXXXXXXXXX....XXXXXXXXXXXXXXXXXXXXXXXXXXXX....XXXXXXXXXXXXXXXXXXXXXXXX....XXXXXXXXXXXXXXXXXXXXXXXX....XXXXXXXX",
"XXXXXXXXXXXXXXXXXXXXXXXXXXXX....XXXXXXXXXXXXXXXXXXXXXXXXXXXX....XXXXXXXXXXXXXXXXXXXXXXXX....XXXXXXXXXXXXXXXXXXXXXXXX....XXXXXXXX",
"XXXXXXXXXXXXXXXXXXXXXXXXXXXX....XXXXXXXXXXXXXXXXXXXXXXXXXXXX....XXXXXXXXXXXXXXXXXXXXXXXX....XXXXXXXXXXXXXXXXXXXXXXXX....XXXXXXXX",
"XXXXXXXXXXXXXXXXXXXXXXXXXXXX....XXXXXXXXXXXXXXXXXXXXXXXXXXXXXXXXXXXXXXXXXXXXXXXXXXXXXXXXXXXXXXXXXXXXXXXXXXXXXXXXXXXXXXXXXXXXXXXX",
"XXXXXXXXXXXXXXXXXXXXXXXXXXXX....XXXXXXXXXXXXXXXXXXXXXXXXXXXXXXXXXXXXXXXXXXXXXXXXXXXXXXXXXXXXXXXXXXXXXXXXXXXXXXXXXXXXXXXXXXXXXXXX",
"XXXXXXXXXXXXXXXXXXXXXXXXXXXX....XXXXXXXXXXXXXXXXXXXXXXXXXXXXXXXXXXXXXXXXXXXXXXXXXXXXXXXXXXXXXXXXXXXXXXXXXXXXXXXXXXXXXXXXXXXXXXXX",
"XXXXXXXXXXXXXXXXXXXXXXXXXXXX....XXXXXXXXXXXXXXXXXXXXXXXXXXXXXXXXXXXXXXXXXXXXXXXXXXXXXXXXXXXXXXXXXXXXXXXXXXXXXXXXXXXXXXXXXXXXXXXX",
"XXXXXXXXXXXXXXXXXXXXXXXXXXXXXXXXXXXXXXXXXXXXXXXXXXXXXXXXXXXXXXXXXXXXXXXXXXXXXXXXXXXXXXXXXXXXXXXXXXXXXXXXXXXXXXXXXXXXXXXXXXXXXXXX",
"XXXXXXXXXXXXXXXXXXXXXXXXXXXXXXXXXXXXXXXXXXXXXXXXXXXXXXXXXXXXXXXXXXXXXXXXXXXXXXXXXXXXXXXXXXXXXXXXXXXXXXXXXXXXXXXXXXXXXXXXXXXXXXXX",
"XXXXXXXXXXXXXXXXXXXXXXXXXXXXXXXXXXXXXXXXXXXXXXXXXXXXXXXXXXXXXXXXXXXXXXXXXXXXXXXXXXXXXXXXXXXXXXXXXXXXXXXXXXXXXXXXXXXXXXXXXXXXXXXX",
"XXXXXXXXXXXXXXXXXXXXXXXXXXXXXXXXXXXXXXXXXXXXXXXXXXXXXXXXXXXXXXXXXXXXXXXXXXXXXXXXXXXXXXXXXXXXXXXXXXXXXXXXXXXXXXXXXXXXXXXXXXXXXXXX",
"XXXXXXXXXXXXXXXXXXXXXXXXXXXXXXXXXXXXXXXXXXXXXXXXXXXXXXXXXXXXXXXXXXXXXXXXXXXXXXXXXXXXXXXXXXXXXXXXXXXXXXXXXXXXXXXXXXXXXXXXXXXXXXXX",
"XXXXXXXXXXXXXXXXXXXXXXXXXXXXXXXXXXXXXXXXXXXXXXXXXXXXXXXXXXXXXXXXXXXXXXXXXXXXXXXXXXXXXXXXXXXXXXXXXXXXXXXXXXXXXXXXXXXXXXXXXXXXXXXX",
"XXXXXXXXXXXXXXXXXXXXXXXXXXXXXXXXXXXXXXXXXXXXXXXXXXXXXXXXXXXXXXXXXXXXXXXXXXXXXXXXXXXXXXXXXXXXXXXXXXXXXXXXXXXXXXXXXXXXXXXXXXXXXXXX",
"XXXXXXXXXXXXXXXXXXXXXXXXXXXXXXXXXXXXXXXXXXXXXXXXXXXXXXXXXXXXXXXXXXXXXXXXXXXXXXXXXXXXXXXXXXXXXXXXXXXXXXXXXXXXXXXXXXXXXXXXXXXXXXXX"
};
