/* XPM */
static char *_250b63354794690cd43bbac21e65668ds7t7jDxb5Bm0ssf[] = {
/* columns rows colors chars-per-pixel */
"112 48 12 1 ",
"  c None",
". c #3D3648",
"X c #625567",
"o c #9D443D",
"O c #996B6E",
"+ c #4E8400",
"@ c #F9C325",
"# c #81BA44",
"$ c #AC947A",
"% c #9FDF5B",
"& c #C1F27A",
"* c #FBFF86",
/* pixels */
"################################################################################################XXXXXXXXXXXXXXXX",
"################################################################################################XXXXXXXXXXXXXXXX",
"#####################+##################+#######################################################XXXOXXXXXXXXXXXX",
"#########+############+##################+##+######+###+##########&&%###########+###############XXXXXXXXXXXXXXXX",
"##########+##+########+##################+#+########+#+############&%%##%&&######+##+###########XXXXXXXXXXXXXXXX",
"##########+#+##############################+########+#+###########++%%#%%&#######+#+############XXXXXXXXXXXXXXXX",
"############+######################################################++##%%++########+############XXXXXXXXXXXXXXXX",
"########################################################################++######################XXXXXXXXXXXXXXXX",
"###+#######################&####################################################################XXXXXXXXXXXXXOXX",
"##+###########&###&#######%###&###########################################################%&&###XXXXXXXXXXXXXXXX",
"##+###########%##%#####&#&%%#&#%&&#######################################################%%&####XXXXXXXXXXXXXXXX",
"##########&##&%++%&%++%#+++++%+++%&######################################################%%++###XXXXXXXXXXXXXXXX",
"###########%%&+  +++  ++     +   +%+%&####################+###############################++####XXXXXXXXXXXXXXXX",
"###########&+%+    +   +          + +######################+####################################XXXXOXXXXXXXXXXX",
"##########%+ +                      +%#####################+####################################XXXXXXXXXXXXXXXX",
"#########&#+                        +%&#########################################################XXXXXXXXXXXXXXXX",
"##########&+                        +###########################################################XXXXXXXXXXXXXXXX",
"########&%%&+                       +%%&###################################%&&#########%&&######XXXXXXXXXXXXXXXX",
"###########%+                       +%####################################%%&####&&%##%%&#######XXOXXXXXOXXXXXOX",
"##########&+                        +&#####+##############################%%++####&%%#%%++######XXXXXXXXXXXXXXXX",
"#+###+###%%+                       +%#######+######################+#######++####++%%##++#######XXXXXXXXXXXXXXXX",
"##+#+###&##%++                      +&######+######################+##############++############XXXXXXXXXXXXXXXX",
"##+#+#####&+                        +%##########################################################XXXXXXXXXXOXXXXX",
"##########%+                        +%&#########################################################XXXXXXXXXXXXXXXX",
"##########%+                        +###########################################################XXXXXOXXXXXXXXXX",
"###########+                        +&##########################################################XXXXXXXXXXXXXXXX",
"##########&%+                     ++%%&################################%&&#################&&%##XXXXXXXXXXXXXXXX",
"########&##+                       +%####+#######################&&%##%%&############+######&%%#XXXXXXXXXOXXXXXX",
"#####+###%%+                        +&##+#########################&%%#%%++##########+######++%%#XXXXXXXXXXXXXXOX",
"#####+####&%+                       +###+########################++%%##++###########+#######++##XXOXXXXXXXXXXXXX",
"###########&++                     +%&#######+####################++############################XXXXXXXXXXXXOXXX",
"###########+                        +########+##################################################XXXXXXXXXXXXXXXX",
"##########%+                        +###########################################################XXXXXXXXXXXXXXXX",
"##########&%+ +                   ++%&#################################################*########XXXXXXXOXXXXXXOX",
"#########&#&%++   +          +     +#%######################################+#########*@*#######XXOOXXXXXXXXXXXX",
"###########%##%+  +    +    ++   ++%##&#####+#######################o########+########+*+#######XO$XOXXXXXXXXXXX",
"#############&#&++%++++%++++%&+++%%&#########+#####################o@o#######+####+####+########XX..XXXXXXXXXXXX",
"##########+#####&%#&%%#&%&##%%&##%###########+#########+###########+o+############+#############XXXXXXXXXXXXXXXX",
"###########+#####%####&####&#####&####################+#############+###########################XXXXXXXXXXOXXXXX",
"###########+######################################+###+#########################################XOXXXXOXXXXXXXXX",
"#############################+#####################+########################################*###XXXXXXXXXXXXXXXX",
"###################+#########+########+############+#######################################*@*##XXXXXXXXXXXXXOOX",
"#####+##############+##################+##+#####################+###########o######*#######+*+##XXXXOOOXXXXXO$XO",
"#+##+###############+##################+#+#######################+##+######o@o####*@*#######+###XXXO$$$OXXXXX..X",
"##+#+#####################+##############+###################+###+#+#######+o+####+*+#####+#####XXX.XXX.XXXXXXXX",
"##+######################+####################################+####+########+######+#####+######XXXX...XXOXXXXXX",
"#########################+####################################+##########################+######XXXXXXXXXXXXXOXX",
"################################################################################################XOXXXXXXXXXXXXXX"
};
