/* XPM */
static char *_4c958dcc7a34137ae2aa51ab722e898PJSX5vLsOiglP0nB[] = {
/* columns rows colors chars-per-pixel */
"128 128 4 1 ",
"  c #2D2B29",
". c #595652",
"X c #D87B31",
"o c #5FCDE4",
/* pixels */
"....................................................................................................oooo........................",
"....................................................................................................oooo........................",
"....................................................................................................oooo........................",
"....................................................................................................oooo........................",
"....XXXXXXXXXXXXXXXXXXXXXXXXooooXXXXXXXXXXXXXXXXXXXXXXXXXXXXXXXXXXXXXXXXXXXXXXXXXXXXXXXXXXXXXXXXoooo    ooooXXXXXXXXXXXXXXXX....",
"....XXXXXXXXXXXXXXXXXXXXXXXXooooXXXXXXXXXXXXXXXXXXXXXXXXXXXXXXXXXXXXXXXXXXXXXXXXXXXXXXXXXXXXXXXXoooo    ooooXXXXXXXXXXXXXXXX....",
"....XXXXXXXXXXXXXXXXXXXXXXXXooooXXXXXXXXXXXXXXXXXXXXXXXXXXXXXXXXXXXXXXXXXXXXXXXXXXXXXXXXXXXXXXXXoooo    ooooXXXXXXXXXXXXXXXX....",
"....XXXXXXXXXXXXXXXXXXXXXXXXooooXXXXXXXXXXXXXXXXXXXXXXXXXXXXXXXXXXXXXXXXXXXXXXXXXXXXXXXXXXXXXXXXoooo    ooooXXXXXXXXXXXXXXXX....",
"....XXXXXXXXXXXXXXXXXXXXoooo    ooooXXXXXXXXXXXXXXXXXXXXXXXX    XXXXXXXXXXXXXXXXXXXXXXXXXXXXoooo    ....    ooooXXXXXXXXXXXX....",
"....XXXXXXXXXXXXXXXXXXXXoooo    ooooXXXXXXXXXXXXXXXXXXXXXXXX    XXXXXXXXXXXXXXXXXXXXXXXXXXXXoooo    ....    ooooXXXXXXXXXXXX....",
"....XXXXXXXXXXXXXXXXXXXXoooo    ooooXXXXXXXXXXXXXXXXXXXXXXXX    XXXXXXXXXXXXXXXXXXXXXXXXXXXXoooo    ....    ooooXXXXXXXXXXXX....",
"....XXXXXXXXXXXXXXXXXXXXoooo    ooooXXXXXXXXXXXXXXXXXXXXXXXX    XXXXXXXXXXXXXXXXXXXXXXXXXXXXoooo    ....    ooooXXXXXXXXXXXX....",
"....XXXXXXXXXXXXXXXXoooo    ....    ooooXXXXXXXXXXXXXXXX    ....    XXXXXXXXXXXXXXXXXXXXXXXXoooo    ....    ooooXXXXXXXXXXXX....",
"....XXXXXXXXXXXXXXXXoooo    ....    ooooXXXXXXXXXXXXXXXX    ....    XXXXXXXXXXXXXXXXXXXXXXXXoooo    ....    ooooXXXXXXXXXXXX....",
"....XXXXXXXXXXXXXXXXoooo    ....    ooooXXXXXXXXXXXXXXXX    ....    XXXXXXXXXXXXXXXXXXXXXXXXoooo    ....    ooooXXXXXXXXXXXX....",
"....XXXXXXXXXXXXXXXXoooo    ....    ooooXXXXXXXXXXXXXXXX    ....    XXXXXXXXXXXXXXXXXXXXXXXXoooo    ....    ooooXXXXXXXXXXXX....",
"....XXXXXXXXXXXXXXXXoooo    ....    ooooXXXXXXXXXXXX    ........    XXXXXXXXXXXXXXXXXXXXoooo    ........    ooooXXXXXXXXXXXX....",
"....XXXXXXXXXXXXXXXXoooo    ....    ooooXXXXXXXXXXXX    ........    XXXXXXXXXXXXXXXXXXXXoooo    ........    ooooXXXXXXXXXXXX....",
"....XXXXXXXXXXXXXXXXoooo    ....    ooooXXXXXXXXXXXX    ........    XXXXXXXXXXXXXXXXXXXXoooo    ........    ooooXXXXXXXXXXXX....",
"....XXXXXXXXXXXXXXXXoooo    ....    ooooXXXXXXXXXXXX    ........    XXXXXXXXXXXXXXXXXXXXoooo    ........    ooooXXXXXXXXXXXX....",
"....XXXXXXXXXXXXoooo        ....        ooooXXXXXXXX    ........    XXXXXXXXXXXXXXXXXXXXoooo    ........    ooooXXXXXXXXXXXX....",
"....XXXXXXXXXXXXoooo        ....        ooooXXXXXXXX    ........    XXXXXXXXXXXXXXXXXXXXoooo    ........    ooooXXXXXXXXXXXX....",
"....XXXXXXXXXXXXoooo        ....        ooooXXXXXXXX    ........    XXXXXXXXXXXXXXXXXXXXoooo    ........    ooooXXXXXXXXXXXX....",
"....XXXXXXXXXXXXoooo        ....        ooooXXXXXXXX    ........    XXXXXXXXXXXXXXXXXXXXoooo    ........    ooooXXXXXXXXXXXX....",
"....XXXXXXXXXXXXoooo    ............    ooooXXXXXXXX    ........    XXXXXXXXXXXXXXXXXXXXoooo    ............    ooooXXXXXXXX....",
"....XXXXXXXXXXXXoooo    ............    ooooXXXXXXXX    ........    XXXXXXXXXXXXXXXXXXXXoooo    ............    ooooXXXXXXXX....",
"....XXXXXXXXXXXXoooo    ............    ooooXXXXXXXX    ........    XXXXXXXXXXXXXXXXXXXXoooo    ............    ooooXXXXXXXX....",
"....XXXXXXXXXXXXoooo    ............    ooooXXXXXXXX    ........    XXXXXXXXXXXXXXXXXXXXoooo    ............    ooooXXXXXXXX....",
"....XXXXXXXXoooo        ............    ooooXXXXXXXX    ............    XXXXXXXXXXXXXXXXoooo    ............    ooooXXXXXXXX....",
"....XXXXXXXXoooo        ............    ooooXXXXXXXX    ............    XXXXXXXXXXXXXXXXoooo    ............    ooooXXXXXXXX....",
"....XXXXXXXXoooo        ............    ooooXXXXXXXX    ............    XXXXXXXXXXXXXXXXoooo    ............    ooooXXXXXXXX....",
"....XXXXXXXXoooo        ............    ooooXXXXXXXX    ............    XXXXXXXXXXXXXXXXoooo    ............    ooooXXXXXXXX....",
"....XXXXXXXXoooo    ............    ooooXXXXXXXXXXXX    ............    XXXXXXXXXXXXoooo    ................    ooooXXXXXXXX....",
"....XXXXXXXXoooo    ............    ooooXXXXXXXXXXXX    ............    XXXXXXXXXXXXoooo    ................    ooooXXXXXXXX....",
"....XXXXXXXXoooo    ............    ooooXXXXXXXXXXXX    ............    XXXXXXXXXXXXoooo    ................    ooooXXXXXXXX....",
"....XXXXXXXXoooo    ............    ooooXXXXXXXXXXXX    ............    XXXXXXXXXXXXoooo    ................    ooooXXXXXXXX....",
"....XXXXoooo        ............    ooooXXXXXXXXXXXX    ................    XXXXXXXXoooo    ....................    ooooXXXX....",
"....XXXXoooo        ............    ooooXXXXXXXXXXXX    ................    XXXXXXXXoooo    ....................    ooooXXXX....",
"....XXXXoooo        ............    ooooXXXXXXXXXXXX    ................    XXXXXXXXoooo    ....................    ooooXXXX....",
"....XXXXoooo        ............    ooooXXXXXXXXXXXX    ................    XXXXXXXXoooo    ....................    ooooXXXX....",
"....XXXXXXXXXXXXXXXXXXXXXXXXXXXXXXXXXXXXXXXXXXXXXXXXXXXXXXXXooooXXXXXXXXXXXXXXXXXXXXXXXXXXXXXXXXXXXXXXXXXXXXXXXXXXXXXXXXXXXX....",
"....XXXXXXXXXXXXXXXXXXXXXXXXXXXXXXXXXXXXXXXXXXXXXXXXXXXXXXXXooooXXXXXXXXXXXXXXXXXXXXXXXXXXXXXXXXXXXXXXXXXXXXXXXXXXXXXXXXXXXX....",
"....XXXXXXXXXXXXXXXXXXXXXXXXXXXXXXXXXXXXXXXXXXXXXXXXXXXXXXXXooooXXXXXXXXXXXXXXXXXXXXXXXXXXXXXXXXXXXXXXXXXXXXXXXXXXXXXXXXXXXX....",
"....XXXXXXXXXXXXXXXXXXXXXXXXXXXXXXXXXXXXXXXXXXXXXXXXXXXXXXXXooooXXXXXXXXXXXXXXXXXXXXXXXXXXXXXXXXXXXXXXXXXXXXXXXXXXXXXXXXXXXX....",
"....XXXXXXXXXXXXXXXXXXXXXXXXXXXXXXXXXXXXXXXXXXXXXXXXXXXXoooo    ooooXXXXXXXXXXXXXXXXXXXXXXXXXXXXXXXX    XXXXXXXXXXXXXXXXXXXX....",
"....XXXXXXXXXXXXXXXXXXXXXXXXXXXXXXXXXXXXXXXXXXXXXXXXXXXXoooo    ooooXXXXXXXXXXXXXXXXXXXXXXXXXXXXXXXX    XXXXXXXXXXXXXXXXXXXX....",
"....XXXXXXXXXXXXXXXXXXXXXXXXXXXXXXXXXXXXXXXXXXXXXXXXXXXXoooo    ooooXXXXXXXXXXXXXXXXXXXXXXXXXXXXXXXX    XXXXXXXXXXXXXXXXXXXX....",
"....XXXXXXXXXXXXXXXXXXXXXXXXXXXXXXXXXXXXXXXXXXXXXXXXXXXXoooo    ooooXXXXXXXXXXXXXXXXXXXXXXXXXXXXXXXX    XXXXXXXXXXXXXXXXXXXX....",
"....XXXXXXXXXXXXXXXXXXXX    XXXXXXXXXXXXXXXXXXXXXXXXXXXXoooo    ooooXXXXXXXXXXXXXXXXXXXXXXXXXXXXXXXX        XXXXXXXXXXXXXXXX....",
"....XXXXXXXXXXXXXXXXXXXX    XXXXXXXXXXXXXXXXXXXXXXXXXXXXoooo    ooooXXXXXXXXXXXXXXXXXXXXXXXXXXXXXXXX        XXXXXXXXXXXXXXXX....",
"....XXXXXXXXXXXXXXXXXXXX    XXXXXXXXXXXXXXXXXXXXXXXXXXXXoooo    ooooXXXXXXXXXXXXXXXXXXXXXXXXXXXXXXXX        XXXXXXXXXXXXXXXX....",
"....XXXXXXXXXXXXXXXXXXXX    XXXXXXXXXXXXXXXXXXXXXXXXXXXXoooo    ooooXXXXXXXXXXXXXXXXXXXXXXXXXXXXXXXX        XXXXXXXXXXXXXXXX....",
"....XXXXXXXXXXXXXXXX        XXXXXXXXXXXXXXXXXXXXXXXXXXXXoooo        ooooXXXXXXXXXXXXXXXXXXXXXXXXXXXX    ....    XXXXXXXXXXXX....",
"....XXXXXXXXXXXXXXXX        XXXXXXXXXXXXXXXXXXXXXXXXXXXXoooo        ooooXXXXXXXXXXXXXXXXXXXXXXXXXXXX    ....    XXXXXXXXXXXX....",
"....XXXXXXXXXXXXXXXX        XXXXXXXXXXXXXXXXXXXXXXXXXXXXoooo        ooooXXXXXXXXXXXXXXXXXXXXXXXXXXXX    ....    XXXXXXXXXXXX....",
"....XXXXXXXXXXXXXXXX        XXXXXXXXXXXXXXXXXXXXXXXXXXXXoooo        ooooXXXXXXXXXXXXXXXXXXXXXXXXXXXX    ....    XXXXXXXXXXXX....",
"....XXXXXXXXXXXX    ....    XXXXXXXXXXXXXXXXXXXXXXXXXXXXoooo    ....    ooooXXXXXXXXXXXXXXXXXXXXXXXX    ....    XXXXXXXXXXXX....",
"....XXXXXXXXXXXX    ....    XXXXXXXXXXXXXXXXXXXXXXXXXXXXoooo    ....    ooooXXXXXXXXXXXXXXXXXXXXXXXX    ....    XXXXXXXXXXXX....",
"....XXXXXXXXXXXX    ....    XXXXXXXXXXXXXXXXXXXXXXXXXXXXoooo    ....    ooooXXXXXXXXXXXXXXXXXXXXXXXX    ....    XXXXXXXXXXXX....",
"....XXXXXXXXXXXX    ....    XXXXXXXXXXXXXXXXXXXXXXXXXXXXoooo    ....    ooooXXXXXXXXXXXXXXXXXXXXXXXX    ....    XXXXXXXXXXXX....",
"....XXXXXXXX    ............    XXXXXXXXXXXXXXXXXXXXXXXXoooo    ....    ooooXXXXXXXXXXXXXXXXXXXX    ........    XXXXXXXXXXXX....",
"....XXXXXXXX    ............    XXXXXXXXXXXXXXXXXXXXXXXXoooo    ....    ooooXXXXXXXXXXXXXXXXXXXX    ........    XXXXXXXXXXXX....",
"....XXXXXXXX    ............    XXXXXXXXXXXXXXXXXXXXXXXXoooo    ....    ooooXXXXXXXXXXXXXXXXXXXX    ........    XXXXXXXXXXXX....",
"....XXXXXXXX    ............    XXXXXXXXXXXXXXXXXXXXXXXXoooo    ....    ooooXXXXXXXXXXXXXXXXXXXX    ........    XXXXXXXXXXXX....",
"....XXXXXXXX    ............    XXXXXXXXXXXXXXXXXXXXoooo    ........    ooooXXXXXXXXXXXXXXXXXXXX    ............    XXXXXXXX....",
"....XXXXXXXX    ............    XXXXXXXXXXXXXXXXXXXXoooo    ........    ooooXXXXXXXXXXXXXXXXXXXX    ............    XXXXXXXX....",
"....XXXXXXXX    ............    XXXXXXXXXXXXXXXXXXXXoooo    ........    ooooXXXXXXXXXXXXXXXXXXXX    ............    XXXXXXXX....",
"....XXXXXXXX    ............    XXXXXXXXXXXXXXXXXXXXoooo    ........    ooooXXXXXXXXXXXXXXXXXXXX    ............    XXXXXXXX....",
"....XXXX    ....................    XXXXXXXXXXXXXXXXoooo    ............    ooooXXXXXXXXXXXXXXXX    ............    XXXXXXXX....",
"....XXXX    ....................    XXXXXXXXXXXXXXXXoooo    ............    ooooXXXXXXXXXXXXXXXX    ............    XXXXXXXX....",
"....XXXX    ....................    XXXXXXXXXXXXXXXXoooo    ............    ooooXXXXXXXXXXXXXXXX    ............    XXXXXXXX....",
"....XXXX    ....................    XXXXXXXXXXXXXXXXoooo    ............    ooooXXXXXXXXXXXXXXXX    ............    XXXXXXXX....",
"....XXXX    ....................    XXXXXXXXXXXXoooo    ................    ooooXXXXXXXXXXXX    ....................    XXXX....",
"....XXXX    ....................    XXXXXXXXXXXXoooo    ................    ooooXXXXXXXXXXXX    ....................    XXXX....",
"....XXXX    ....................    XXXXXXXXXXXXoooo    ................    ooooXXXXXXXXXXXX    ....................    XXXX....",
"....XXXX    ....................    XXXXXXXXXXXXoooo    ................    ooooXXXXXXXXXXXX    ....................    XXXX....",
"....XXXX    ........................    XXXXoooo    ....................    ooooXXXXXXXXXXXX    ....................    XXXX....",
"....XXXX    ........................    XXXXoooo    ....................    ooooXXXXXXXXXXXX    ....................    XXXX....",
"....XXXX    ........................    XXXXoooo    ....................    ooooXXXXXXXXXXXX    ....................    XXXX....",
"....XXXX    ........................    XXXXoooo    ....................    ooooXXXXXXXXXXXX    ....................    XXXX....",
"....XXXXXXXXXXXXXXXXXXXXXXXXXXXXXXXXXXXXXXXXXXXXXXXXXXXXXXXXXXXXXXXXXXXXXXXXXXXXXXXXXXXXXXXXXXXXXXXXXXXXXXXXXXXXXXXXXXXXXXXX....",
"....XXXXXXXXXXXXXXXXXXXXXXXXXXXXXXXXXXXXXXXXXXXXXXXXXXXXXXXXXXXXXXXXXXXXXXXXXXXXXXXXXXXXXXXXXXXXXXXXXXXXXXXXXXXXXXXXXXXXXXXX....",
"....XXXXXXXXXXXXXXXXXXXXXXXXXXXXXXXXXXXXXXXXXXXXXXXXXXXXXXXXXXXXXXXXXXXXXXXXXXXXXXXXXXXXXXXXXXXXXXXXXXXXXXXXXXXXXXXXXXXXXXXX....",
"....XXXXXXXXXXXXXXXXXXXXXXXXXXXXXXXXXXXXXXXXXXXXXXXXXXXXXXXXXXXXXXXXXXXXXXXXXXXXXXXXXXXXXXXXXXXXXXXXXXXXXXXXXXXXXXXXXXXXXXXX....",
"....XXXXXXXXXXXXXXXXXXXXooooXXXXXXXXXXXXXXXXXXXXXXXXXXXXXXXXXXXXXXXXXXXXXXXXXXXXXXXXXXXXXXXXXXXXXXXXooooXXXXXXXXXXXXXXXXXXXX....",
"....XXXXXXXXXXXXXXXXXXXXooooXXXXXXXXXXXXXXXXXXXXXXXXXXXXXXXXXXXXXXXXXXXXXXXXXXXXXXXXXXXXXXXXXXXXXXXXooooXXXXXXXXXXXXXXXXXXXX....",
"....XXXXXXXXXXXXXXXXXXXXooooXXXXXXXXXXXXXXXXXXXXXXXXXXXXXXXXXXXXXXXXXXXXXXXXXXXXXXXXXXXXXXXXXXXXXXXXooooXXXXXXXXXXXXXXXXXXXX....",
"....XXXXXXXXXXXXXXXXXXXXooooXXXXXXXXXXXXXXXXXXXXXXXXXXXXXXXXXXXXXXXXXXXXXXXXXXXXXXXXXXXXXXXXXXXXXXXXooooXXXXXXXXXXXXXXXXXXXX....",
"....XXXXXXXXXXXXXXXXoooo    ooooXXXXXXXXXXXXXXXXXXXXXXXXXXXXXXXX    XXXXXXXXXXXXXXXXXXXXXXXXXXXXoooo    ooooXXXXXXXXXXXXXXXX....",
"....XXXXXXXXXXXXXXXXoooo    ooooXXXXXXXXXXXXXXXXXXXXXXXXXXXXXXXX    XXXXXXXXXXXXXXXXXXXXXXXXXXXXoooo    ooooXXXXXXXXXXXXXXXX....",
"....XXXXXXXXXXXXXXXXoooo    ooooXXXXXXXXXXXXXXXXXXXXXXXXXXXXXXXX    XXXXXXXXXXXXXXXXXXXXXXXXXXXXoooo    ooooXXXXXXXXXXXXXXXX....",
"....XXXXXXXXXXXXXXXXoooo    ooooXXXXXXXXXXXXXXXXXXXXXXXXXXXXXXXX    XXXXXXXXXXXXXXXXXXXXXXXXXXXXoooo    ooooXXXXXXXXXXXXXXXX....",
"....XXXXXXXXXXXXXXXXoooo        ooooXXXXXXXXXXXXXXXXXXXXXXXX        XXXXXXXXXXXXXXXXXXXXXXXXoooo    ....    ooooXXXXXXXXXXXX....",
"....XXXXXXXXXXXXXXXXoooo        ooooXXXXXXXXXXXXXXXXXXXXXXXX        XXXXXXXXXXXXXXXXXXXXXXXXoooo    ....    ooooXXXXXXXXXXXX....",
"....XXXXXXXXXXXXXXXXoooo        ooooXXXXXXXXXXXXXXXXXXXXXXXX        XXXXXXXXXXXXXXXXXXXXXXXXoooo    ....    ooooXXXXXXXXXXXX....",
"....XXXXXXXXXXXXXXXXoooo        ooooXXXXXXXXXXXXXXXXXXXXXXXX        XXXXXXXXXXXXXXXXXXXXXXXXoooo    ....    ooooXXXXXXXXXXXX....",
"....XXXXXXXXXXXXXXXXoooo    ....    ooooXXXXXXXXXXXXXXXX    ....    XXXXXXXXXXXXXXXXXXXXXXXXoooo    ........    ooooXXXXXXXX....",
"....XXXXXXXXXXXXXXXXoooo    ....    ooooXXXXXXXXXXXXXXXX    ....    XXXXXXXXXXXXXXXXXXXXXXXXoooo    ........    ooooXXXXXXXX....",
"....XXXXXXXXXXXXXXXXoooo    ....    ooooXXXXXXXXXXXXXXXX    ....    XXXXXXXXXXXXXXXXXXXXXXXXoooo    ........    ooooXXXXXXXX....",
"....XXXXXXXXXXXXXXXXoooo    ....    ooooXXXXXXXXXXXXXXXX    ....    XXXXXXXXXXXXXXXXXXXXXXXXoooo    ........    ooooXXXXXXXX....",
"....XXXXXXXXXXXXoooo        ....    ooooXXXXXXXXXXXX    ........    XXXXXXXXXXXXXXXXXXXXXXXXoooo    ........    ooooXXXXXXXX....",
"....XXXXXXXXXXXXoooo        ....    ooooXXXXXXXXXXXX    ........    XXXXXXXXXXXXXXXXXXXXXXXXoooo    ........    ooooXXXXXXXX....",
"....XXXXXXXXXXXXoooo        ....    ooooXXXXXXXXXXXX    ........    XXXXXXXXXXXXXXXXXXXXXXXXoooo    ........    ooooXXXXXXXX....",
"....XXXXXXXXXXXXoooo        ....    ooooXXXXXXXXXXXX    ........    XXXXXXXXXXXXXXXXXXXXXXXXoooo    ........    ooooXXXXXXXX....",
"....XXXXXXXXXXXXoooo    ........    ooooXXXXXXXX    ............    XXXXXXXXXXXXXXXXXXXXXXXXoooo    ............    ooooXXXX....",
"....XXXXXXXXXXXXoooo    ........    ooooXXXXXXXX    ............    XXXXXXXXXXXXXXXXXXXXXXXXoooo    ............    ooooXXXX....",
"....XXXXXXXXXXXXoooo    ........    ooooXXXXXXXX    ............    XXXXXXXXXXXXXXXXXXXXXXXXoooo    ............    ooooXXXX....",
"....XXXXXXXXXXXXoooo    ........    ooooXXXXXXXX    ............    XXXXXXXXXXXXXXXXXXXXXXXXoooo    ............    ooooXXXX....",
"....XXXXXXXXoooo    ............    ooooXXXXXXXX    ............    XXXXXXXXXXXXXXXXXXXXXXXXoooo    ............    ooooXXXX....",
"....XXXXXXXXoooo    ............    ooooXXXXXXXX    ............    XXXXXXXXXXXXXXXXXXXXXXXXoooo    ............    ooooXXXX....",
"....XXXXXXXXoooo    ............    ooooXXXXXXXX    ............    XXXXXXXXXXXXXXXXXXXXXXXXoooo    ............    ooooXXXX....",
"....XXXXXXXXoooo    ............    ooooXXXXXXXX    ............    XXXXXXXXXXXXXXXXXXXXXXXXoooo    ............    ooooXXXX....",
"....XXXXoooo    ............    ooooXXXXXXXXXXXX        ............    XXXXXXXXXXXXXXXXoooo    ............    ooooXXXXXXXX....",
"....XXXXoooo    ............    ooooXXXXXXXXXXXX        ............    XXXXXXXXXXXXXXXXoooo    ............    ooooXXXXXXXX....",
"....XXXXoooo    ............    ooooXXXXXXXXXXXX        ............    XXXXXXXXXXXXXXXXoooo    ............    ooooXXXXXXXX....",
"....XXXXoooo    ............    ooooXXXXXXXXXXXX        ............    XXXXXXXXXXXXXXXXoooo    ............    ooooXXXXXXXX....",
"....XXXXoooo    ............    ooooXXXXXXXXXXXXXXXX    ................        XXXXoooo    ................    ooooXXXXXXXX....",
"....XXXXoooo    ............    ooooXXXXXXXXXXXXXXXX    ................        XXXXoooo    ................    ooooXXXXXXXX....",
"....XXXXoooo    ............    ooooXXXXXXXXXXXXXXXX    ................        XXXXoooo    ................    ooooXXXXXXXX....",
"....XXXXoooo    ............    ooooXXXXXXXXXXXXXXXX    ................        XXXXoooo    ................    ooooXXXXXXXX....",
"....XXXXXXXXXXXXXXXXXXXXXXXXXXXXXXXXXXXXXXXXXXXXXXXXXXXXXXXXXXXXXXXXXXXXXXXXXXXXXXXXXXXXXXXXXXXXXXXXXXXXXXXXXXXXXXXXXXXXXXXX....",
"....XXXXXXXXXXXXXXXXXXXXXXXXXXXXXXXXXXXXXXXXXXXXXXXXXXXXXXXXXXXXXXXXXXXXXXXXXXXXXXXXXXXXXXXXXXXXXXXXXXXXXXXXXXXXXXXXXXXXXXXX....",
"....XXXXXXXXXXXXXXXXXXXXXXXXXXXXXXXXXXXXXXXXXXXXXXXXXXXXXXXXXXXXXXXXXXXXXXXXXXXXXXXXXXXXXXXXXXXXXXXXXXXXXXXXXXXXXXXXXXXXXXXX....",
"....XXXXXXXXXXXXXXXXXXXXXXXXXXXXXXXXXXXXXXXXXXXXXXXXXXXXXXXXXXXXXXXXXXXXXXXXXXXXXXXXXXXXXXXXXXXXXXXXXXXXXXXXXXXXXXXXXXXXXXXX....",
"................................................................................................................................",
"................................................................................................................................",
"................................................................................................................................",
"................................................................................................................................"
};
