/* XPM */
static char *_a8cab62a9ba4ed7bd3271800f741dc6YTGOUWsd8sF1IXfm[] = {
/* columns rows colors chars-per-pixel */
"128 128 4 1 ",
"  c #2D2B29",
". c #595652",
"X c #D87B31",
"o c #5FCDE4",
/* pixels */
"................................................................................................................................",
"................................................................................................................................",
"................................................................................................................................",
"................................................................................................................................",
"....XXXXXXXXXXXXXXXXXXXXXXXXXXXXXXXXXXXXXXXXXXXXXXXXXXXXXXXXooooXXXXXXXXXXXXXXXXXXXXXXXXXXXXXXXXXXXX    XXXXXXXXXXXXXXXXXXXX....",
"....XXXXXXXXXXXXXXXXXXXXXXXXXXXXXXXXXXXXXXXXXXXXXXXXXXXXXXXXooooXXXXXXXXXXXXXXXXXXXXXXXXXXXXXXXXXXXX    XXXXXXXXXXXXXXXXXXXX....",
"....XXXXXXXXXXXXXXXXXXXXXXXXXXXXXXXXXXXXXXXXXXXXXXXXXXXXXXXXooooXXXXXXXXXXXXXXXXXXXXXXXXXXXXXXXXXXXX    XXXXXXXXXXXXXXXXXXXX....",
"....XXXXXXXXXXXXXXXXXXXXXXXXXXXXXXXXXXXXXXXXXXXXXXXXXXXXXXXXooooXXXXXXXXXXXXXXXXXXXXXXXXXXXXXXXXXXXX    XXXXXXXXXXXXXXXXXXXX....",
"....XXXXXXXXXXXXXXXXXXXXXXXX    XXXXXXXXXXXXXXXXXXXXXXXXoooo    ooooXXXXXXXXXXXXXXXXXXXXXXXXXXXX    ....    XXXXXXXXXXXXXXXX....",
"....XXXXXXXXXXXXXXXXXXXXXXXX    XXXXXXXXXXXXXXXXXXXXXXXXoooo    ooooXXXXXXXXXXXXXXXXXXXXXXXXXXXX    ....    XXXXXXXXXXXXXXXX....",
"....XXXXXXXXXXXXXXXXXXXXXXXX    XXXXXXXXXXXXXXXXXXXXXXXXoooo    ooooXXXXXXXXXXXXXXXXXXXXXXXXXXXX    ....    XXXXXXXXXXXXXXXX....",
"....XXXXXXXXXXXXXXXXXXXXXXXX    XXXXXXXXXXXXXXXXXXXXXXXXoooo    ooooXXXXXXXXXXXXXXXXXXXXXXXXXXXX    ....    XXXXXXXXXXXXXXXX....",
"....XXXXXXXXXXXXXXXXXXXX    ....    XXXXXXXXXXXXXXXXoooo    ....    ooooXXXXXXXXXXXXXXXXXXXXXXXX    ....    XXXXXXXXXXXXXXXX....",
"....XXXXXXXXXXXXXXXXXXXX    ....    XXXXXXXXXXXXXXXXoooo    ....    ooooXXXXXXXXXXXXXXXXXXXXXXXX    ....    XXXXXXXXXXXXXXXX....",
"....XXXXXXXXXXXXXXXXXXXX    ....    XXXXXXXXXXXXXXXXoooo    ....    ooooXXXXXXXXXXXXXXXXXXXXXXXX    ....    XXXXXXXXXXXXXXXX....",
"....XXXXXXXXXXXXXXXXXXXX    ....    XXXXXXXXXXXXXXXXoooo    ....    ooooXXXXXXXXXXXXXXXXXXXXXXXX    ....    XXXXXXXXXXXXXXXX....",
"....XXXXXXXXXXXXXXXXXXXX    ....    XXXXXXXXXXXXoooo    ........    ooooXXXXXXXXXXXXXXXXXXXX    ........    XXXXXXXXXXXXXXXX....",
"....XXXXXXXXXXXXXXXXXXXX    ....    XXXXXXXXXXXXoooo    ........    ooooXXXXXXXXXXXXXXXXXXXX    ........    XXXXXXXXXXXXXXXX....",
"....XXXXXXXXXXXXXXXXXXXX    ....    XXXXXXXXXXXXoooo    ........    ooooXXXXXXXXXXXXXXXXXXXX    ........    XXXXXXXXXXXXXXXX....",
"....XXXXXXXXXXXXXXXXXXXX    ....    XXXXXXXXXXXXoooo    ........    ooooXXXXXXXXXXXXXXXXXXXX    ........    XXXXXXXXXXXXXXXX....",
"....XXXXXXXXXXXXXXXX        ....        XXXXXXXXoooo    ........    ooooXXXXXXXXXXXXXXXXXXXX    ........    XXXXXXXXXXXXXXXX....",
"....XXXXXXXXXXXXXXXX        ....        XXXXXXXXoooo    ........    ooooXXXXXXXXXXXXXXXXXXXX    ........    XXXXXXXXXXXXXXXX....",
"....XXXXXXXXXXXXXXXX        ....        XXXXXXXXoooo    ........    ooooXXXXXXXXXXXXXXXXXXXX    ........    XXXXXXXXXXXXXXXX....",
"....XXXXXXXXXXXXXXXX        ....        XXXXXXXXoooo    ........    ooooXXXXXXXXXXXXXXXXXXXX    ........    XXXXXXXXXXXXXXXX....",
"....XXXXXXXXXXXXXXXX    ............    XXXXXXXXoooo    ........    ooooXXXXXXXXXXXXXXXXXXXX    ............    XXXXXXXXXXXX....",
"....XXXXXXXXXXXXXXXX    ............    XXXXXXXXoooo    ........    ooooXXXXXXXXXXXXXXXXXXXX    ............    XXXXXXXXXXXX....",
"....XXXXXXXXXXXXXXXX    ............    XXXXXXXXoooo    ........    ooooXXXXXXXXXXXXXXXXXXXX    ............    XXXXXXXXXXXX....",
"....XXXXXXXXXXXXXXXX    ............    XXXXXXXXoooo    ........    ooooXXXXXXXXXXXXXXXXXXXX    ............    XXXXXXXXXXXX....",
"....XXXXXXXXXXXX        ............    XXXXXXXXoooo    ............    ooooXXXXXXXXXXXXXXXX    ............    XXXXXXXXXXXX....",
"....XXXXXXXXXXXX        ............    XXXXXXXXoooo    ............    ooooXXXXXXXXXXXXXXXX    ............    XXXXXXXXXXXX....",
"....XXXXXXXXXXXX        ............    XXXXXXXXoooo    ............    ooooXXXXXXXXXXXXXXXX    ............    XXXXXXXXXXXX....",
"....XXXXXXXXXXXX        ............    XXXXXXXXoooo    ............    ooooXXXXXXXXXXXXXXXX    ............    XXXXXXXXXXXX....",
"....XXXXXXXXXXXX    ............    XXXXXXXXXXXXoooo    ............    ooooXXXXXXXXXXXX    ................    XXXXXXXXXXXX....",
"....XXXXXXXXXXXX    ............    XXXXXXXXXXXXoooo    ............    ooooXXXXXXXXXXXX    ................    XXXXXXXXXXXX....",
"....XXXXXXXXXXXX    ............    XXXXXXXXXXXXoooo    ............    ooooXXXXXXXXXXXX    ................    XXXXXXXXXXXX....",
"....XXXXXXXXXXXX    ............    XXXXXXXXXXXXoooo    ............    ooooXXXXXXXXXXXX    ................    XXXXXXXXXXXX....",
"....XXXXXXXX        ............    XXXXXXXXXXXXoooo    ................    ooooXXXXXXXX    ....................    XXXXXXXX....",
"....XXXXXXXX        ............    XXXXXXXXXXXXoooo    ................    ooooXXXXXXXX    ....................    XXXXXXXX....",
"....XXXXXXXX        ............    XXXXXXXXXXXXoooo    ................    ooooXXXXXXXX    ....................    XXXXXXXX....",
"....XXXXXXXX        ............    XXXXXXXXXXXXoooo    ................    ooooXXXXXXXX    ....................    XXXXXXXX....",
"....XXXXXXXXXXXXXXXXXXXXXXXXXXXXXXXXXXXXXXXXXXXXXXXXXXXXXXXXXXXXXXXXXXXXXXXXXXXXXXXXXXXXXXXXXXXXXXXXooooXXXXXXXXXXXXXXXXXXXX....",
"....XXXXXXXXXXXXXXXXXXXXXXXXXXXXXXXXXXXXXXXXXXXXXXXXXXXXXXXXXXXXXXXXXXXXXXXXXXXXXXXXXXXXXXXXXXXXXXXXooooXXXXXXXXXXXXXXXXXXXX....",
"....XXXXXXXXXXXXXXXXXXXXXXXXXXXXXXXXXXXXXXXXXXXXXXXXXXXXXXXXXXXXXXXXXXXXXXXXXXXXXXXXXXXXXXXXXXXXXXXXooooXXXXXXXXXXXXXXXXXXXX....",
"....XXXXXXXXXXXXXXXXXXXXXXXXXXXXXXXXXXXXXXXXXXXXXXXXXXXXXXXXXXXXXXXXXXXXXXXXXXXXXXXXXXXXXXXXXXXXXXXXooooXXXXXXXXXXXXXXXXXXXX....",
"....XXXXXXXXXXXXXXXXXXXXooooXXXXXXXXXXXXXXXXXXXXXXXXXXXXXXXX    XXXXXXXXXXXXXXXXXXXXXXXXXXXXXXXXoooo    ooooXXXXXXXXXXXXXXXX....",
"....XXXXXXXXXXXXXXXXXXXXooooXXXXXXXXXXXXXXXXXXXXXXXXXXXXXXXX    XXXXXXXXXXXXXXXXXXXXXXXXXXXXXXXXoooo    ooooXXXXXXXXXXXXXXXX....",
"....XXXXXXXXXXXXXXXXXXXXooooXXXXXXXXXXXXXXXXXXXXXXXXXXXXXXXX    XXXXXXXXXXXXXXXXXXXXXXXXXXXXXXXXoooo    ooooXXXXXXXXXXXXXXXX....",
"....XXXXXXXXXXXXXXXXXXXXooooXXXXXXXXXXXXXXXXXXXXXXXXXXXXXXXX    XXXXXXXXXXXXXXXXXXXXXXXXXXXXXXXXoooo    ooooXXXXXXXXXXXXXXXX....",
"....XXXXXXXXXXXXXXXXoooo    ooooXXXXXXXXXXXXXXXXXXXXXXXXXXXX    XXXXXXXXXXXXXXXXXXXXXXXXXXXXXXXXoooo        ooooXXXXXXXXXXXX....",
"....XXXXXXXXXXXXXXXXoooo    ooooXXXXXXXXXXXXXXXXXXXXXXXXXXXX    XXXXXXXXXXXXXXXXXXXXXXXXXXXXXXXXoooo        ooooXXXXXXXXXXXX....",
"....XXXXXXXXXXXXXXXXoooo    ooooXXXXXXXXXXXXXXXXXXXXXXXXXXXX    XXXXXXXXXXXXXXXXXXXXXXXXXXXXXXXXoooo        ooooXXXXXXXXXXXX....",
"....XXXXXXXXXXXXXXXXoooo    ooooXXXXXXXXXXXXXXXXXXXXXXXXXXXX    XXXXXXXXXXXXXXXXXXXXXXXXXXXXXXXXoooo        ooooXXXXXXXXXXXX....",
"....XXXXXXXXXXXXoooo        ooooXXXXXXXXXXXXXXXXXXXXXXXXXXXX        XXXXXXXXXXXXXXXXXXXXXXXXXXXXoooo    ....    ooooXXXXXXXX....",
"....XXXXXXXXXXXXoooo        ooooXXXXXXXXXXXXXXXXXXXXXXXXXXXX        XXXXXXXXXXXXXXXXXXXXXXXXXXXXoooo    ....    ooooXXXXXXXX....",
"....XXXXXXXXXXXXoooo        ooooXXXXXXXXXXXXXXXXXXXXXXXXXXXX        XXXXXXXXXXXXXXXXXXXXXXXXXXXXoooo    ....    ooooXXXXXXXX....",
"....XXXXXXXXXXXXoooo        ooooXXXXXXXXXXXXXXXXXXXXXXXXXXXX        XXXXXXXXXXXXXXXXXXXXXXXXXXXXoooo    ....    ooooXXXXXXXX....",
"....XXXXXXXXoooo    ....    ooooXXXXXXXXXXXXXXXXXXXXXXXXXXXX    ....    XXXXXXXXXXXXXXXXXXXXXXXXoooo    ....    ooooXXXXXXXX....",
"....XXXXXXXXoooo    ....    ooooXXXXXXXXXXXXXXXXXXXXXXXXXXXX    ....    XXXXXXXXXXXXXXXXXXXXXXXXoooo    ....    ooooXXXXXXXX....",
"....XXXXXXXXoooo    ....    ooooXXXXXXXXXXXXXXXXXXXXXXXXXXXX    ....    XXXXXXXXXXXXXXXXXXXXXXXXoooo    ....    ooooXXXXXXXX....",
"....XXXXXXXXoooo    ....    ooooXXXXXXXXXXXXXXXXXXXXXXXXXXXX    ....    XXXXXXXXXXXXXXXXXXXXXXXXoooo    ....    ooooXXXXXXXX....",
"....XXXXoooo    ............    ooooXXXXXXXXXXXXXXXXXXXXXXXX    ....    XXXXXXXXXXXXXXXXXXXXoooo    ........    ooooXXXXXXXX....",
"....XXXXoooo    ............    ooooXXXXXXXXXXXXXXXXXXXXXXXX    ....    XXXXXXXXXXXXXXXXXXXXoooo    ........    ooooXXXXXXXX....",
"....XXXXoooo    ............    ooooXXXXXXXXXXXXXXXXXXXXXXXX    ....    XXXXXXXXXXXXXXXXXXXXoooo    ........    ooooXXXXXXXX....",
"....XXXXoooo    ............    ooooXXXXXXXXXXXXXXXXXXXXXXXX    ....    XXXXXXXXXXXXXXXXXXXXoooo    ........    ooooXXXXXXXX....",
"....XXXXoooo    ............    ooooXXXXXXXXXXXXXXXXXXXX    ........    XXXXXXXXXXXXXXXXXXXXoooo    ............    ooooXXXX....",
"....XXXXoooo    ............    ooooXXXXXXXXXXXXXXXXXXXX    ........    XXXXXXXXXXXXXXXXXXXXoooo    ............    ooooXXXX....",
"....XXXXoooo    ............    ooooXXXXXXXXXXXXXXXXXXXX    ........    XXXXXXXXXXXXXXXXXXXXoooo    ............    ooooXXXX....",
"....XXXXoooo    ............    ooooXXXXXXXXXXXXXXXXXXXX    ........    XXXXXXXXXXXXXXXXXXXXoooo    ............    ooooXXXX....",
"....oooo    ....................    ooooXXXXXXXXXXXXXXXX    ............    XXXXXXXXXXXXXXXXoooo    ............    ooooXXXX....",
"....oooo    ....................    ooooXXXXXXXXXXXXXXXX    ............    XXXXXXXXXXXXXXXXoooo    ............    ooooXXXX....",
"....oooo    ....................    ooooXXXXXXXXXXXXXXXX    ............    XXXXXXXXXXXXXXXXoooo    ............    ooooXXXX....",
"....oooo    ....................    ooooXXXXXXXXXXXXXXXX    ............    XXXXXXXXXXXXXXXXoooo    ............    ooooXXXX....",
"....oooo    ....................    ooooXXXXXXXXXXXX    ................    XXXXXXXXXXXXoooo    ....................    oooo....",
"....oooo    ....................    ooooXXXXXXXXXXXX    ................    XXXXXXXXXXXXoooo    ....................    oooo....",
"....oooo    ....................    ooooXXXXXXXXXXXX    ................    XXXXXXXXXXXXoooo    ....................    oooo....",
"....oooo    ....................    ooooXXXXXXXXXXXX    ................    XXXXXXXXXXXXoooo    ....................    oooo....",
"....oooo    ........................    ooooXXXX    ....................    XXXXXXXXXXXXoooo    ....................    XXXX....",
"....oooo    ........................    ooooXXXX    ....................    XXXXXXXXXXXXoooo    ....................    XXXX....",
"....oooo    ........................    ooooXXXX    ....................    XXXXXXXXXXXXoooo    ....................    XXXX....",
"....oooo    ........................    ooooXXXX    ....................    XXXXXXXXXXXXoooo    ....................    XXXX....",
"....XXXXXXXXXXXXXXXXXXXXXXXXXXXXXXXXXXXXXXXXXXXXXXXXXXXXXXXXXXXXXXXXXXXXXXXXXXXXXXXXXXXXXXXXXXXXXXXXXXXXXXXXXXXXXXXXXXXXXXXX....",
"....XXXXXXXXXXXXXXXXXXXXXXXXXXXXXXXXXXXXXXXXXXXXXXXXXXXXXXXXXXXXXXXXXXXXXXXXXXXXXXXXXXXXXXXXXXXXXXXXXXXXXXXXXXXXXXXXXXXXXXXX....",
"....XXXXXXXXXXXXXXXXXXXXXXXXXXXXXXXXXXXXXXXXXXXXXXXXXXXXXXXXXXXXXXXXXXXXXXXXXXXXXXXXXXXXXXXXXXXXXXXXXXXXXXXXXXXXXXXXXXXXXXXX....",
"....XXXXXXXXXXXXXXXXXXXXXXXXXXXXXXXXXXXXXXXXXXXXXXXXXXXXXXXXXXXXXXXXXXXXXXXXXXXXXXXXXXXXXXXXXXXXXXXXXXXXXXXXXXXXXXXXXXXXXXXX....",
"....XXXXXXXXXXXXXXXXXXXXXXXXXXXXXXXXXXXXXXXXXXXXXXXXXXXXXXXXXXXXooooXXXXXXXXXXXXXXXXXXXXXXXXXXXXXXXXXXXXXXXXXXXXXXXXXXXXXXXX....",
"....XXXXXXXXXXXXXXXXXXXXXXXXXXXXXXXXXXXXXXXXXXXXXXXXXXXXXXXXXXXXooooXXXXXXXXXXXXXXXXXXXXXXXXXXXXXXXXXXXXXXXXXXXXXXXXXXXXXXXX....",
"....XXXXXXXXXXXXXXXXXXXXXXXXXXXXXXXXXXXXXXXXXXXXXXXXXXXXXXXXXXXXooooXXXXXXXXXXXXXXXXXXXXXXXXXXXXXXXXXXXXXXXXXXXXXXXXXXXXXXXX....",
"....XXXXXXXXXXXXXXXXXXXXXXXXXXXXXXXXXXXXXXXXXXXXXXXXXXXXXXXXXXXXooooXXXXXXXXXXXXXXXXXXXXXXXXXXXXXXXXXXXXXXXXXXXXXXXXXXXXXXXX....",
"....XXXXXXXXXXXXXXXXXXXX    XXXXXXXXXXXXXXXXXXXXXXXXXXXXXXXXoooo    ooooXXXXXXXXXXXXXXXXXXXXXXXXXXXX    XXXXXXXXXXXXXXXXXXXX....",
"....XXXXXXXXXXXXXXXXXXXX    XXXXXXXXXXXXXXXXXXXXXXXXXXXXXXXXoooo    ooooXXXXXXXXXXXXXXXXXXXXXXXXXXXX    XXXXXXXXXXXXXXXXXXXX....",
"....XXXXXXXXXXXXXXXXXXXX    XXXXXXXXXXXXXXXXXXXXXXXXXXXXXXXXoooo    ooooXXXXXXXXXXXXXXXXXXXXXXXXXXXX    XXXXXXXXXXXXXXXXXXXX....",
"....XXXXXXXXXXXXXXXXXXXX    XXXXXXXXXXXXXXXXXXXXXXXXXXXXXXXXoooo    ooooXXXXXXXXXXXXXXXXXXXXXXXXXXXX    XXXXXXXXXXXXXXXXXXXX....",
"....XXXXXXXXXXXXXXXXXXXX        XXXXXXXXXXXXXXXXXXXXXXXXoooo        ooooXXXXXXXXXXXXXXXXXXXXXXXX    ....    XXXXXXXXXXXXXXXX....",
"....XXXXXXXXXXXXXXXXXXXX        XXXXXXXXXXXXXXXXXXXXXXXXoooo        ooooXXXXXXXXXXXXXXXXXXXXXXXX    ....    XXXXXXXXXXXXXXXX....",
"....XXXXXXXXXXXXXXXXXXXX        XXXXXXXXXXXXXXXXXXXXXXXXoooo        ooooXXXXXXXXXXXXXXXXXXXXXXXX    ....    XXXXXXXXXXXXXXXX....",
"....XXXXXXXXXXXXXXXXXXXX        XXXXXXXXXXXXXXXXXXXXXXXXoooo        ooooXXXXXXXXXXXXXXXXXXXXXXXX    ....    XXXXXXXXXXXXXXXX....",
"....XXXXXXXXXXXXXXXXXXXX    ....    XXXXXXXXXXXXXXXXoooo    ....    ooooXXXXXXXXXXXXXXXXXXXXXXXX    ........    XXXXXXXXXXXX....",
"....XXXXXXXXXXXXXXXXXXXX    ....    XXXXXXXXXXXXXXXXoooo    ....    ooooXXXXXXXXXXXXXXXXXXXXXXXX    ........    XXXXXXXXXXXX....",
"....XXXXXXXXXXXXXXXXXXXX    ....    XXXXXXXXXXXXXXXXoooo    ....    ooooXXXXXXXXXXXXXXXXXXXXXXXX    ........    XXXXXXXXXXXX....",
"....XXXXXXXXXXXXXXXXXXXX    ....    XXXXXXXXXXXXXXXXoooo    ....    ooooXXXXXXXXXXXXXXXXXXXXXXXX    ........    XXXXXXXXXXXX....",
"....XXXXXXXXXXXXXXXX        ....    XXXXXXXXXXXXoooo    ........    ooooXXXXXXXXXXXXXXXXXXXXXXXX    ........    XXXXXXXXXXXX....",
"....XXXXXXXXXXXXXXXX        ....    XXXXXXXXXXXXoooo    ........    ooooXXXXXXXXXXXXXXXXXXXXXXXX    ........    XXXXXXXXXXXX....",
"....XXXXXXXXXXXXXXXX        ....    XXXXXXXXXXXXoooo    ........    ooooXXXXXXXXXXXXXXXXXXXXXXXX    ........    XXXXXXXXXXXX....",
"....XXXXXXXXXXXXXXXX        ....    XXXXXXXXXXXXoooo    ........    ooooXXXXXXXXXXXXXXXXXXXXXXXX    ........    XXXXXXXXXXXX....",
"....XXXXXXXXXXXXXXXX    ........    XXXXXXXXoooo    ............    ooooXXXXXXXXXXXXXXXXXXXXXXXX    ............    XXXXXXXX....",
"....XXXXXXXXXXXXXXXX    ........    XXXXXXXXoooo    ............    ooooXXXXXXXXXXXXXXXXXXXXXXXX    ............    XXXXXXXX....",
"....XXXXXXXXXXXXXXXX    ........    XXXXXXXXoooo    ............    ooooXXXXXXXXXXXXXXXXXXXXXXXX    ............    XXXXXXXX....",
"....XXXXXXXXXXXXXXXX    ........    XXXXXXXXoooo    ............    ooooXXXXXXXXXXXXXXXXXXXXXXXX    ............    XXXXXXXX....",
"....XXXXXXXXXXXX    ............    XXXXXXXXoooo    ............    ooooXXXXXXXXXXXXXXXXXXXXXXXX    ............    XXXXXXXX....",
"....XXXXXXXXXXXX    ............    XXXXXXXXoooo    ............    ooooXXXXXXXXXXXXXXXXXXXXXXXX    ............    XXXXXXXX....",
"....XXXXXXXXXXXX    ............    XXXXXXXXoooo    ............    ooooXXXXXXXXXXXXXXXXXXXXXXXX    ............    XXXXXXXX....",
"....XXXXXXXXXXXX    ............    XXXXXXXXoooo    ............    ooooXXXXXXXXXXXXXXXXXXXXXXXX    ............    XXXXXXXX....",
"....XXXXXXXX    ............    XXXXXXXXXXXXoooo        ............    ooooooooXXXXXXXXXXXX    ............    XXXXXXXXXXXX....",
"....XXXXXXXX    ............    XXXXXXXXXXXXoooo        ............    ooooooooXXXXXXXXXXXX    ............    XXXXXXXXXXXX....",
"....XXXXXXXX    ............    XXXXXXXXXXXXoooo        ............    ooooooooXXXXXXXXXXXX    ............    XXXXXXXXXXXX....",
"....XXXXXXXX    ............    XXXXXXXXXXXXoooo        ............    ooooooooXXXXXXXXXXXX    ............    XXXXXXXXXXXX....",
"....XXXXXXXX    ............    XXXXXXXXXXXXXXXXoooo    ................        ooooXXXX    ................    XXXXXXXXXXXX....",
"....XXXXXXXX    ............    XXXXXXXXXXXXXXXXoooo    ................        ooooXXXX    ................    XXXXXXXXXXXX....",
"....XXXXXXXX    ............    XXXXXXXXXXXXXXXXoooo    ................        ooooXXXX    ................    XXXXXXXXXXXX....",
"....XXXXXXXX    ............    XXXXXXXXXXXXXXXXoooo    ................        ooooXXXX    ................    XXXXXXXXXXXX....",
"....XXXXXXXXXXXXXXXXXXXXXXXXXXXXXXXXXXXXXXXXXXXXXXXXXXXXXXXXXXXXXXXXXXXXXXXXXXXXXXXXXXXXXXXXXXXXXXXXXXXXXXXXXXXXXXXXXXXXXXXX....",
"....XXXXXXXXXXXXXXXXXXXXXXXXXXXXXXXXXXXXXXXXXXXXXXXXXXXXXXXXXXXXXXXXXXXXXXXXXXXXXXXXXXXXXXXXXXXXXXXXXXXXXXXXXXXXXXXXXXXXXXXX....",
"....XXXXXXXXXXXXXXXXXXXXXXXXXXXXXXXXXXXXXXXXXXXXXXXXXXXXXXXXXXXXXXXXXXXXXXXXXXXXXXXXXXXXXXXXXXXXXXXXXXXXXXXXXXXXXXXXXXXXXXXX....",
"....XXXXXXXXXXXXXXXXXXXXXXXXXXXXXXXXXXXXXXXXXXXXXXXXXXXXXXXXXXXXXXXXXXXXXXXXXXXXXXXXXXXXXXXXXXXXXXXXXXXXXXXXXXXXXXXXXXXXXXXX....",
"................................................................................................................................",
"................................................................................................................................",
"................................................................................................................................",
"................................................................................................................................"
};
