/* XPM */
static char *_eec7517d114496791a78ca4ed5a403ftSxdZTDaG8sTASUL[] = {
/* columns rows colors chars-per-pixel */
"128 128 4 1 ",
"  c black",
". c #FC0000",
"X c #884C00",
"o c #D97C2D",
/* pixels */
"oooooooooooooooooooooooooooooooooooooooooooooooooooooooooooooooooooooooooooooooooooooooooooooooooooooooooooooooooooooooooooooooo",
"oooooooooooooooooooooooooooooooooooooooooooooooooooooooooooooooooooooooooooooooooooooooooooooooooooooooooooooooooooooooooooooooo",
"oooooooooooooooooooooooooooooooooooooooooooooooooooooooooooooooooooooooooooooooooooooooooooooooooooooooooooooooooooooooooooooooo",
"oooooooooooooooooooooooooooooooooooooooooooooooooooooooooooooooooooooooooooooooooooooooooooooooooooooooooooooooooooooooooooooooo",
"oooooooooooooooooooooooooooooooooooooooooooooooooooooooooooooooooooooooooooooooooooooooooooooooooooooooooooooooooooooooooooooooo",
"oooooooooooooooooooooooooooooooooooooooooooooooooooooooooooooooooooooooooooooooooooooooooooooooooooooooooooooooooooooooooooooooo",
"oooooooooooooooooooooooooooooooooooooooooooooooooooooooooooooooooooooooooooooooooooooooooooooooooooooooooooooooooooooooooooooooo",
"oooooooooooooooooooooooooooooooooooooooooooooooooooooooooooooooooooooooooooooooooooooooooooooooooooooooooooooooooooooooooooooooo",
"oooooooooooooooooooooooooooooooooooooooooooooooooooooooooooooooooooooooooooooooooooooooooooooooooooooooooooooooooooooooooooooooo",
"oooooooooooooooooooooooooooooooooooooooooooooooooooooooooooooooooooooooooooooooooooooooooooooooooooooooooooooooooooooooooooooooo",
"oooooooooooooooooooooooooooooooooooooooooooooooooooooooooooooooooooooooooooooooooooooooooooooooooooooooooooooooooooooooooooooooo",
"oooooooooooooooooooooooooooooooooooooooooooooooooooooooooooooooooooooooooooooooooooooooooooooooooooooooooooooooooooooooooooooooo",
"ooooooooooooooooXXXXooooooooooooooooooooooooXXXXoooooooooooooooooooooooooooooooooooooooooooooooooooooooooooooooooooooooooooooooo",
"ooooooooooooooooXXXXooooooooooooooooooooooooXXXXoooooooooooooooooooooooooooooooooooooooooooooooooooooooooooooooooooooooooooooooo",
"ooooooooooooooooXXXXooooooooooooooooooooooooXXXXoooooooooooooooooooooooooooooooooooooooooooooooooooooooooooooooooooooooooooooooo",
"ooooooooooooooooXXXXooooooooooooooooooooooooXXXXoooooooooooooooooooooooooooooooooooooooooooooooooooooooooooooooooooooooooooooooo",
"ooooooooooooXXXXooooooooooooooooooooooooooooooooXXXXooooooo              XXXoooooooooooooooooooooooooooooooooooooooooooooooooooo",
"ooooooooooooXXXXooooooooooooooooooooooooooooooooXXXXoo                        oooooooooooooooooooooooooooooooooooooooooooooooooo",
"ooooooooooooXXXXooooooooooooooooooooooooooooooooXX                                oooooooooooooooooooooooooooooooooooooooooooooo",
"ooooooooooooXXXXoooooooooooooooooooooooooooooooo                                    oooooooooooooooooooooooooooooooooooooooooooo",
"ooooooooooooXXXXooooooooooooooooooooooooooooo              ..............              oooooooooooooooooXXXXoooooooooooooooooooo",
"ooooooooooooXXXXooooooooooooooooooooooooooo           ........................           oooooooooooooooXXXXoooooooooooooooooooo",
"ooooooooooooXXXXoooooooooooooooooooooooooo         ..............................         ooooooooooooooXXXXoooooooooooooooooooo",
"ooooooooooooXXXXoooooooooooooooooooooooo        ....................................        ooooooooooooXXXXoooooooooooooooooooo",
"oooooooooooooooooooooooooooooooooooooo        ........................................        ooooooXXXXoooooooooooooooooooooooo",
"ooooooooooooooooooooooooooooooooooooo       ............................................       oooooXXXXoooooooooooooooooooooooo",
"oooooooooooooooooooooooooooooooooooo       ..............................................       ooooXXXXoooooooooooooooooooooooo",
"ooooooooooooooooooooooooooooooooooo      ..................................................      oooXXXXoooooooooooooooooooooooo",
"ooooooooooooooooooooooooooooooooo       ....................................................       oXXXXoooooooooooooooooooooooo",
"oooooooooooooooooooooooooooooooo      ........................................................      XXXXoooooooooooooooooooooooo",
"ooooooooooooooooooooooooooooooo      ..........................................................      XXXoooooooooooooooooooooooo",
"oooooooooooooooooooooooooooooo      ............................................................      XXoooooooooooooooooooooooo",
"oooooooooooooooooooooooooooooo     ..............................................................     oooooooooooooooooooooooooo",
"ooooooooooooooooooooooooooooo     ................................................................     ooooooooooooooooooooooooo",
"oooooooooooooooooooooooooooo     ..................................................................     oooooooooooooooooooooooo",
"ooooooooooooooooooooooooooo     ....................................................................     ooooooooooooooooooooooo",
"ooooooooooooooooooooXXXXoo     ......................................................................     oooooooooooooooooooooo",
"ooooooooooooooooooooXXXXoo     .......    ..............................................    .........     oooooooooooooooooooooo",
"ooooooooooooooooooooXXXXo     ........     ............................................     ..........     ooooooooooooooooooooo",
"ooooooooooooooooooooXXXXo    .........       ........................................       ...........    ooooooooooooooooooooo",
"ooooooooooooooooooooXXXX     .........        ......................................        ...........     oooooooooooooooooooo",
"ooooooooooooooooooooXXX     ...........        ....................................        .............     ooooooooooooooooooo",
"ooooooooooooooooooooXXX    .............       ....................................       ...............    ooooooooooooooooooo",
"ooooooooooooooooooooXX     ...............       ................................       .................     oooooooooooooooooo",
"ooooooooooooooooooooXX    .................       ..............................       ...................    oooooooooooooooooo",
"ooooooooooooooooooooXX    .................         ..........................         ...................    oooooooooooooooooo",
"ooooooooooooooooooooX    ...................         ........................         .....................    ooooooooooooooooo",
"ooooooooooooooooooooX    .....................        ......................        .......................    ooooooooooooooooo",
"oooooooooooooooooooo     ......................         ..................         ........................     oooooooooooooooo",
"oooooooooooooooooooo    .........................         ..............         ...........................    oooooooooooooooo",
"oooooooooooooooooooo    ..........................          ..........          ............................    oooooooooooooooo",
"oooooooooooooooooooo    ...........................         ..........         .............................    oooooooooooooooo",
"ooooooooooooooooooo    .............................        ..........        ...............................    ooooooooooooooo",
"ooooooooooooooooooo    ................................     ..........     ..................................    ooooooooooooooo",
"ooooooooooooooooooo    .................................    ..........    ...................................    ooooooooooooooo",
"ooooooooooooooooooo    ......................................................................................    ooooooooooooooo",
"ooooooooooooooooooo    ......................................................................................    XXXoooooooooooo",
"oooooooooooooooooo    ........................................................................................    XXoooooooooooo",
"oooooooooooooooooo    ........................................................................................    XXoooooooooooo",
"oooooooooooooooooo    ........................................................................................    XXoooooooooooo",
"ooooooooooooXXXXoo    ........................................................................................    XXoooooooooooo",
"ooooooooooooXXXXoo    ........................................................................................    XXoooooooooooo",
"ooooooooooooXXXXoo    ........................................................................................    XXoooooooooooo",
"ooooooooooooXXXXoo    ........................................................................................    XXoooooooooooo",
"ooooooooXXXXoooooo    ........................................................................................    oooooooooooooo",
"ooooooooXXXXoooooo    ........................................................................................    oooooooooooooo",
"ooooooooXXXXoooooo    ........................................................................................    oooooooooooooo",
"ooooooooXXXXoooooo    ........................................................................................    oooooooooooooo",
"ooooooooXXXXoooooo    ........................................................................................    oooooooooooooo",
"ooooooooXXXXoooooo    ........................................................................................    oooooooooooooo",
"ooooooooXXXXoooooo    ........................................................................................    oooooooooooooo",
"ooooooooXXXXooooooo    ......................................................................................    ooooooooooooooo",
"ooooooooooooooooooo    ......................................................................................    ooooooooooooooo",
"ooooooooooooooooooo    ......................................        ........................................    ooooooooooooooo",
"ooooooooooooooooooo    ....................................            ......................................    ooooooooooooooo",
"ooooooooooooooooooo    ...................................              .....................................    ooooooooooooooo",
"oooooooooooooooooooo    .................................               ....................................    oooooooooooooooo",
"oooooooooooooooooooo    .................................                ...................................    oooooooooooooooo",
"oooooooooooooooooooo    ................................                 ...................................    oooooooooooooooo",
"oooooooooooooooooooo     ...............................                  .................................     oooooooooooooooo",
"ooooooooooooooooooooo    ...............................                  .................................    ooooooooooooooooo",
"ooooooooooooooooooooo    ...............................                  .................................    ooooooooooooooooo",
"oooooooooooooooooooooo    ..............................                  ................................    oooooooooooooooooo",
"oooooooooooooooooooooo    ..............................                  ................................    oooooooooooooooooo",
"oooooooooooooooooooooo     .............................                  ...............................     oooooooooooooooooo",
"ooooooooooooooooooooooo    ..............................                ................................    ooooooooooooooooooo",
"ooooooooooooooooooooooo     ..............................               ...............................     ooooooooooooooooooo",
"oooooooooooooooooooooooo     .............................              ...............................     oooooooooooooooooooo",
"ooooooooooooooooooooooooo    ..............................            ................................    ooooooooooooooooooooo",
"ooooooooooooooooooooooooo     ...............................         ................................     ooooooooooooooooooooo",
"oooooooooooooooooooooooooo     ......................................................................     oooooooooooooooooooooo",
"oooooooooooooooooooooooooo     ......................................................................     oooooooooooooooooooooo",
"ooooooooooooooooXXXXooooooo     ....................................................................     ooooooooooooooooooooooo",
"ooooooooooooooooXXXXoooooooo     ..................................................................     oooooooooooooooooooooooo",
"ooooooooooooooooXXXXooooooooo     ................................................................     ooooooooooooooooooooooooo",
"ooooooooooooooooXXXXoooooooooo     ..............................................................     oooooooooooooooooooooooooo",
"ooooooooooooooooooooXXXXoooooo      ............................................................      oooooooooooooooooooooooooo",
"ooooooooooooooooooooXXXXooooooo      ..........................................................      ooooooooooooooooooooooooooo",
"ooooooooooooooooooooXXXXoooooooo      ........................................................      oooooooooooooooooooooooooooo",
"ooooooooooooooooooooXXXXooooooooo       ....................................................       ooooooooooooooooooooooooooooo",
"ooooooooooooooooooooXXXXooooooooooo      ..................................................      ooooooooooooooooooooooooooooooo",
"ooooooooooooooooooooXXXXoooooooooooo       ..............................................       oooooooooooooooooooooooooooooooo",
"ooooooooooooooooooooXXXXooooooooooooo       ............................................       ooooooooooooooooooooooooooooooooo",
"ooooooooooooooooooooXXXXoooooooooooooo        ........................................        oooooooooooooooooooooooooooooooooo",
"oooooooooooooooooooooooooooooooooooooooo        ....................................        ooooooooooooooooooooXXXXoooooooooooo",
"oooooooooooooooooooooooooooooooooooooooooo         ..............................         XXooooooooooooooooooooXXXXoooooooooooo",
"ooooooooooooooooooooooooooooooooooooooooooo           ........................           XXXooooooooooooooooooooXXXXoooooooooooo",
"ooooooooooooooooooooooooooooooooooooooooooooo              ..............              oXXXXooooooooooooooooooooXXXXoooooooooooo",
"ooooooooooooooooooooooooooooooooXXXXoooooooooooo                                    ooooXXXXooooooooooooooooooooooooXXXXoooooooo",
"ooooooooooooooooooooooooooooooooXXXXoooooooooooooo                                ooooooXXXXooooooooooooooooooooooooXXXXoooooooo",
"ooooooooooooooooooooooooooooooooXXXXoooooooooooooooooo                        ooooooooooXXXXooooooooooooooooooooooooXXXXoooooooo",
"ooooooooooooooooooooooooooooooooXXXXooooooooooooooooooooooo              oooooooooooooooXXXXooooooooooooooooooooooooXXXXoooooooo",
"ooooooooooooooooooooooooooooXXXXooooooooooooooooooooooooooooXXXXooooooooooooooooooooooooXXXXooooooooooooooooooooooooXXXXoooooooo",
"ooooooooooooooooooooooooooooXXXXooooooooooooooooooooooooooooXXXXooooooooooooooooooooooooXXXXooooooooooooooooooooooooXXXXoooooooo",
"ooooooooooooooooooooooooooooXXXXooooooooooooooooooooooooooooXXXXooooooooooooooooooooooooXXXXooooooooooooooooooooooooXXXXoooooooo",
"ooooooooooooooooooooooooooooXXXXooooooooooooooooooooooooooooXXXXooooooooooooooooooooooooXXXXooooooooooooooooooooooooXXXXoooooooo",
"ooooooooooooooooooooooooooooXXXXoooooooooooooooooooooooooooooooooooooooooooooooooooooooooooooooooooooooooooooooooooooooooooooooo",
"ooooooooooooooooooooooooooooXXXXoooooooooooooooooooooooooooooooooooooooooooooooooooooooooooooooooooooooooooooooooooooooooooooooo",
"ooooooooooooooooooooooooooooXXXXoooooooooooooooooooooooooooooooooooooooooooooooooooooooooooooooooooooooooooooooooooooooooooooooo",
"ooooooooooooooooooooooooooooXXXXoooooooooooooooooooooooooooooooooooooooooooooooooooooooooooooooooooooooooooooooooooooooooooooooo",
"oooooooooooooooooooooooooooooooooooooooooooooooooooooooooooooooooooooooooooooooooooooooooooooooooooooooooooooooooooooooooooooooo",
"oooooooooooooooooooooooooooooooooooooooooooooooooooooooooooooooooooooooooooooooooooooooooooooooooooooooooooooooooooooooooooooooo",
"oooooooooooooooooooooooooooooooooooooooooooooooooooooooooooooooooooooooooooooooooooooooooooooooooooooooooooooooooooooooooooooooo",
"oooooooooooooooooooooooooooooooooooooooooooooooooooooooooooooooooooooooooooooooooooooooooooooooooooooooooooooooooooooooooooooooo",
"oooooooooooooooooooooooooooooooooooooooooooooooooooooooooooooooooooooooooooooooooooooooooooooooooooooooooooooooooooooooooooooooo",
"oooooooooooooooooooooooooooooooooooooooooooooooooooooooooooooooooooooooooooooooooooooooooooooooooooooooooooooooooooooooooooooooo",
"oooooooooooooooooooooooooooooooooooooooooooooooooooooooooooooooooooooooooooooooooooooooooooooooooooooooooooooooooooooooooooooooo",
"oooooooooooooooooooooooooooooooooooooooooooooooooooooooooooooooooooooooooooooooooooooooooooooooooooooooooooooooooooooooooooooooo"
};
