/* XPM */
static char *_6dec33da4f44236940d6845694e8596NJBXUWT9AEizlau9[] = {
/* columns rows colors chars-per-pixel */
"128 128 4 1 ",
"  c black",
". c #7E501E",
"X c #CA7F42",
"o c #0D71D9",
/* pixels */
"XXXXXXXXXXXXXXXXXXXXXXXXXXXXXXXXXXXXXXXXXXXXXXXXXXXXXXXXXXXXXXXXXXXXXXXXXXXXXXXXXXXXXXXXXXXXXXXXXXXXXXXXXXXXXXXXXXXXXXXXXXXXXXXX",
"XXXXXXXXXXXXXXXXXXXXXXXXXXXXXXXXXXXXXXXXXXXXXXXXXXXXXXXXXXXXXXXXXXXXXXXXXXXXXXXXXXXXXXXXXXXXXXXXXXXXXXXXXXXXXXXXXXXXXXXXXXXXXXXX",
"XXXXXXXXXXXXXXXXXXXXXXXXXXXXXXXXXXXXXXXXXXXXXXXXXXXXXXXXXXXXXXXXXXXXXXXXXXXXXXXXXXXXXXXXXXXXXXXXXXXXXXXXXXXXXXXXXXXXXXXXXXXXXXXX",
"XXXXXXXXXXXXXXXXXXXXXXXXXXXXXXXXXXXXXXXXXXXXXXXXXXXXXXXXXXXXXXXXXXXXXXXXXXXXXXXXXXXXXXXXXXXXXXXXXXXXXXXXXXXXXXXXXXXXXXXXXXXXXXXX",
"XXXXXXXXXXXXXXXXXXXXXXXXXXXXXXXXXXXXXXXXXXXXXXXXXXXXXXXXXXXXXXXXXXXXXXXXXXXXXXXXXXXXXXXXXXXXXXXXXXXXXXXXXXXXXXXXXXXXXXXXXXXXXXXX",
"XXXXXXXXXXXXXXXXXXXXXXXXXXXXXXXXXXXXXXXXXXXXXXXXXXXXXXXXXXXXXXXXXXXXXXXXXXXXXXXXXXXXXXXXXXXXXXXXXXXXXXXXXXXXXXXXXXXXXXXXXXXXXXXX",
"XXXXXXXXXXXXXXXXXXXXXXXXXXXXXXXXXXXXXXXXXXXXXXXXXXXXXXXXXXXXXXXXXXXXXXXXXXXXXXXXXXXXXXXXXXXXXXXXXXXXXXXXXXXXXXXXXXXXXXXXXXXXXXXX",
"XXXXXXXXXXXXXXXXXXXXXXXXXXXXXXXXXXXXXXXXXXXXXXXXXXXXXXXXXXXXXXXXXXXXXXXXXXXXXXXXXXXXXXXXXXXXXXXXXXXXXXXXXXXXXXXXXXXXXXXXXXXXXXXX",
"XXXXXXXXXXXXXXXXXXXXXXXXXXXXXXXXXXXXXXXXXXXXXXXXXXXXXXXXXXXXXXXXXXXXXXXXXXXXXXXXXXXXXXXXXXXXXXXXXXXXXXXXXXXXXXXXXXXXXXXXXXXXXXXX",
"XXXXXXXXXXXXXXXXXXXXXXXXXXXXXXXXXXXXXXXXXXXXXXXXXXXXXXXXXXXXXXXXXXXXXXXXXXXXXXXXXXXXXXXXXXXXXXXXXXXXXXXXXXXXXXXXXXXXXXXXXXXXXXXX",
"XXXXXXXXXXXXXXXXXXXXXXXXXXXXXXXXXXXXXXXXXXXXXXXXXXXXXXXXXXXXXXXXXXXXXXXXXXXXXXXXXXXXXXXXXXXXXXXXXXXXXXXXXXXXXXXXXXXXXXXXXXXXXXXX",
"XXXXXXXXXXXXXXXXXXXXXXXXXXXXXXXXXXXXXXXXXXXXXXXXXXXXXXXXXXXXXXXXXXXXXXXXXXXXXXXXXXXXXXXXXXXXXXXXXXXXXXXXXXXXXXXXXXXXXXXXXXXXXXXX",
"XXXXXXXXXXXXXXXX....XXXXXXXXXXXXXXXXXXXXXXXX....XXXXXXXXXXXXXXXXXXXXXXXXXXXXXXXXXXXXXXXXXXXXXXXXXXXXXXXXXXXXXXXXXXXXXXXXXXXXXXXX",
"XXXXXXXXXXXXXXXX....XXXXXXXXXXXXXXXXXXXXXXXX....XXXXXXXXXXXXXXXXXXXXXXXXXXXXXXXXXXXXXXXXXXXXXXXXXXXXXXXXXXXXXXXXXXXXXXXXXXXXXXXX",
"XXXXXXXXXXXXXXXX....XXXXXXXXXXXXXXXXXXXXXXXX....XXXXXXXXXXXXXXXXXXXXXXXXXXXXXXXXXXXXXXXXXXXXXXXXXXXXXXXXXXXXXXXXXXXXXXXXXXXXXXXX",
"XXXXXXXXXXXXXXXX....XXXXXXXXXXXXXXXXXXXXXXXX....XXXXXXXXXXXXXXXXXXXXXXXXXXXXXXXXXXXXXXXXXXXXXXXXXXXXXXXXXXXXXXXXXXXXXXXXXXXXXXXX",
"XXXXXXXXXXXX....XXXXXXXXXXXXXXXXXXXXXXXXXXXXXXXX....XXXXXXXXXXXXXXXXXXXX....XXXXXXXXXXXXXXXXXXXXXXXXXXXXXXXXXXXXXXXXXXXXXXXXXXXX",
"XXXXXXXXXXXX....XXXXXXXXXXXXXXXXXXXXXXXXXXXXXXXX....XXXXXXXXXXXXXXXXXXXX....XXXXXXXXXXXXXXXXXXXXXXXXXXXXXXXXXXXXXXXXXXXXXXXXXXXX",
"XXXXXXXXXXXX....XXXXXXXXXXXXXXXXXXXXXXXXXXXXXXXX....XXXXXXXX               .XXXXXXXXXXXXXXXXXXXXXXXXXXXXXXXXXXXXXXXXXXXXXXXXXXXX",
"XXXXXXXXXXXX....XXXXXXXXXXXXXXXXXXXXXXXXXXXXXXXX....XXX                         XXXXXXXXXXXXXXXXXXXXXXXXXXXXXXXXXXXXXXXXXXXXXXXX",
"XXXXXXXXXXXX....XXXXXXXXXXXXXXXXXXXXXXXXXXXXXXXX...                                 XXXXXXXXXXXXXXXXXXXX....XXXXXXXXXXXXXXXXXXXX",
"XXXXXXXXXXXX....XXXXXXXXXXXXXXXXXXXXXXXXXXXXXXXX                                       XXXXXXXXXXXXXXXXX....XXXXXXXXXXXXXXXXXXXX",
"XXXXXXXXXXXX....XXXXXXXXXXXXXXXXXXXXXXXXXXXXXX              ooooooooooooooo              XXXXXXXXXXXXXXX....XXXXXXXXXXXXXXXXXXXX",
"XXXXXXXXXXXX....XXXXXXXXXXXXXXXXXXXXXXXXXXXX           ooooooooooooooooooooooooo           XXXXXXXXXXXXX....XXXXXXXXXXXXXXXXXXXX",
"XXXXXXXXXXXXXXXXXXXXXXXXXXXXXXXXXXXXXXXXXX          ooooooooooooooooooooooooooooooo          XXXXXXX....XXXXXXXXXXXXXXXXXXXXXXXX",
"XXXXXXXXXXXXXXXXXXXXXXXXXXXXXXXXXXXXXXXX         ooooooooooooooooooooooooooooooooooooo         XXXXX....XXXXXXXXXXXXXXXXXXXXXXXX",
"XXXXXXXXXXXXXXXXXXXXXXXXXXXXXXXXXXXXXXX        ooooooooooooooooooooooooooooooooooooooooo        XXXX....XXXXXXXXXXXXXXXXXXXXXXXX",
"XXXXXXXXXXXXXXXXXXXXXXXXXXXXXXXXXXXXX        ooooooooooooooooooooooooooooooooooooooooooooo        XX....XXXXXXXXXXXXXXXXXXXXXXXX",
"XXXXXXXXXXXXXXXXXXXXXXXXXXXXXXXXXXXX       ooooooooooooooooooooooooooooooooooooooooooooooooo       X....XXXXXXXXXXXXXXXXXXXXXXXX",
"XXXXXXXXXXXXXXXXXXXXXXXXXXXXXXXXXXX      ooooooooooooooooooooooooooooooooooooooooooooooooooooo      ....XXXXXXXXXXXXXXXXXXXXXXXX",
"XXXXXXXXXXXXXXXXXXXXXXXXXXXXXXXXX       ooooooooooooooooooooooooooooooooooooooooooooooooooooooo       ..XXXXXXXXXXXXXXXXXXXXXXXX",
"XXXXXXXXXXXXXXXXXXXXXXXXXXXXXXXX       ooooooooooooooooooooooooooooooooooooooooooooooooooooooooo       .XXXXXXXXXXXXXXXXXXXXXXXX",
"XXXXXXXXXXXXXXXXXXXXXXXXXXXXXXX      ooooooooooooooooooooooooooooooooooooooooooooooooooooooooooooo      XXXXXXXXXXXXXXXXXXXXXXXX",
"XXXXXXXXXXXXXXXXXXXXXXXXXXXXXX      ooooooooooooooooooooooooooooooooooooooooooooooooooooooooooooooo      XXXXXXXXXXXXXXXXXXXXXXX",
"XXXXXXXXXXXXXXXXXXXXXXXXXXXXX      ooooooooooooooooooooooooooooooooooooooooooooooooooooooooooooooooo      XXXXXXXXXXXXXXXXXXXXXX",
"XXXXXXXXXXXXXXXXXXXXXXXXXXXXX     ooooooooooooooooooooooooooooooooooooooooooooooooooooooooooooooooooo     XXXXXXXXXXXXXXXXXXXXXX",
"XXXXXXXXXXXXXXXXXXXX....XXXX     ooooooooooooooooooooooooooooooooooooooooooooooooooooooooooooooooooooo     XXXXXXXXXXXXXXXXXXXXX",
"XXXXXXXXXXXXXXXXXXXX....XXX     ooooooooooooooooooooooooooooooooooooooooooooooooooo     ooooooooooooooo     XXXXXXXXXXXXXXXXXXXX",
"XXXXXXXXXXXXXXXXXXXX....XX     oooooooooooooooooooooooooooooooooooooooooooooooooooo     oooooooooooooooo     XXXXXXXXXXXXXXXXXXX",
"XXXXXXXXXXXXXXXXXXXX....XX     oooooooooooo    ooooooooooooooooooooooooooooooooooo      oooooooooooooooo     XXXXXXXXXXXXXXXXXXX",
"XXXXXXXXXXXXXXXXXXXX....X     ooooooooooooo     ooooooooooooooooooooooooooooooooo       ooooooooooooooooo     XXXXXXXXXXXXXXXXXX",
"XXXXXXXXXXXXXXXXXXXX....     oooooooooooooo      oooooooooooooooooooooooooooooooo      ooooooooooooooooooo     XXXXXXXXXXXXXXXXX",
"XXXXXXXXXXXXXXXXXXXX....    ooooooooooooooo      ooooooooooooooooooooooooooooooo      ooooooooooooooooooooo    XXXXXXXXXXXXXXXXX",
"XXXXXXXXXXXXXXXXXXXX...     oooooooooooooooo       oooooooooooooooooooooooooooo      oooooooooooooooooooooo     XXXXXXXXXXXXXXXX",
"XXXXXXXXXXXXXXXXXXXX...    oooooooooooooooooo       oooooooooooooooooooooooooo       ooooooooooooooooooooooo    XXXXXXXXXXXXXXXX",
"XXXXXXXXXXXXXXXXXXXX..     oooooooooooooooooo        oooooooooooooooooooooooo       oooooooooooooooooooooooo     XXXXXXXXXXXXXXX",
"XXXXXXXXXXXXXXXXXXXX..    oooooooooooooooooooo        ooooooooooooooooooooo        oooooooooooooooooooooooooo    XXXXXXXXXXXXXXX",
"XXXXXXXXXXXXXXXXXXXX..    oooooooooooooooooooooo       ooooooooooooooooooo        ooooooooooooooooooooooooooo    XXXXXXXXXXXXXXX",
"XXXXXXXXXXXXXXXXXXXXX    oooooooooooooooooooooooo       ooooooooooooooooo        ooooooooooooooooooooooooooooo    XXXXXXXXXXXXXX",
"XXXXXXXXXXXXXXXXXXXXX    ooooooooooooooooooooooooo       ooooooooooooooo        oooooooooooooooooooooooooooooo    XXXXXXXXXXXXXX",
"XXXXXXXXXXXXXXXXXXXXX    ooooooooooooooooooooooooo       ooooooooooooooo      oooooooooooooooooooooooooooooooo    XXXXXXXXXXXXXX",
"XXXXXXXXXXXXXXXXXXXX    ooooooooooooooooooooooooooo      ooooooooooooooo     oooooooooooooooooooooooooooooooooo    XXXXXXXXXXXXX",
"XXXXXXXXXXXXXXXXXXXX    ooooooooooooooooooooooooooooo    ooooooooooooooo    ooooooooooooooooooooooooooooooooooo    XXXXXXXXXXXXX",
"XXXXXXXXXXXXXXXXXXXX    ooooooooooooooooooooooooooooooooooooooooooooooooooooooooooooooooooooooooooooooooooooooo    XXXXXXXXXXXXX",
"XXXXXXXXXXXXXXXXXXXX    ooooooooooooooooooooooooooooooooooooooooooooooooooooooooooooooooooooooooooooooooooooooo    XXXXXXXXXXXXX",
"XXXXXXXXXXXXXXXXXXX     ooooooooooooooooooooooooooooooooooooooooooooooooooooooooooooooooooooooooooooooooooooooo     XXXXXXXXXXXX",
"XXXXXXXXXXXXXXXXXXX    ooooooooooooooooooooooooooooooooooooooooooooooooooooooooooooooooooooooooooooooooooooooooo    XXXXXXXXXXXX",
"XXXXXXXXXXXXXXXXXXX    ooooooooooooooooooooooooooooooooooooooooooooooooooooooooooooooooooooooooooooooooooooooooo    XXXXXXXXXXXX",
"XXXXXXXXXXXXXXXXXXX    ooooooooooooooooooooooooooooooooooooooooooooooooooooooooooooooooooooooooooooooooooooooooo    XXXXXXXXXXXX",
"XXXXXXXXXXXXXXXXXXX    ooooooooooooooooooooooooooooooooooooooooooooooooooooooooooooooooooooooooooooooooooooooooo    XXXXXXXXXXXX",
"XXXXXXXXXXXX....XXX    ooooooooooooooooooooooooooooooooooooooooooooooooooooooooooooooooooooooooooooooooooooooooo    XXXXXXXXXXXX",
"XXXXXXXXXXXX....XXX    ooooooooooooooooooooooooooooooooooooooooooooooooooooooooooooooooooooooooooooooooooooooooo    XXXXXXXXXXXX",
"XXXXXXXXXXXX....XXX    ooooooooooooooooooooooooooooooooooooooooooooooooooooooooooooooooooooooooooooooooooooooooo    XXXXXXXXXXXX",
"XXXXXXXXXXXX....XXX    ooooooooooooooooooooooooooooooooooooooooooooooooooooooooooooooooooooooooooooooooooooooooo    XXXXXXXXXXXX",
"XXXXXXXX....XXXXXXX    ooooooooooooooooooooooooooooooooooooooooooooooooooooooooooooooooooooooooooooooooooooooooo    XXXXXXXXXXXX",
"XXXXXXXX....XXXXXXX    ooooooooooooooooooooooooooooooooooooooooooooooooooooooooooooooooooooooooooooooooooooooooo    XXXXXXXXXXXX",
"XXXXXXXX....XXXXXXX    ooooooooooooooooooooooooooooooooooooooooooooooooooooooooooooooooooooooooooooooooooooooooo    XXXXXXXXXXXX",
"XXXXXXXX....XXXXXXX     ooooooooooooooooooooooooooooooooooooooooooooooooooooooooooooooooooooooooooooooooooooooo     XXXXXXXXXXXX",
"XXXXXXXX....XXXXXXXX    ooooooooooooooooooooooooooooooooooooooooooooooooooooooooooooooooooooooooooooooooooooooo    XXXXXXXXXXXXX",
"XXXXXXXX....XXXXXXXX    ooooooooooooooooooooooooooooooooooooooooooooooooooooooooooooooooooooooooooooooooooooooo    XXXXXXXXXXXXX",
"XXXXXXXX....XXXXXXXX    ooooooooooooooooooooooooooooooooooooooooooooooooooooooooooooooooooooooooooooooooooooooo    XXXXXXXXXXXXX",
"XXXXXXXX....XXXXXXXX    oooooooooooooooooooooooooooooooooooooo      ooooo     ooooooooooooooooooooooooooooooooo    XXXXXXXXXXXXX",
"XXXXXXXXXXXXXXXXXXXXX    oooooooooooooooooooooooooooooooooooo       oooo       ooooooooooooooooooooooooooooooo    XXXXXXXXXXXXXX",
"XXXXXXXXXXXXXXXXXXXXX    ooooooooooooooooooo      oooooooooo        oooo        oooooooooooooooooooooooooooooo    XXXXXXXXXXXXXX",
"XXXXXXXXXXXXXXXXXXXXX    oooooooooooooooooo        oooooooo         ooo         ooo    ooooooooooooooooooooooo    XXXXXXXXXXXXXX",
"XXXXXXXXXXXXXXXXXXXXXX    ooooooooooooooooo         oooooo           o           oo    oooooooooooooooooooooo    XXXXXXXXXXXXXXX",
"XXXXXXXXXXXXXXXXXXXXXX    oooooooooooooooo           oooo                        o     oooooooooooooooooooooo    XXXXXXXXXXXXXXX",
"XXXXXXXXXXXXXXXXXXXXXX     ooooooooooooooo            ooo      o           o           ooooooooooooooooooooo     XXXXXXXXXXXXXXX",
"XXXXXXXXXXXXXXXXXXXXXXX    ooooooooooooooo     o       o      ooo         ooo          ooooooooooooooooooooo    XXXXXXXXXXXXXXXX",
"XXXXXXXXXXXXXXXXXXXXXXX     ooooooooooooo     ooo      o     oooo        oooo         ooooooooooooooooooooo     XXXXXXXXXXXXXXXX",
"XXXXXXXXXXXXXXXXXXXXXXXX    ooooooooooooo     oooo           ooooo      oooooo        ooooooooooooooooooooo    XXXXXXXXXXXXXXXXX",
"XXXXXXXXXXXXXXXXXXXXXXXX     oooooooooooo     ooooo         oooooo     oooooooo       oooooooooooooooooooo     XXXXXXXXXXXXXXXXX",
"XXXXXXXXXXXXXXXXXXXXXXXXX     ooooooooooo    oooooo         oooooo     oooooooo      oooooooooooooooooooo     XXXXXXXXXXXXXXXXXX",
"XXXXXXXXXXXXXXXXXXXXXXXXXX     oooooooooo    ooooooo       ooooooo    ooooooooo     oooooooooooooooooooo     XXXXXXXXXXXXXXXXXXX",
"XXXXXXXXXXXXXXXXXXXXXXXXXX     oooooooooooooooooooooo      ooooooooooooooooooooo    oooooooooooooooooooo     XXXXXXXXXXXXXXXXXXX",
"XXXXXXXXXXXXXXXXXXXXXXXXXXX     ooooooooooooooooooooo     ooooooooooooooooooooooooooooooooooooooooooooo     XXXXXXXXXXXXXXXXXXXX",
"XXXXXXXXXXXXXXXXXXXXXXXXXXXX     ooooooooooooooooooooooooooooooooooooooooooooooooooooooooooooooooooooo     XXXXXXXXXXXXXXXXXXXXX",
"XXXXXXXXXXXXXXXXXXXXXXXXXXXXX     ooooooooooooooooooooooooooooooooooooooooooooooooooooooooooooooooooo     XXXXXXXXXXXXXXXXXXXXXX",
"XXXXXXXXXXXXXXXXXXXXXXXXXXXXX      ooooooooooooooooooooooooooooooooooooooooooooooooooooooooooooooooo      XXXXXXXXXXXXXXXXXXXXXX",
"XXXXXXXXXXXXXXXXXXXXXXXXXXXXXX      ooooooooooooooooooooooooooooooooooooooooooooooooooooooooooooooo      XXXXXXXXXXXXXXXXXXXXXXX",
"XXXXXXXXXXXXXXXXXXXXXXXXXXXXXXX      ooooooooooooooooooooooooooooooooooooooooooooooooooooooooooooo      XXXXXXXXXXXXXXXXXXXXXXXX",
"XXXXXXXXXXXXXXXXXXXXXXXXXXXXXXXX       ooooooooooooooooooooooooooooooooooooooooooooooooooooooooo       XXXXXXXXXXXXXXXXXXXXXXXXX",
"XXXXXXXXXXXXXXXX....XXXXXXXXXXXXX       ooooooooooooooooooooooooooooooooooooooooooooooooooooooo       XXXXXXXXXXXXXXXXXXXXXXXXXX",
"XXXXXXXXXXXXXXXX....XXXXXXXXXXXXXXX      ooooooooooooooooooooooooooooooooooooooooooooooooooooo      XXXXXXXXXXXXXXXXXXXXXXXXXXXX",
"XXXXXXXXXXXXXXXX....XXXXXXXXXXXXXXXX       ooooooooooooooooooooooooooooooooooooooooooooooooo       XXXXXXXXXXXXXXXXXXXXXXXXXXXXX",
"XXXXXXXXXXXXXXXX....XXXXXXXXXXXXXXXXX        ooooooooooooooooooooooooooooooooooooooooooooo        XXXXXXXXXXXXXXXXXXXXXXXXXXXXXX",
"XXXXXXXXXXXXXXXXXXXX....XXXXXXXXXXXXXXX        ooooooooooooooooooooooooooooooooooooooooo        XXXXXXXXXXXXXXXXXXXXXXXXXXXXXXXX",
"XXXXXXXXXXXXXXXXXXXX....XXXXXXXXXXXXXXXX         ooooooooooooooooooooooooooooooooooooo         XXXXXXXXXXXXXXXXXXXXXXXXXXXXXXXXX",
"XXXXXXXXXXXXXXXXXXXX....XXXXXXXXXXXXXXXXXX          ooooooooooooooooooooooooooooooo          XXXXXXXXXXXXXXXXXXXXXXXXXXXXXXXXXXX",
"XXXXXXXXXXXXXXXXXXXX....XXXXXXXXXXXXXXXXXXXX           ooooooooooooooooooooooooo           XXXXXXXXXXXXXXXXXXXXXXXXXXXXXXXXXXXXX",
"XXXXXXXXXXXXXXXXXXXX....XXXXXXXXXXXXXXXXXXXXXX              ooooooooooooooo              XXXXXXXXXXXXXXXXXXXXXXXXXXXXXXXXXXXXXXX",
"XXXXXXXXXXXXXXXXXXXX....XXXXXXXXXXXXXXXXXXXXXXXX                                       XXXXXXXXXXXXXXXXXXXXXXXXXXXXXXXXXXXXXXXXX",
"XXXXXXXXXXXXXXXXXXXX....XXXXXXXXXXXXXXXXXXXXXXXXXXX                                 XXXXXXXXXXXXXXXXXXXXXXXXXXXXXXXXXXXXXXXXXXXX",
"XXXXXXXXXXXXXXXXXXXX....XXXXXXXXXXXXXXXXXXXXXXXXXXXXXXX                         XXXXXXXXXXXXXXXXXXXXXXXXXXXXXXXXXXXXXXXXXXXXXXXX",
"XXXXXXXXXXXXXXXXXXXXXXXXXXXXXXXXXXXXXXXXXXXXXXXXXXXXXXXX....               XXXXXXXXXXXXX....XXXXXXXXXXXXXXXXXXXX....XXXXXXXXXXXX",
"XXXXXXXXXXXXXXXXXXXXXXXXXXXXXXXXXXXXXXXXXXXXXXXXXXXXXXXX....XXXXXXXXXXXXXXXXXXXXXXXXXXXX....XXXXXXXXXXXXXXXXXXXX....XXXXXXXXXXXX",
"XXXXXXXXXXXXXXXXXXXXXXXXXXXXXXXXXXXXXXXXXXXXXXXXXXXXXXXX....XXXXXXXXXXXXXXXXXXXXXXXXXXXX....XXXXXXXXXXXXXXXXXXXX....XXXXXXXXXXXX",
"XXXXXXXXXXXXXXXXXXXXXXXXXXXXXXXXXXXXXXXXXXXXXXXXXXXXXXXX....XXXXXXXXXXXXXXXXXXXXXXXXXXXX....XXXXXXXXXXXXXXXXXXXX....XXXXXXXXXXXX",
"XXXXXXXXXXXXXXXXXXXXXXXXXXXXXXXX....XXXXXXXXXXXXXXXXXXXXXXXX....XXXXXXXXXXXXXXXXXXXXXXXX....XXXXXXXXXXXXXXXXXXXXXXXX....XXXXXXXX",
"XXXXXXXXXXXXXXXXXXXXXXXXXXXXXXXX....XXXXXXXXXXXXXXXXXXXXXXXX....XXXXXXXXXXXXXXXXXXXXXXXX....XXXXXXXXXXXXXXXXXXXXXXXX....XXXXXXXX",
"XXXXXXXXXXXXXXXXXXXXXXXXXXXXXXXX....XXXXXXXXXXXXXXXXXXXXXXXX....XXXXXXXXXXXXXXXXXXXXXXXX....XXXXXXXXXXXXXXXXXXXXXXXX....XXXXXXXX",
"XXXXXXXXXXXXXXXXXXXXXXXXXXXXXXXX....XXXXXXXXXXXXXXXXXXXXXXXX....XXXXXXXXXXXXXXXXXXXXXXXX....XXXXXXXXXXXXXXXXXXXXXXXX....XXXXXXXX",
"XXXXXXXXXXXXXXXXXXXXXXXXXXXX....XXXXXXXXXXXXXXXXXXXXXXXXXXXX....XXXXXXXXXXXXXXXXXXXXXXXX....XXXXXXXXXXXXXXXXXXXXXXXX....XXXXXXXX",
"XXXXXXXXXXXXXXXXXXXXXXXXXXXX....XXXXXXXXXXXXXXXXXXXXXXXXXXXX....XXXXXXXXXXXXXXXXXXXXXXXX....XXXXXXXXXXXXXXXXXXXXXXXX....XXXXXXXX",
"XXXXXXXXXXXXXXXXXXXXXXXXXXXX....XXXXXXXXXXXXXXXXXXXXXXXXXXXX....XXXXXXXXXXXXXXXXXXXXXXXX....XXXXXXXXXXXXXXXXXXXXXXXX....XXXXXXXX",
"XXXXXXXXXXXXXXXXXXXXXXXXXXXX....XXXXXXXXXXXXXXXXXXXXXXXXXXXX....XXXXXXXXXXXXXXXXXXXXXXXX....XXXXXXXXXXXXXXXXXXXXXXXX....XXXXXXXX",
"XXXXXXXXXXXXXXXXXXXXXXXXXXXX....XXXXXXXXXXXXXXXXXXXXXXXXXXXXXXXXXXXXXXXXXXXXXXXXXXXXXXXXXXXXXXXXXXXXXXXXXXXXXXXXXXXXXXXXXXXXXXXX",
"XXXXXXXXXXXXXXXXXXXXXXXXXXXX....XXXXXXXXXXXXXXXXXXXXXXXXXXXXXXXXXXXXXXXXXXXXXXXXXXXXXXXXXXXXXXXXXXXXXXXXXXXXXXXXXXXXXXXXXXXXXXXX",
"XXXXXXXXXXXXXXXXXXXXXXXXXXXX....XXXXXXXXXXXXXXXXXXXXXXXXXXXXXXXXXXXXXXXXXXXXXXXXXXXXXXXXXXXXXXXXXXXXXXXXXXXXXXXXXXXXXXXXXXXXXXXX",
"XXXXXXXXXXXXXXXXXXXXXXXXXXXX....XXXXXXXXXXXXXXXXXXXXXXXXXXXXXXXXXXXXXXXXXXXXXXXXXXXXXXXXXXXXXXXXXXXXXXXXXXXXXXXXXXXXXXXXXXXXXXXX",
"XXXXXXXXXXXXXXXXXXXXXXXXXXXXXXXXXXXXXXXXXXXXXXXXXXXXXXXXXXXXXXXXXXXXXXXXXXXXXXXXXXXXXXXXXXXXXXXXXXXXXXXXXXXXXXXXXXXXXXXXXXXXXXXX",
"XXXXXXXXXXXXXXXXXXXXXXXXXXXXXXXXXXXXXXXXXXXXXXXXXXXXXXXXXXXXXXXXXXXXXXXXXXXXXXXXXXXXXXXXXXXXXXXXXXXXXXXXXXXXXXXXXXXXXXXXXXXXXXXX",
"XXXXXXXXXXXXXXXXXXXXXXXXXXXXXXXXXXXXXXXXXXXXXXXXXXXXXXXXXXXXXXXXXXXXXXXXXXXXXXXXXXXXXXXXXXXXXXXXXXXXXXXXXXXXXXXXXXXXXXXXXXXXXXXX",
"XXXXXXXXXXXXXXXXXXXXXXXXXXXXXXXXXXXXXXXXXXXXXXXXXXXXXXXXXXXXXXXXXXXXXXXXXXXXXXXXXXXXXXXXXXXXXXXXXXXXXXXXXXXXXXXXXXXXXXXXXXXXXXXX",
"XXXXXXXXXXXXXXXXXXXXXXXXXXXXXXXXXXXXXXXXXXXXXXXXXXXXXXXXXXXXXXXXXXXXXXXXXXXXXXXXXXXXXXXXXXXXXXXXXXXXXXXXXXXXXXXXXXXXXXXXXXXXXXXX",
"XXXXXXXXXXXXXXXXXXXXXXXXXXXXXXXXXXXXXXXXXXXXXXXXXXXXXXXXXXXXXXXXXXXXXXXXXXXXXXXXXXXXXXXXXXXXXXXXXXXXXXXXXXXXXXXXXXXXXXXXXXXXXXXX",
"XXXXXXXXXXXXXXXXXXXXXXXXXXXXXXXXXXXXXXXXXXXXXXXXXXXXXXXXXXXXXXXXXXXXXXXXXXXXXXXXXXXXXXXXXXXXXXXXXXXXXXXXXXXXXXXXXXXXXXXXXXXXXXXX",
"XXXXXXXXXXXXXXXXXXXXXXXXXXXXXXXXXXXXXXXXXXXXXXXXXXXXXXXXXXXXXXXXXXXXXXXXXXXXXXXXXXXXXXXXXXXXXXXXXXXXXXXXXXXXXXXXXXXXXXXXXXXXXXXX"
};
