/* XPM */
static char *d88bb245e7c24f758f2d2e59e0686f5d7ofRb1JuMzfcqfl1[] = {
/* columns rows colors chars-per-pixel */
"128 128 10 1 ",
"  c #251F28",
". c #28232D",
"X c #312A37",
"o c #382F3F",
"O c #7E501E",
"+ c #3F3649",
"@ c #4C4652",
"# c #CA7F42",
"$ c #A798B2",
"% c #E5DFE8",
/* pixels */
"################################################################################################################################",
"################################################################################################################################",
"################################################################################################################################",
"################################################################################################################################",
"################################################################################################################################",
"################################################################################################################################",
"################################################################################################################################",
"################################################################################################################################",
"################################################################################################################################",
"################################################################################################################################",
"################################################################################################################################",
"################################################################################################################################",
"################OOOO########################OOOO################################################################################",
"################OOOO########################OOOO################################################################################",
"################OOOO########################OOOO################################################################################",
"################OOOO########################OOOO################################################################################",
"############OOOO################################OOOO####################OOOO####################################################",
"############OOOO################################OOOO####################OOOO####################################################",
"############OOOO################################OOOO####################OOOO####################################################",
"############OOOO################################OOOO####################OOOO####################################################",
"############OOOO################################OOOO########################OOOO########################OOOO####################",
"############OOOO################################OOOO########################OOOO########################OOOO####################",
"############OOOO################################OOOO########################OOOO########################OOOO####################",
"############OOOO################################OOOO########################OOOO########################OOOO####################",
"############################################################################OOOO####################OOOO########################",
"############################################################################OOOO####################OOOO########################",
"############################################################################OOOO####################OOOO########################",
"############################################################################OOOO####################OOOO########################",
"####################################################################################################OOOO########################",
"####################################################################################################OOOO########################",
"####################################################################################################OOOO########################",
"####################################################################################################OOOO########################",
"################################################################################################################################",
"################################################################################################################################",
"################################################################################################################################",
"#########################################################ooooooooooooooooooo####################################################",
"####################OOOO########################OOOO#####ooooooooooooooooooo####################################################",
"####################OOOO########################OOOO#####ooooooooooooooooooo####################################################",
"####################OOOO########################OOOO#####ooooooooooooooooooo####################################################",
"####################OOOO########################OOOO#ooooooooooooooooooooooooooo################################################",
"####################OOOO####################OOOO#####ooooooooooooooooooooooooooo################################################",
"####################OOOO####################OOOO#####ooooooooooooooooooooooooooo################################################",
"####################OOOO####################OOOO#####ooooooooooooooooooooooooooo################################################",
"####################OOOO####################OOOO#####ooooooooooooooooooooooooooo################################################",
"####################OOOO####################OOOO#####ooooooooooooooooooooooooooo####OOOO########################################",
"####################OOOO####################OOOO#####ooooooooooooooooooooooooooo####OOOO########################################",
"####################OOOO####################OO$$$$$$$oooooooooooo%%%%%%%oooo%%%%####OOOO########################################",
"####################OOOO####################OO$$$$$$$oooooooooooo%%%%%%%oooo%%%%####OOOO########################################",
"##############################################$$$$$$$oooooooooooo%%%%%%%oooo%%%%OOOO############################################",
"##############################################$$$$$$$oooooooooooo%%%%%%%oooo%%%%OOOO############################################",
"##########################################$$$$#######oooooooooooo%%%%%%%oooo%%%%OOOO############################################",
"##########################################$$$$#######oooooooooooo%%%%%%%oooo%%%%OOOO############################################",
"##########################################$$$$#######oooooooooooo%%%%%%%oooo%%%%OOOO########################OOOO################",
"##########################################$$$$#######oooooooooooo%%%%%%%oooo%%%%OOOO########################OOOO################",
"######################################$$$$###########                           OOOO########################OOOO################",
"######################################$$$$###########                           OOOO########################OOOO################",
"######################################$$$$###########                           ################################OOOO############",
"######################################$$$$###########                           ################################OOOO############",
"######################################$$$$###########                           ################################OOOO############",
"######################################$$$$###########                           ################################OOOO############",
"############OOOO######################$$$$###########                           ################################OOOO############",
"############OOOO######################$$$$#######ooooooooooooooooooooooooooooooooooo############################OOOO############",
"############OOOO######################$$$$#######ooooooooooooooooooooooooooooooooooo############################OOOO############",
"############OOOO######################$$$$#######ooooooooooooooooooooooooooooooooooo############################OOOO############",
"########OOOO##########################$$$$#######ooooooooooooooooooooooooooooooooooo############################################",
"########OOOO##########################$$$$####++++++++++++++++++++++++++++++++++++++++++########################################",
"########OOOO##########################$$$$####++++++++++++++++++++++++++++++++++++++++++########################################",
"########OOOO##########################$$$$####++++++++++++++++++++++++++++++++++++++++++########################################",
"########OOOO##########################$$$$####++++++++++++++++++++++++++++++++++++++++++########################################",
"########OOOO##########################$$$$####oooooooooooooooooooooooooooooooooooooooooo########################################",
"########OOOO##########################$$$$####oooooooooooooooooooooooooooooooooooooooooo########################################",
"########OOOO##########################$$$$####oooooooooooooooooooooooooooooooooooooooooo########################################",
"######################################$$$$####oooooooooooooooooooooooooooooooooooooooooo########################################",
"######################################$$$$####ooooooooooo$$$$$$$$$$$$$$$$$$$$$$$$$$$$$$$$$$$$$$$$$$$$$$#########################",
"######################################$$$$####ooooooooooo$$$$$$$$$$$$$$$$$$$$$$$$$$$$$$$$$$$$$$$$$$$$$$#########################",
"######################################$$$$####ooooooooooo$$$$$$$$$$$$$$$$$$$$$$$$$$$$$$$$$$$$$$$$$$$$$$#########################",
"######################################$$$$####ooooooooooo$$$$$$$$$$$$$$$$$$$$$$$$$$$$$$$$$$$$$$$$$$$$$$#########################",
"##########################################$$$$ooooooo$$$$$$$$$$$$$$$$       $$$$$$$$$$$$$$$$$$$$$$$$$$$#########################",
"##########################################$$$$ooooooo$$$$$$$$$$$$$$$$       $$$$$$$$$$$$$$$$$$$$$$$$$$$#########################",
"##########################################$$$$ooooooo$$$$$$$$$$$$$$$$       $$$$$$$$$$$$$$$$$$$$$$$$$$$#########################",
"############################################OOooo        $$$$$$$$               $$$$$$$$$$$$$$$O################################",
"############################################OOooo        $$$$$$$$               $$$$$$$$$$$$$$$O################################",
"############################################OOooo        $$$$$$$$               $$$$$$$$$$$$$$$O################################",
"############################################OOooo        $$$$$$$$               $$$$$$$$$$$$$$$O################################",
"########################################OOOO##               oooo               ooooooooOOOO####################################",
"########################################OOOO##               oooo               ooooooooOOOO####################################",
"########################################OOOO##               oooo               ooooooooOOOO####################################",
"########################################OOOO##               oooo               ooooooooOOOO####################################",
"########################################OOOO##               oooooooo       ooooooooooooOOOO####################################",
"########################################OOOO##               oooooooo       ooooooooooooOOOO####################################",
"########################################OOOO##               oooooooo       ooooooooooooOOOO####################################",
"########################################OOOO##               oooooooo       ooooooooooooOOOO####################################",
"################OOOO##########################ooo        ooooooooooooooooooooooooooooooo########################################",
"################OOOO##########################ooo        ooooooooooooooooooooooooooooooo########################################",
"################OOOO##########################ooo        ooooooooooooooooooooooooooooooo########################################",
"################OOOO##########################ooo        ooooooooooooooooooooooooooooooo########################################",
"####################OOOO######################oooooooooooooooooooooooooooooooooooooooooo########################################",
"####################OOOO######################oooooooooooooooooooooooooooooooooooooooooo########################################",
"####################OOOO######################oooooooooooooooooooooooooooooooooooooooooo########################################",
"####################OOOO######################oooooooooooooooooooooooooooooooooooooooooo########################################",
"####################OOOO######################oooooooooooooooooooooooooooooooooooooooooo########################################",
"####################OOOO######################oooooooooooooooooooooooooooooooooooooooooo########################################",
"####################OOOO######################oooooooooooooooooooooooooooooooooooooooooo########################################",
"####################OOOO#########################XXXXXXXXXXXXXXXXXXXXXXXXXXXXXXXXXXX############################################",
"#################################################XXXXXXXXXXXXXXXXXXXXXXXXXXXXXXXXXXX####OOOO####################OOOO############",
"#################################################XXXXXXXXXXXXXXXXXXXXXXXXXXXXXXXXXXX####OOOO####################OOOO############",
"#################################################XXXXXXXXXXXXXXXXXXXXXXXXXXXXXXXXXXX####OOOO####################OOOO############",
"#####################################################...................################OOOO####################OOOO############",
"################################OOOO#################...................################OOOO########################OOOO########",
"################################OOOO#################...................################OOOO########################OOOO########",
"################################OOOO#################...................################OOOO########################OOOO########",
"###@@@@@@@@@@@@@@@@@@@@@@@@@@@@@@@@@@@@@@@@@@@@@@@@@@@@@@............###################OOOO########################OOOO########",
"###@@@@@@@@@@@@@@@@@@@@@@@@@@@@@@@@@@@@@@@@@@@@@@@@@@@@@@............###################OOOO########################OOOO########",
"###@@@@@@@@@@@@@@@@@@@@@@@@@@@@@@@@@@@@@@@@@@@@@@@@@@@@@@............###################OOOO########################OOOO########",
"###@@@@@@@@@@@@@@@@@@@@@@@@@@@@@@@@@@@@@@@@@@@@@@@@@@@@@@............###################OOOO########################OOOO########",
"############################OOOO############################OOOO########################OOOO########################OOOO########",
"############################OOOO################################################################################################",
"############################OOOO################################################################################################",
"############################OOOO################################################################################################",
"############################OOOO################################################################################################",
"################################################################################################################################",
"################################################################################################################################",
"################################################################################################################################",
"################################################################################################################################",
"################################################################################################################################",
"################################################################################################################################",
"################################################################################################################################",
"################################################################################################################################"
};
