/* XPM */
static char *_4f5f1a7d5c14f82bfb4299ae98aa968ZvGO2SC0D2QqERuA[] = {
/* columns rows colors chars-per-pixel */
"128 128 8 1 ",
"  c black",
". c #696A6A",
"X c #874D00",
"o c #8F563B",
"O c #D87B31",
"+ c #D95763",
"@ c #FBF236",
"# c #99E550",
/* pixels */
"OOOOOOOOOOOOOOOOOOOOOOOOOOOOOOOOOOOOOOOOOOOOOOOOOOOOOOOOOOOOOOOOOOOOOOOOOOOOOOOOOOOOOOOOOOOOOOOOOOOOOOOOOOOOOOOOOOOOOOOOOOOOOOOO",
"OOOOOOOOOOOOOOOOOOOOOOOOOOOOOOOOOOOOOOOOOOOOOOOOOOOOOOOOOOOOOOOOOOOOOOOOOOOOOOOOOOOOOOOOOOOOOOOOOOOOOOOOOOOOOOOOOOOOOOOOOOOOOOOO",
"OOOOOOOOOOOOOOOOOOOOOOOOOOOOOOOOOOOOOOOOOOOOOOOOOOOOOOOOOOOOOOOOOOOOOOOOOOOOOOOOOOOOOOOOOOOOOOOOOOOOOOOOOOOOOOOOOOOOOOOOOOOOOOOO",
"OOOOOOOOOOOOOOOOOOOOOOOOOOOOOOOOOOOOOOOOOOOOOOOOOOOOOOOOOOOOOOOOOOOOOOOOOOOOOOOOOOOOOOOOOOOOOOOOOOOOOOOOOOOOOOOOOOOOOOOOOOOOOOOO",
"OOOOOOOOOOOOOOOOOOOOOOOOOOOOOOOOOOOOOOOOOOOOOOOOOOOOOOOOOOOOOOOOOOOOOOOOOOOOOOOOOOOOOOOOOOOOOOOOOOOOOOOOOOOOOOOOOOOOOOOOOOOOOOOO",
"OOOOOOOOOOOOOOOOOOOOOOOOOOOOOOOOOOOOOOOOOOOOOOOOOOOOOOOOOOOOOOOOOOOOOOOOOOOOOOOOOOOOOOOOOOOOOOOOOOOOOOOOOOOOOOOOOOOOOOOOOOOOOOOO",
"OOOOOOOOOOOOOOOOOOOOOOOOOOOOOOOOOOOOOOOOOOOOOOOOOOOOOOOOOOOOOOOOOOOOOOOOOOOOOOOOOOOOOOOOOOOOOOOOOOOOOOOOOOOOOOOOOOOOOOOOOOOOOOOO",
"OOOOOOOOOOOOOOOOOOOOOOOOOOOOOOOOOOOOOOOOOOOOOOOOOOOOOOOOOOOOOOOOOOOOOOOOOOOOOOOOOOOOOOOOOOOOOOOOOOOOOOOOOOOOOOOOOOOOOOOOOOOOOOOO",
"OOOOOOOOOOOOOOOOOOOOOOOOOOOOOOOOOOOOOOOOOOOOOOOOOOOOOOOOOOOOOOOOOOOOOOOOOOOOOOOOOOOOOOOOOOOOOOOOOOOOOOOOOOOOOOOOOOOOOOOOOOOOOOOO",
"OOOOOOOOOOOOOOOOOOOOOOOOOOOOOOOOOOOOOOOOOOOOOOOOOOOOOOOOOOOOOOOOOOOOOOOOOOOOOOOOOOOOOOOOOOOOOOOOOOOOOOOOOOOOOOOOOOOOOOOOOOOOOOOO",
"OOOOOOOOOOOOOOOOOOOOOOOOOOOOOOOOOOOOOOOOOOOOOOOOOOOOOOOOOOOOOOOOOOOOOOOOOOOOOOOOOOOOOOOOOOOOOOOOOOOOOOOOOOOOOOOOOOOOOOOOOOOOOOOO",
"OOOOOOOOOOOOOOOOOOOOOOOOOOOOOOOOOOOOOOOOOOOOOOOOOOOOOOOOOOOOOOOOOOOOOOOOOOOOOOOOOOOOOOOOOOOOOOOOOOOOOOOOOOOOOOOOOOOOOOOOOOOOOOOO",
"OOOOOOOOOOOOOOOOXXXXOOOOOOOOOOOOOOOOOOOOOOOOXXXXOOOOOOOOOOOOOOOOOOOOOOOOOOOOOOOOOOOOOOOOOOOOOOOOOOOOOOOOOOOOOOOOOOOOOOOOOOOOOOOO",
"OOOOOOOOOOOOOOOOXXXXOOOOOOOOOOOOOOOOOOOOOOOOXXXXOOOOOOOOOOOOOOOOOOOOOOOOOOOOOOOOOOOOOOOOOOOOOOOOOOOOOOOOOOOOOOOOOOOOOOOOOOOOOOOO",
"OOOOOOOOOOOOOOOOXXXXOOOOOOOOOOOOOOOOOOOOOOOOXXXXOOOOOOOOOOOOOOOOOOOOOOOOOOOOOOOOOOOOOOOOOOOOOOOOOOOOOOOOOOOOOOOOOOOOOOOOOOOOOOOO",
"OOOOOOOOOOOOOOOOXXXXOOOOOOOOOOOOOOOOOOOOOOOOXXXXOOOOOOOOOOOOOOOOOOOOOOOOOOOOOOOOOOOOOOOOOOOOOOOOOOOOOOOOOOOOOOOOOOOOOOOOOOOOOOOO",
"OOOOOOOOOOOOXXXXOOOOOOOOOOOOOOOOOOOOOOOOOOOOOOOOXXXXOOOOOOOOOOOOOOOOOOOOXXXXOOOOOOOOOOOOOOOOOOOOOOOOOOOOOOOOOOOOOOOOOOOOOOOOOOOO",
"OOOOOOOOOOOOXXXXOOOOOOOOOOOOOOOOOOOOOOOOOOOOOOOOXXXXOOOOOOOOOOOOOOOOOOOOXXXXOOOOOOOOOOOOOOOOOOOOOOOOOOOOOOOOOOOOOOOOOOOOOOOOOOOO",
"OOOOOOOOOOOOXXXXOOOOOOOOOOOOOOOOOOOOOOOOOOOOOOOOXXXXOOOOOOOOOOOOOOOOOOOOXXXXOOOOOOOOOOOOOOOOOOOOOOOOOOOOOOOOOOOOOOOOOOOOOOOOOOOO",
"OOOOOOOOOOOOXXXXOOOOOOOOOOOOOOOOOOOOOOOOOOOOOOOOXXXXOOOOOOOOOOOOOOOOOOOOXXXXOOOOOOOOOOOOOOOOOOOOOOOOOOOOOOOOOOOOOOOOOOOOOOOOOOOO",
"OOOOOOOOOOOOXXXXOOOOOOOOOOOOOOOOOOOOOOOOOOOOOOOOXXXXOOOOOOOOOOOO++++OOOOOOOOXXXXOOOOOOOOOOOOOOOOOOOOOOOOXXXXOOOOOOOOOOOOOOOOOOOO",
"OOOOOOOOOOOOXXXXOOOOOOOOOOOOOOOOOOOOOOOOOOOOOOOOXXXXOOOOOOOOOOOO++++OOOOOOOOXXXXOOOOOOOOOOOOOOOOOOOOOOOOXXXXOOOOOOOOOOOOOOOOOOOO",
"OOOOOOOOOOOOXXXXOOOOOOOOOOOOOOOOOOOOOOOOOOOOOOOOXXXXOOOOOOOOOOOO++++OOOOOOOOXXXXOOOOOOOOOOOOOOOOOOOOOOOOXXXXOOOOOOOOOOOOOOOOOOOO",
"OOOOOOOOOOOOXXXXOOOOOOOOOOOOOOOOOOOOOOOOOOOOOOOOXXXXOOOOOOOOOOOO++++OOOOOOOOXXXXOOOOOOOOOOOOOOOOOOOOOOOOXXXXOOOOOOOOOOOOOOOOOOOO",
"OOOOOOOOOOOOOOOOOOOOOOOOOOOOOOOOOOOOOOOOOOOOOOOOOOOOOOOOOOOOOOOO++++OOOOOOOOXXXXOOOOOOOOOOOOOOOOOOOOXXXXOOOOOOOOOOOOOOOOOOOOOOOO",
"OOOOOOOOOOOOOOOOOOOOOOOOOOOOOOOOOOOOOOOOOOOOOOOOOOOOOOOOOOOOOOOO++++OOOOOOOOXXXXOOOOOOOOOOOOOOOOOOOOXXXXOOOOOOOOOOOOOOOOOOOOOOOO",
"OOOOOOOOOOOOOOOOOOOOOOOOOOOOOOOOOOOOOOOOOOOOOOOOOOOOOOOOOOOOOOOO++++OOOOOOOOXXXXOOOOOOOOOOOOOOOOOOOOXXXXOOOOOOOOOOOOOOOOOOOOOOOO",
"OOOOOOOOOOOOOOOOOOOOOOOOOOOOOOOOOOOOOOOOOOOOOOOOOOOOOOOOOOOOOOOO++++OOOOOOOOXXXXOOOOOOOOOOOOOOOOOOOOXXXXOOOOOOOOOOOOOOOOOOOOOOOO",
"OOOOOOOOOOOOOOOOOOOOOOOOOOOOOOOOOOOOOOOOOOOOOOOOOOOOOOOOOOOOOOOO    OOOOOOOOOOOOOOOOOOOOOOOOOOOOOOOOXXXXOOOOOOOOOOOOOOOOOOOOOOOO",
"OOOOOOOOOOOOOOOOOOOOOOOOOOOOOOOOOOOOOOOOOOOOOOOOOOOOOOOOOOOOOOOO    OOOOOOOOOOOOOOOOOOOOOOOOOOOOOOOOXXXXOOOOOOOOOOOOOOOOOOOOOOOO",
"OOOOOOOOOOOOOOOOOOOOOOOOOOOOOOOOOOOOOOOOOOOOOOOOOOOOOOOOOOOOOOOO    OOOOOOOOOOOOOOOOOOOOOOOOOOOOOOOOXXXXOOOOOOOOOOOOOOOOOOOOOOOO",
"OOOOOOOOOOOOOOOOOOOOOOOOOOOOOOOOOOOOOOOOOOOOOOOOOOOOOOOOOOOOOOOO    OOOOOOOOOOOOOOOOOOOOOOOOOOOOOOOOXXXXOOOOOOOOOOOOOOOOOOOOOOOO",
"OOOOOOOOOOOOOOOOOOOOOOOOOOOOOOOOOOOOOOOOOOOOOOOO                                OOOOOOOOOOOOOOOOOOOOOOOOOOOOOOOOOOOOOOOOOOOOOOOO",
"OOOOOOOOOOOOOOOOOOOOOOOOOOOOOOOOOOOOOOOOOOOOOOOO                                OOOOOOOOOOOOOOOOOOOOOOOOOOOOOOOOOOOOOOOOOOOOOOOO",
"OOOOOOOOOOOOOOOOOOOOOOOOOOOOOOOOOOOOOOOOOOOOOOOO                                OOOOOOOOOOOOOOOOOOOOOOOOOOOOOOOOOOOOOOOOOOOOOOOO",
"OOOOOOOOOOOOOOOOOOOOOOOOOOOOOOOOOOOOOOOOOOOOOOOO                                OOOOOOOOOOOOOOOOOOOOOOOOOOOOOOOOOOOOOOOOOOOOOOOO",
"OOOOOOOOOOOOOOOOOOOOXXXXOOOOOOOOOOOOOOOOOOOOOOOO    oooooooooooooooooooooooo    OOOOOOOOOOOOOOOOOOOOOOOOOOOOOOOOOOOOOOOOOOOOOOOO",
"OOOOOOOOOOOOOOOOOOOOXXXXOOOOOOOOOOOOOOOOOOOOOOOO    oooooooooooooooooooooooo    OOOOOOOOOOOOOOOOOOOOOOOOOOOOOOOOOOOOOOOOOOOOOOOO",
"OOOOOOOOOOOOOOOOOOOOXXXXOOOOOOOOOOOOOOOOOOOOOOOO    oooooooooooooooooooooooo    OOOOOOOOOOOOOOOOOOOOOOOOOOOOOOOOOOOOOOOOOOOOOOOO",
"OOOOOOOOOOOOOOOOOOOOXXXXOOOOOOOOOOOOOOOOOOOOOOOO    oooooooooooooooooooooooo    OOOOOOOOOOOOOOOOOOOOOOOOOOOOOOOOOOOOOOOOOOOOOOOO",
"OOOOOOOOOOOOOOOOOOOOXXXXOOOOOOOOOOOOOOOOOOOOXXXX    oooooooo@@@@oooooooo@@@@    OOOOOOOOOOOOOOOOOOOOOOOOOOOOOOOOOOOOOOOOOOOOOOOO",
"OOOOOOOOOOOOOOOOOOOOXXXXOOOOOOOOOOOOOOOOOOOOXXXX    oooooooo@@@@oooooooo@@@@    OOOOOOOOOOOOOOOOOOOOOOOOOOOOOOOOOOOOOOOOOOOOOOOO",
"OOOOOOOOOOOOOOOOOOOOXXXXOOOOOOOOOOOOOOOOOOOOXXXX    oooooooo@@@@oooooooo@@@@    OOOOOOOOOOOOOOOOOOOOOOOOOOOOOOOOOOOOOOOOOOOOOOOO",
"OOOOOOOOOOOOOOOOOOOOXXXXOOOOOOOOOOOOOOOOOOOOXXXX    oooooooo@@@@oooooooo@@@@    OOOOOOOOOOOOOOOOOOOOOOOOOOOOOOOOOOOOOOOOOOOOOOOO",
"OOOOOOOOOOOOOOOOOOOOXXXXOOOOOOOOOOOOOOOOOOOOXXXX    oooooooo@@@@oooooooo@@@@    OOOOXXXXOOOOOOOOOOOOOOOOOOOOOOOOOOOOOOOOOOOOOOOO",
"OOOOOOOOOOOOOOOOOOOOXXXXOOOOOOOOOOOOOOOOOOOOXXXX    oooooooo@@@@oooooooo@@@@    OOOOXXXXOOOOOOOOOOOOOOOOOOOOOOOOOOOOOOOOOOOOOOOO",
"OOOOOOOOOOOOOOOOOOOOXXXXOOOOOOOOOOOOOOOOOOOOXXXX    oooooooo@@@@oooooooo@@@@    OOOOXXXXOOOOOOOOOOOOOOOOOOOOOOOOOOOOOOOOOOOOOOOO",
"OOOOOOOOOOOOOOOOOOOOXXXXOOOOOOOOOOOOOOOOOOOOXXXX    oooooooo@@@@oooooooo@@@@    OOOOXXXXOOOOOOOOOOOOOOOOOOOOOOOOOOOOOOOOOOOOOOOO",
"OOOOOOOOOOOOOOOOOOOOOOOOOOOOOOOOOOOOOOOOOOOOOOOO    oooooooooooooooooooooooo    XXXXOOOOOOOOOOOOOOOOOOOOOOOOOOOOOOOOOOOOOOOOOOOO",
"OOOOOOOOOOOOOOOOOOOOOOOOOOOOOOOOOOOOOOOOOOOOOOOO    oooooooooooooooooooooooo    XXXXOOOOOOOOOOOOOOOOOOOOOOOOOOOOOOOOOOOOOOOOOOOO",
"OOOOOOOOOOOOOOOOOOOOOOOOOOOOOOOOOOOOOOOOOOOOOOOO    oooooooooooooooooooooooo    XXXXOOOOOOOOOOOOOOOOOOOOOOOOOOOOOOOOOOOOOOOOOOOO",
"OOOOOOOOOOOOOOOOOOOOOOOOOOOOOOOOOOOOOOOOOOOOOOOO    oooooooooooooooooooooooo    XXXXOOOOOOOOOOOOOOOOOOOOOOOOOOOOOOOOOOOOOOOOOOOO",
"OOOOOOOOOOOOOOOOOOOOOOOOOOOOOOOOOOOOOOOOOOOOOOOO    oooooooooooooooooooooooo    XXXXOOOOOOOOOOOOOOOOOOOOOOOOXXXXOOOOOOOOOOOOOOOO",
"OOOOOOOOOOOOOOOOOOOOOOOOOOOOOOOOOOOOOOOOOOOOOOOO    oooooooooooooooooooooooo    XXXXOOOOOOOOOOOOOOOOOOOOOOOOXXXXOOOOOOOOOOOOOOOO",
"OOOOOOOOOOOOOOOOOOOOOOOOOOOOOOOOOOOOOOOOOOOOOOOO    oooooooooooooooooooooooo    XXXXOOOOOOOOOOOOOOOOOOOOOOOOXXXXOOOOOOOOOOOOOOOO",
"OOOOOOOOOOOOOOOOOOOOOOOOOOOOOOOOOOOOOOOOOOOOOOOO    oooooooooooooooooooooooo    XXXXOOOOOOOOOOOOOOOOOOOOOOOOXXXXOOOOOOOOOOOOOOOO",
"OOOOOOOOOOOOOOOOOOOOOOOOOOOOOOOOOOOOOOOOOOOOOOOO    oooooooooooooooooooooooo    OOOOOOOOOOOOOOOOOOOOOOOOOOOOOOOOXXXXOOOOOOOOOOOO",
"OOOOOOOOOOOOOOOOOOOOOOOOOOOOOOOOOOOOOOOOOOOOOOOO    oooooooooooooooooooooooo    OOOOOOOOOOOOOOOOOOOOOOOOOOOOOOOOXXXXOOOOOOOOOOOO",
"OOOOOOOOOOOOOOOOOOOOOOOOOOOOOOOOOOOOOOOOOOOOOOOO    oooooooooooooooooooooooo    OOOOOOOOOOOOOOOOOOOOOOOOOOOOOOOOXXXXOOOOOOOOOOOO",
"OOOOOOOOOOOOOOOOOOOOOOOOOOOOOOOOOOOOOOOOOOOOOOOO    oooooooooooooooooooooooo    OOOOOOOOOOOOOOOOOOOOOOOOOOOOOOOOXXXXOOOOOOOOOOOO",
"OOOOOOOOOOOOXXXXOOOOOOOOOOOOOOOOOOOOOOOOOOOO                                        OOOOOOOOOOOOOOOOOOOOOOOOOOOOXXXXOOOOOOOOOOOO",
"OOOOOOOOOOOOXXXXOOOOOOOOOOOOOOOOOOOOOOOOOOOO                                        OOOOOOOOOOOOOOOOOOOOOOOOOOOOXXXXOOOOOOOOOOOO",
"OOOOOOOOOOOOXXXXOOOOOOOOOOOOOOOOOOOOOOOOOOOO                                        OOOOOOOOOOOOOOOOOOOOOOOOOOOOXXXXOOOOOOOOOOOO",
"OOOOOOOOOOOOXXXXOOOOOOOOOOOOOOOOOOOOOOOOOOOO                                        OOOOOOOOOOOOOOOOOOOOOOOOOOOOXXXXOOOOOOOOOOOO",
"OOOOOOOOXXXXOOOOOOOOOOOOOOOOOOOOOOOOOOOOOOOO    oooooooooooooooooooooooooooooooo    OOOOOOOOOOOOOOOOOOOOOOOOOOOOOOOOOOOOOOOOOOOO",
"OOOOOOOOXXXXOOOOOOOOOOOOOOOOOOOOOOOOOOOOOOOO    oooooooooooooooooooooooooooooooo    OOOOOOOOOOOOOOOOOOOOOOOOOOOOOOOOOOOOOOOOOOOO",
"OOOOOOOOXXXXOOOOOOOOOOOOOOOOOOOOOOOOOOOOOOOO    oooooooooooooooooooooooooooooooo    OOOOOOOOOOOOOOOOOOOOOOOOOOOOOOOOOOOOOOOOOOOO",
"OOOOOOOOXXXXOOOOOOOOOOOOOOOOOOOOOOOOOOOOOOOO    oooooooooooooooooooooooooooooooo    OOOOOOOOOOOOOOOOOOOOOOOOOOOOOOOOOOOOOOOOOOOO",
"OOOOOOOOXXXXOOOOOOOOOOOOOOOOOOOOOOOOOOOOOOOO                                        OOOOOOOOOOOOOOOOOOOOOOOOOOOOOOOOOOOOOOOOOOOO",
"OOOOOOOOXXXXOOOOOOOOOOOOOOOOOOOOOOOOOOOOOOOO                                        OOOOOOOOOOOOOOOOOOOOOOOOOOOOOOOOOOOOOOOOOOOO",
"OOOOOOOOXXXXOOOOOOOOOOOOOOOOOOOOOOOOOOOOOOOO                                        OOOOOOOOOOOOOOOOOOOOOOOOOOOOOOOOOOOOOOOOOOOO",
"OOOOOOOOXXXXOOOOOOOOOOOOOOOOOOOOOOOOOOOOOOOO                                        OOOOOOOOOOOOOOOOOOOOOOOOOOOOOOOOOOOOOOOOOOOO",
"OOOOOOOOOOOOOOOOOOOOOOOOOOOOOOOOOOOOOOOOOOOOOOOO    ................####....    OOOOOOOOOOOOOOOOOOOOOOOOOOOOOOOOOOOOOOOOOOOOOOOO",
"OOOOOOOOOOOOOOOOOOOOOOOOOOOOOOOOOOOOOOOOOOOOOOOO    ................####....    OOOOOOOOOOOOOOOOOOOOOOOOOOOOOOOOOOOOOOOOOOOOOOOO",
"OOOOOOOOOOOOOOOOOOOOOOOOOOOOOOOOOOOOOOOOOOOOOOOO    ................####....    OOOOOOOOOOOOOOOOOOOOOOOOOOOOOOOOOOOOOOOOOOOOOOOO",
"OOOOOOOOOOOOOOOOOOOOOOOOOOOOOOOOOOOOOOOOOOOOOOOO    ................####....    OOOOOOOOOOOOOOOOOOOOOOOOOOOOOOOOOOOOOOOOOOOOOOOO",
"OOOOOOOOOOOOOOOOOOOOOOOOOOOOOOOOOOOOOOOOOOOOOOOO    ........................    OOOOOOOOOOOOOOOOOOOOOOOOOOOOOOOOOOOOOOOOOOOOOOOO",
"OOOOOOOOOOOOOOOOOOOOOOOOOOOOOOOOOOOOOOOOOOOOOOOO    ........................    OOOOOOOOOOOOOOOOOOOOOOOOOOOOOOOOOOOOOOOOOOOOOOOO",
"OOOOOOOOOOOOOOOOOOOOOOOOOOOOOOOOOOOOOOOOOOOOOOOO    ........................    OOOOOOOOOOOOOOOOOOOOOOOOOOOOOOOOOOOOOOOOOOOOOOOO",
"OOOOOOOOOOOOOOOOOOOOOOOOOOOOOOOOOOOOOOOOOOOOOOOO    ........................    OOOOOOOOOOOOOOOOOOOOOOOOOOOOOOOOOOOOOOOOOOOOOOOO",
"OOOOOOOOOOOOOOOOOOOOOOOOOOOOOOOOOOOOOOOOOOOOXXXXOOOO                        OOOOOOOOOOOOOOOOXXXXOOOOOOOOOOOOOOOOOOOOOOOOOOOOOOOO",
"OOOOOOOOOOOOOOOOOOOOOOOOOOOOOOOOOOOOOOOOOOOOXXXXOOOO                        OOOOOOOOOOOOOOOOXXXXOOOOOOOOOOOOOOOOOOOOOOOOOOOOOOOO",
"OOOOOOOOOOOOOOOOOOOOOOOOOOOOOOOOOOOOOOOOOOOOXXXXOOOO                        OOOOOOOOOOOOOOOOXXXXOOOOOOOOOOOOOOOOOOOOOOOOOOOOOOOO",
"OOOOOOOOOOOOOOOOOOOOOOOOOOOOOOOOOOOOOOOOOOOOXXXXOOOO                        OOOOOOOOOOOOOOOOXXXXOOOOOOOOOOOOOOOOOOOOOOOOOOOOOOOO",
"OOOOOOOOOOOOOOOOOOOOOOOOOOOOOOOOOOOOOOOOXXXXOOOOOOOOOOOO    OOOOOOOO    OOOOOOOOOOOOOOOOXXXXOOOOOOOOOOOOOOOOOOOOOOOOOOOOOOOOOOOO",
"OOOOOOOOOOOOOOOOOOOOOOOOOOOOOOOOOOOOOOOOXXXXOOOOOOOOOOOO    OOOOOOOO    OOOOOOOOOOOOOOOOXXXXOOOOOOOOOOOOOOOOOOOOOOOOOOOOOOOOOOOO",
"OOOOOOOOOOOOOOOOOOOOOOOOOOOOOOOOOOOOOOOOXXXXOOOOOOOOOOOO    OOOOOOOO    OOOOOOOOOOOOOOOOXXXXOOOOOOOOOOOOOOOOOOOOOOOOOOOOOOOOOOOO",
"OOOOOOOOOOOOOOOOOOOOOOOOOOOOOOOOOOOOOOOOXXXXOOOOOOOOOOOO    OOOOOOOO    OOOOOOOOOOOOOOOOXXXXOOOOOOOOOOOOOOOOOOOOOOOOOOOOOOOOOOOO",
"OOOOOOOOOOOOOOOOOOOOOOOOOOOOOOOOOOOOOOOOXXXXOOOOOOOOOOOO    OOOOOOOO    OOOOOOOOOOOOOOOOXXXXOOOOOOOOOOOOOOOOOOOOOOOOOOOOOOOOOOOO",
"OOOOOOOOOOOOOOOOOOOOOOOOOOOOOOOOOOOOOOOOXXXXOOOOOOOOOOOO    OOOOOOOO    OOOOOOOOOOOOOOOOXXXXOOOOOOOOOOOOOOOOOOOOOOOOOOOOOOOOOOOO",
"OOOOOOOOOOOOOOOOOOOOOOOOOOOOOOOOOOOOOOOOXXXXOOOOOOOOOOOO    OOOOOOOO    OOOOOOOOOOOOOOOOXXXXOOOOOOOOOOOOOOOOOOOOOOOOOOOOOOOOOOOO",
"OOOOOOOOOOOOOOOOOOOOOOOOOOOOOOOOOOOOOOOOXXXXOOOOOOOOOOOO    OOOOOOOO    OOOOOOOOOOOOOOOOXXXXOOOOOOOOOOOOOOOOOOOOOOOOOOOOOOOOOOOO",
"OOOOOOOOOOOOOOOOXXXXOOOOOOOOOOOOOOOOOOOOOOOOOOOOOOOOOOOOOOOOOOOOOOOOOOOOOOOOOOOOOOOOOOOOOOOOOOOOOOOOOOOOOOOOOOOOOOOOOOOOOOOOOOOO",
"OOOOOOOOOOOOOOOOXXXXOOOOOOOOOOOOOOOOOOOOOOOOOOOOOOOOOOOOOOOOOOOOOOOOOOOOOOOOOOOOOOOOOOOOOOOOOOOOOOOOOOOOOOOOOOOOOOOOOOOOOOOOOOOO",
"OOOOOOOOOOOOOOOOXXXXOOOOOOOOOOOOOOOOOOOOOOOOOOOOOOOOOOOOOOOOOOOOOOOOOOOOOOOOOOOOOOOOOOOOOOOOOOOOOOOOOOOOOOOOOOOOOOOOOOOOOOOOOOOO",
"OOOOOOOOOOOOOOOOXXXXOOOOOOOOOOOOOOOOOOOOOOOOOOOOOOOOOOOOOOOOOOOOOOOOOOOOOOOOOOOOOOOOOOOOOOOOOOOOOOOOOOOOOOOOOOOOOOOOOOOOOOOOOOOO",
"OOOOOOOOOOOOOOOOOOOOXXXXOOOOOOOOOOOOOOOOOOOOOOOOOOOOOOOOOOOOOOOOOOOOOOOOOOOOOOOOOOOOOOOOOOOOOOOOOOOOOOOOOOOOOOOOOOOOOOOOOOOOOOOO",
"OOOOOOOOOOOOOOOOOOOOXXXXOOOOOOOOOOOOOOOOOOOOOOOOOOOOOOOOOOOOOOOOOOOOOOOOOOOOOOOOOOOOOOOOOOOOOOOOOOOOOOOOOOOOOOOOOOOOOOOOOOOOOOOO",
"OOOOOOOOOOOOOOOOOOOOXXXXOOOOOOOOOOOOOOOOOOOOOOOOOOOOOOOOOOOOOOOOOOOOOOOOOOOOOOOOOOOOOOOOOOOOOOOOOOOOOOOOOOOOOOOOOOOOOOOOOOOOOOOO",
"OOOOOOOOOOOOOOOOOOOOXXXXOOOOOOOOOOOOOOOOOOOOOOOOOOOOOOOOOOOOOOOOOOOOOOOOOOOOOOOOOOOOOOOOOOOOOOOOOOOOOOOOOOOOOOOOOOOOOOOOOOOOOOOO",
"OOOOOOOOOOOOOOOOOOOOXXXXOOOOOOOOOOOOOOOOOOOOOOOOOOOOOOOOOOOOOOOOOOOOOOOOOOOOOOOOOOOOOOOOOOOOOOOOOOOOOOOOOOOOOOOOOOOOOOOOOOOOOOOO",
"OOOOOOOOOOOOOOOOOOOOXXXXOOOOOOOOOOOOOOOOOOOOOOOOOOOOOOOOOOOOOOOOOOOOOOOOOOOOOOOOOOOOOOOOOOOOOOOOOOOOOOOOOOOOOOOOOOOOOOOOOOOOOOOO",
"OOOOOOOOOOOOOOOOOOOOXXXXOOOOOOOOOOOOOOOOOOOOOOOOOOOOOOOOOOOOOOOOOOOOOOOOOOOOOOOOOOOOOOOOOOOOOOOOOOOOOOOOOOOOOOOOOOOOOOOOOOOOOOOO",
"OOOOOOOOOOOOOOOOOOOOXXXXOOOOOOOOOOOOOOOOOOOOOOOOOOOOOOOOOOOOOOOOOOOOOOOOOOOOOOOOOOOOOOOOOOOOOOOOOOOOOOOOOOOOOOOOOOOOOOOOOOOOOOOO",
"OOOOOOOOOOOOOOOOOOOOOOOOOOOOOOOOOOOOOOOOOOOOOOOOOOOOOOOOXXXXOOOOOOOOOOOOOOOOOOOOOOOOOOOOXXXXOOOOOOOOOOOOOOOOOOOOXXXXOOOOOOOOOOOO",
"OOOOOOOOOOOOOOOOOOOOOOOOOOOOOOOOOOOOOOOOOOOOOOOOOOOOOOOOXXXXOOOOOOOOOOOOOOOOOOOOOOOOOOOOXXXXOOOOOOOOOOOOOOOOOOOOXXXXOOOOOOOOOOOO",
"OOOOOOOOOOOOOOOOOOOOOOOOOOOOOOOOOOOOOOOOOOOOOOOOOOOOOOOOXXXXOOOOOOOOOOOOOOOOOOOOOOOOOOOOXXXXOOOOOOOOOOOOOOOOOOOOXXXXOOOOOOOOOOOO",
"OOOOOOOOOOOOOOOOOOOOOOOOOOOOOOOOOOOOOOOOOOOOOOOOOOOOOOOOXXXXOOOOOOOOOOOOOOOOOOOOOOOOOOOOXXXXOOOOOOOOOOOOOOOOOOOOXXXXOOOOOOOOOOOO",
"OOOOOOOOOOOOOOOOOOOOOOOOOOOOOOOOXXXXOOOOOOOOOOOOOOOOOOOOOOOOXXXXOOOOOOOOOOOOOOOOOOOOOOOOXXXXOOOOOOOOOOOOOOOOOOOOOOOOXXXXOOOOOOOO",
"OOOOOOOOOOOOOOOOOOOOOOOOOOOOOOOOXXXXOOOOOOOOOOOOOOOOOOOOOOOOXXXXOOOOOOOOOOOOOOOOOOOOOOOOXXXXOOOOOOOOOOOOOOOOOOOOOOOOXXXXOOOOOOOO",
"OOOOOOOOOOOOOOOOOOOOOOOOOOOOOOOOXXXXOOOOOOOOOOOOOOOOOOOOOOOOXXXXOOOOOOOOOOOOOOOOOOOOOOOOXXXXOOOOOOOOOOOOOOOOOOOOOOOOXXXXOOOOOOOO",
"OOOOOOOOOOOOOOOOOOOOOOOOOOOOOOOOXXXXOOOOOOOOOOOOOOOOOOOOOOOOXXXXOOOOOOOOOOOOOOOOOOOOOOOOXXXXOOOOOOOOOOOOOOOOOOOOOOOOXXXXOOOOOOOO",
"OOOOOOOOOOOOOOOOOOOOOOOOOOOOXXXXOOOOOOOOOOOOOOOOOOOOOOOOOOOOXXXXOOOOOOOOOOOOOOOOOOOOOOOOXXXXOOOOOOOOOOOOOOOOOOOOOOOOXXXXOOOOOOOO",
"OOOOOOOOOOOOOOOOOOOOOOOOOOOOXXXXOOOOOOOOOOOOOOOOOOOOOOOOOOOOXXXXOOOOOOOOOOOOOOOOOOOOOOOOXXXXOOOOOOOOOOOOOOOOOOOOOOOOXXXXOOOOOOOO",
"OOOOOOOOOOOOOOOOOOOOOOOOOOOOXXXXOOOOOOOOOOOOOOOOOOOOOOOOOOOOXXXXOOOOOOOOOOOOOOOOOOOOOOOOXXXXOOOOOOOOOOOOOOOOOOOOOOOOXXXXOOOOOOOO",
"OOOOOOOOOOOOOOOOOOOOOOOOOOOOXXXXOOOOOOOOOOOOOOOOOOOOOOOOOOOOXXXXOOOOOOOOOOOOOOOOOOOOOOOOXXXXOOOOOOOOOOOOOOOOOOOOOOOOXXXXOOOOOOOO",
"OOOOOOOOOOOOOOOOOOOOOOOOOOOOXXXXOOOOOOOOOOOOOOOOOOOOOOOOOOOOOOOOOOOOOOOOOOOOOOOOOOOOOOOOOOOOOOOOOOOOOOOOOOOOOOOOOOOOOOOOOOOOOOOO",
"OOOOOOOOOOOOOOOOOOOOOOOOOOOOXXXXOOOOOOOOOOOOOOOOOOOOOOOOOOOOOOOOOOOOOOOOOOOOOOOOOOOOOOOOOOOOOOOOOOOOOOOOOOOOOOOOOOOOOOOOOOOOOOOO",
"OOOOOOOOOOOOOOOOOOOOOOOOOOOOXXXXOOOOOOOOOOOOOOOOOOOOOOOOOOOOOOOOOOOOOOOOOOOOOOOOOOOOOOOOOOOOOOOOOOOOOOOOOOOOOOOOOOOOOOOOOOOOOOOO",
"OOOOOOOOOOOOOOOOOOOOOOOOOOOOXXXXOOOOOOOOOOOOOOOOOOOOOOOOOOOOOOOOOOOOOOOOOOOOOOOOOOOOOOOOOOOOOOOOOOOOOOOOOOOOOOOOOOOOOOOOOOOOOOOO",
"OOOOOOOOOOOOOOOOOOOOOOOOOOOOOOOOOOOOOOOOOOOOOOOOOOOOOOOOOOOOOOOOOOOOOOOOOOOOOOOOOOOOOOOOOOOOOOOOOOOOOOOOOOOOOOOOOOOOOOOOOOOOOOOO",
"OOOOOOOOOOOOOOOOOOOOOOOOOOOOOOOOOOOOOOOOOOOOOOOOOOOOOOOOOOOOOOOOOOOOOOOOOOOOOOOOOOOOOOOOOOOOOOOOOOOOOOOOOOOOOOOOOOOOOOOOOOOOOOOO",
"OOOOOOOOOOOOOOOOOOOOOOOOOOOOOOOOOOOOOOOOOOOOOOOOOOOOOOOOOOOOOOOOOOOOOOOOOOOOOOOOOOOOOOOOOOOOOOOOOOOOOOOOOOOOOOOOOOOOOOOOOOOOOOOO",
"OOOOOOOOOOOOOOOOOOOOOOOOOOOOOOOOOOOOOOOOOOOOOOOOOOOOOOOOOOOOOOOOOOOOOOOOOOOOOOOOOOOOOOOOOOOOOOOOOOOOOOOOOOOOOOOOOOOOOOOOOOOOOOOO",
"OOOOOOOOOOOOOOOOOOOOOOOOOOOOOOOOOOOOOOOOOOOOOOOOOOOOOOOOOOOOOOOOOOOOOOOOOOOOOOOOOOOOOOOOOOOOOOOOOOOOOOOOOOOOOOOOOOOOOOOOOOOOOOOO",
"OOOOOOOOOOOOOOOOOOOOOOOOOOOOOOOOOOOOOOOOOOOOOOOOOOOOOOOOOOOOOOOOOOOOOOOOOOOOOOOOOOOOOOOOOOOOOOOOOOOOOOOOOOOOOOOOOOOOOOOOOOOOOOOO",
"OOOOOOOOOOOOOOOOOOOOOOOOOOOOOOOOOOOOOOOOOOOOOOOOOOOOOOOOOOOOOOOOOOOOOOOOOOOOOOOOOOOOOOOOOOOOOOOOOOOOOOOOOOOOOOOOOOOOOOOOOOOOOOOO",
"OOOOOOOOOOOOOOOOOOOOOOOOOOOOOOOOOOOOOOOOOOOOOOOOOOOOOOOOOOOOOOOOOOOOOOOOOOOOOOOOOOOOOOOOOOOOOOOOOOOOOOOOOOOOOOOOOOOOOOOOOOOOOOOO"
};
