/* XPM */
static char *d781bfdb42774393be044cbda48dbcf9ignompIfZ7tjAjq1[] = {
/* columns rows colors chars-per-pixel */
"128 128 2 1 ",
"  c #874D00",
". c #D87B31",
/* pixels */
"................................................................................................................................",
"................................................................................................................................",
"................................................................................................................................",
"................................................................................................................................",
"................................................................................................................................",
"................................................................................................................................",
"................................................................................................................................",
"................................................................................................................................",
"................................................................................................................................",
"................................................................................................................................",
"................................................................................................................................",
"................................................................................................................................",
"................    ........................    ................................................................................",
"................    ........................    ................................................................................",
"................    ........................    ................................................................................",
"................    ........................    ................................................................................",
"............    ................................    ....................    ....................................................",
"............    ................................    ....................    ....................................................",
"............    ................................    ....................    ....................................................",
"............    ................................    ....................    ....................................................",
"............    ................................    ........................    ........................    ....................",
"............    ................................    ........................    ........................    ....................",
"............    ................................    ........................    ........................    ....................",
"............    ................................    ........................    ........................    ....................",
"............................................................................    ....................    ........................",
"............................................................................    ....................    ........................",
"............................................................................    ....................    ........................",
"............................................................................    ....................    ........................",
"....................................................................................................    ........................",
"....................................................................................................    ........................",
"....................................................................................................    ........................",
"....................................................................................................    ........................",
"................................................................................................................................",
"................................................................................................................................",
"................................................................................................................................",
"................................................................................................................................",
"....................    ........................    ............................................................................",
"....................    ........................    ............................................................................",
"....................    ........................    ............................................................................",
"....................    ........................    ............................................................................",
"....................    ....................    ................................................................................",
"....................    ....................    ................................................................................",
"....................    ....................    ................................................................................",
"....................    ....................    ................................................................................",
"....................    ....................    ....................................    ........................................",
"....................    ....................    ....................................    ........................................",
"....................    ....................    ....................................    ........................................",
"....................    ....................    ....................................    ........................................",
"................................................................................    ............................................",
"................................................................................    ............................................",
"................................................................................    ............................................",
"................................................................................    ............................................",
"................................................................................    ........................    ................",
"................................................................................    ........................    ................",
"................................................................................    ........................    ................",
"................................................................................    ........................    ................",
"........................................................    ....................................................    ............",
"........................................................    ....................................................    ............",
"........................................................    ....................................................    ............",
"........................................................    ....................................................    ............",
"............    ........................................    ....................................................    ............",
"............    ........................................    ....................................................    ............",
"............    ........................................    ....................................................    ............",
"............    ........................................    ....................................................    ............",
"........    ............................................    ....................................................................",
"........    ............................................    ....................................................................",
"........    ............................................    ....................................................................",
"........    ............................................    ....................................................................",
"........    ....................................................................................................................",
"........    ....................................................................................................................",
"........    ....................................................................................................................",
"........    ....................................................................................................................",
"................................................................................................................................",
"................................................................................................................................",
"................................................................................................................................",
"................................................................................................................................",
"................................................................................................................................",
"................................................................................................................................",
"................................................................................................................................",
"................................................................................................................................",
"............................................    ............................................    ................................",
"............................................    ............................................    ................................",
"............................................    ............................................    ................................",
"............................................    ............................................    ................................",
"........................................    ............................................    ....................................",
"........................................    ............................................    ....................................",
"........................................    ............................................    ....................................",
"........................................    ............................................    ....................................",
"........................................    ............................................    ....................................",
"........................................    ............................................    ....................................",
"........................................    ............................................    ....................................",
"........................................    ............................................    ....................................",
"................    ............................................................................................................",
"................    ............................................................................................................",
"................    ............................................................................................................",
"................    ............................................................................................................",
"....................    ........................................................................................................",
"....................    ........................................................................................................",
"....................    ........................................................................................................",
"....................    ........................................................................................................",
"....................    ........................................................................................................",
"....................    ........................................................................................................",
"....................    ........................................................................................................",
"....................    ........................................................................................................",
"........................................................    ............................    ....................    ............",
"........................................................    ............................    ....................    ............",
"........................................................    ............................    ....................    ............",
"........................................................    ............................    ....................    ............",
"................................    ........................    ........................    ........................    ........",
"................................    ........................    ........................    ........................    ........",
"................................    ........................    ........................    ........................    ........",
"................................    ........................    ........................    ........................    ........",
"............................    ............................    ........................    ........................    ........",
"............................    ............................    ........................    ........................    ........",
"............................    ............................    ........................    ........................    ........",
"............................    ............................    ........................    ........................    ........",
"............................    ................................................................................................",
"............................    ................................................................................................",
"............................    ................................................................................................",
"............................    ................................................................................................",
"................................................................................................................................",
"................................................................................................................................",
"................................................................................................................................",
"................................................................................................................................",
"................................................................................................................................",
"................................................................................................................................",
"................................................................................................................................",
"................................................................................................................................"
};
