/* XPM */
static char *_6c9ee3a0c4e4a4a9aedca2a8e528304QjcV8ffvB5U0v4yn[] = {
/* columns rows colors chars-per-pixel */
"128 128 2 1 ",
"  c #494949",
". c #676767",
/* pixels */
"                                                                                                                                ",
"                                                                                                                                ",
"                                                                                                                                ",
"                                                                                                                                ",
"    ............................    ............................................................    ........................    ",
"    ............................    ............................................................    ........................    ",
"    ............................    ............................................................    ........................    ",
"    ............................    ............................................................    ........................    ",
"    ............................    ............................................................    ........................    ",
"    ............................    ............................................................    ........................    ",
"    ............................    ............................................................    ........................    ",
"    ............................    ............................................................    ........................    ",
"    ............................    ............................................................    ........................    ",
"    ............................    ............................................................    ........................    ",
"    ............................    ............................................................    ........................    ",
"    ............................    ............................................................    ........................    ",
"    ............................    ............................................................    ........................    ",
"    ............................    ............................................................    ........................    ",
"    ............................    ............................................................    ........................    ",
"    ............................    ............................................................    ........................    ",
"    ............................    ............................................................    ........................    ",
"    ............................    ............................................................    ........................    ",
"    ............................    ............................................................    ........................    ",
"    ............................    ............................................................    ........................    ",
"    ............................    ............................................................    ........................    ",
"    ............................    ............................................................    ........................    ",
"    ............................    ............................................................    ........................    ",
"    ............................    ............................................................    ........................    ",
"                                                                                                                                ",
"                                                                                                                                ",
"                                                                                                                                ",
"                                                                                                                                ",
"    ............................................    ............................................................    ........    ",
"    ............................................    ............................................................    ........    ",
"    ............................................    ............................................................    ........    ",
"    ............................................    ............................................................    ........    ",
"    ............................................    ............................................................    ........    ",
"    ............................................    ............................................................    ........    ",
"    ............................................    ............................................................    ........    ",
"    ............................................    ............................................................    ........    ",
"    ............................................    ............................................................    ........    ",
"    ............................................    ............................................................    ........    ",
"    ............................................    ............................................................    ........    ",
"    ............................................    ............................................................    ........    ",
"    ............................................    ............................................................    ........    ",
"    ............................................    ............................................................    ........    ",
"    ............................................    ............................................................    ........    ",
"    ............................................    ............................................................    ........    ",
"    ............................................    ............................................................    ........    ",
"    ............................................    ............................................................    ........    ",
"    ............................................    ............................................................    ........    ",
"    ............................................    ............................................................    ........    ",
"    ............................................    ............................................................    ........    ",
"    ............................................    ............................................................    ........    ",
"    ............................................    ............................................................    ........    ",
"    ............................................    ............................................................    ........    ",
"    ............................................    ............................................................    ........    ",
"    ............................................    ............................................................    ........    ",
"    ............................................    ............................................................    ........    ",
"    ............................................    ............................................................    ........    ",
"                                                                                                                                ",
"                                                                                                                                ",
"                                                                                                                                ",
"                                                                                                                                ",
"    ........    ............................................................    ............................................    ",
"    ........    ............................................................    ............................................    ",
"    ........    ............................................................    ............................................    ",
"    ........    ............................................................    ............................................    ",
"    ........    ............................................................    ............................................    ",
"    ........    ............................................................    ............................................    ",
"    ........    ............................................................    ............................................    ",
"    ........    ............................................................    ............................................    ",
"    ........    ............................................................    ............................................    ",
"    ........    ............................................................    ............................................    ",
"    ........    ............................................................    ............................................    ",
"    ........    ............................................................    ............................................    ",
"    ........    ............................................................    ............................................    ",
"    ........    ............................................................    ............................................    ",
"    ........    ............................................................    ............................................    ",
"    ........    ............................................................    ............................................    ",
"    ........    ............................................................    ............................................    ",
"    ........    ............................................................    ............................................    ",
"    ........    ............................................................    ............................................    ",
"    ........    ............................................................    ............................................    ",
"    ........    ............................................................    ............................................    ",
"    ........    ............................................................    ............................................    ",
"    ........    ............................................................    ............................................    ",
"    ........    ............................................................    ............................................    ",
"    ........    ............................................................    ............................................    ",
"    ........    ............................................................    ............................................    ",
"    ........    ............................................................    ............................................    ",
"    ........    ............................................................    ............................................    ",
"                                                                                                                                ",
"                                                                                                                                ",
"                                                                                                                                ",
"                                                                                                                                ",
"    ....................    ............................................................    ................................    ",
"    ....................    ............................................................    ................................    ",
"    ....................    ............................................................    ................................    ",
"    ....................    ............................................................    ................................    ",
"    ....................    ............................................................    ................................    ",
"    ....................    ............................................................    ................................    ",
"    ....................    ............................................................    ................................    ",
"    ....................    ............................................................    ................................    ",
"    ....................    ............................................................    ................................    ",
"    ....................    ............................................................    ................................    ",
"    ....................    ............................................................    ................................    ",
"    ....................    ............................................................    ................................    ",
"    ....................    ............................................................    ................................    ",
"    ....................    ............................................................    ................................    ",
"    ....................    ............................................................    ................................    ",
"    ....................    ............................................................    ................................    ",
"    ....................    ............................................................    ................................    ",
"    ....................    ............................................................    ................................    ",
"    ....................    ............................................................    ................................    ",
"    ....................    ............................................................    ................................    ",
"    ....................    ............................................................    ................................    ",
"    ....................    ............................................................    ................................    ",
"    ....................    ............................................................    ................................    ",
"    ....................    ............................................................    ................................    ",
"    ....................    ............................................................    ................................    ",
"    ....................    ............................................................    ................................    ",
"    ....................    ............................................................    ................................    ",
"    ....................    ............................................................    ................................    ",
"                                                                                                                                ",
"                                                                                                                                ",
"                                                                                                                                ",
"                                                                                                                                "
};
